<mxfile host="app.diagrams.net" modified="2023-07-05T11:45:22.486Z" agent="Mozilla/5.0 (Windows NT 10.0; Win64; x64) AppleWebKit/537.36 (KHTML, like Gecko) Chrome/114.0.0.0 Safari/537.36 Edg/114.0.1823.67" etag="zOisl0nc40QicmMX-uXD" version="21.5.2" type="github">
  <diagram name="Page-1" id="6PG3Fwifakfzk-G456FE">
    <mxGraphModel dx="2924" dy="2248" grid="1" gridSize="10" guides="1" tooltips="1" connect="1" arrows="1" fold="1" page="1" pageScale="1" pageWidth="850" pageHeight="1100" math="0" shadow="0">
      <root>
        <mxCell id="0" />
        <mxCell id="1" parent="0" />
        <mxCell id="JN9JuaacZQjpyCuYcN4X-28" value="Crown Hosting" style="rounded=0;whiteSpace=wrap;html=1;dashed=1;dashPattern=1 1;verticalAlign=top;" parent="1" vertex="1">
          <mxGeometry x="-720" y="-10" width="240" height="410" as="geometry" />
        </mxCell>
        <mxCell id="JN9JuaacZQjpyCuYcN4X-27" value="Azure" style="rounded=0;whiteSpace=wrap;html=1;dashed=1;dashPattern=1 1;verticalAlign=top;" parent="1" vertex="1">
          <mxGeometry x="-350" y="-80" width="1350" height="810" as="geometry" />
        </mxCell>
        <mxCell id="B2m6w45xhWhxdDzetuVd-44" value="Existing Defra services" style="rounded=0;whiteSpace=wrap;html=1;dashed=1;verticalAlign=top;" parent="1" vertex="1">
          <mxGeometry x="740" y="130" width="200" height="370" as="geometry" />
        </mxCell>
        <mxCell id="B2m6w45xhWhxdDzetuVd-22" style="edgeStyle=orthogonalEdgeStyle;rounded=0;orthogonalLoop=1;jettySize=auto;html=1;startArrow=classic;startFill=1;" parent="1" source="B2m6w45xhWhxdDzetuVd-1" target="B2m6w45xhWhxdDzetuVd-6" edge="1">
          <mxGeometry relative="1" as="geometry" />
        </mxCell>
        <mxCell id="B2m6w45xhWhxdDzetuVd-24" value="Async request/response via session queue" style="edgeLabel;html=1;align=center;verticalAlign=middle;resizable=0;points=[];" parent="B2m6w45xhWhxdDzetuVd-22" vertex="1" connectable="0">
          <mxGeometry x="-0.7333" y="1" relative="1" as="geometry">
            <mxPoint x="-1" y="24" as="offset" />
          </mxGeometry>
        </mxCell>
        <mxCell id="B2m6w45xhWhxdDzetuVd-25" value="Submit application&lt;br&gt;Transport TBC -&lt;br&gt;RabbitMQ or REST" style="edgeStyle=orthogonalEdgeStyle;rounded=0;orthogonalLoop=1;jettySize=auto;html=1;entryX=0.5;entryY=0;entryDx=0;entryDy=0;" parent="1" source="B2m6w45xhWhxdDzetuVd-1" target="B2m6w45xhWhxdDzetuVd-19" edge="1">
          <mxGeometry x="-0.25" relative="1" as="geometry">
            <mxPoint as="offset" />
          </mxGeometry>
        </mxCell>
        <mxCell id="JN9JuaacZQjpyCuYcN4X-8" style="edgeStyle=orthogonalEdgeStyle;rounded=0;orthogonalLoop=1;jettySize=auto;html=1;entryX=1;entryY=0.5;entryDx=0;entryDy=0;" parent="1" source="B2m6w45xhWhxdDzetuVd-1" target="JN9JuaacZQjpyCuYcN4X-4" edge="1">
          <mxGeometry relative="1" as="geometry" />
        </mxCell>
        <mxCell id="B2m6w45xhWhxdDzetuVd-1" value="Apply for scheme&lt;br&gt;(ffc-tcg-apply)" style="rounded=1;whiteSpace=wrap;html=1;verticalAlign=top;" parent="1" vertex="1">
          <mxGeometry x="80" y="160" width="160" height="80" as="geometry" />
        </mxCell>
        <mxCell id="B2m6w45xhWhxdDzetuVd-3" value="" style="shape=image;verticalLabelPosition=bottom;labelBackgroundColor=default;verticalAlign=top;aspect=fixed;imageAspect=0;image=https://cdn.freebiesupply.com/logos/large/2x/nodejs-icon-logo-png-transparent.png;" parent="1" vertex="1">
          <mxGeometry x="122.14" y="200" width="30" height="33.03" as="geometry" />
        </mxCell>
        <mxCell id="B2m6w45xhWhxdDzetuVd-5" value="" style="shape=image;verticalLabelPosition=bottom;labelBackgroundColor=default;verticalAlign=top;aspect=fixed;imageAspect=0;image=data:image/png,iVBORw0KGgoAAAANSUhEUgAAAcIAAAE7CAYAAABOhYGUAAAgAElEQVR4nOzdd5wdZfU/8M95Zm7Z3nezJcluegEhoQSQKoKC/ixoooKoIEJoSlBqUK6KdIO0QJBeFDcWQJoiXQIIUhKSkIRkk+wmm+391pnn/P7YwDeGlC0zt57368UfbOaeObt79555OiCEEEIIIYQQQgghhBBCCCGEEEIIIYQQQgghhBBCCCGEEEIIIYQQQgghhBBCCCGEEEIIIYQQQgghhBBCCCGEEEIIIYQQQohUQ4lOINlt3bo1Oxi0JgBcoJQd09rXPHFi1VYishOdmxBCiNGTQrgbd99dXww7djIzzQPhMwC8ADNAncpQb0bD9HRBcfYTJ5/8/9oTnasQQoiRk0K4k3vueTzPNGM/ioajlwMo2dO1BPQq4ru08lxzxhnzOuOUohBCCAdJIdzBg3c8WB4zPPdo5i8P75W8wmb79Pnzv/e2O5kJIYRwixTC7W6/vT7X54n9hZmOH2GIDZaOffPss7//rqOJCSGEcJVKdALJwjSsXzDTcaMIMcE0vLc+/PDT+Y4lJYQQwnVSCAHccstdn1eEczDaFjLzYdFo77edyUoIIUQ8ZHzX6D333JOnraxnARzmRDwiLDc8kTmnnXZa2Il4Qggh3JXxLUKO+L8IYI5j8Rj72rZ/ulPxhBBCuCujC2F9fb0XJk4DYDgYlmDxoQ7GE0II4aKMLoQ9PdFyZjrC6bhMPMPpmEIIIdyR0YXQpIJZAOc6HZegCpyOKYQQwh0ZXQhtDIx3Zb4Qa8v5oEIIIdyQ0YUwPye7h5kdj0uGudXxoEIIIVyR0YVwIBx+z+lTJJgZfp/nPSdjCiGEcE9GF8JgEA1EWOFkTCIK94cG/u1kTCGEEO7J6EJ47rnz+sNRPABg2P2jGgYTNGso5h3HGQnPFBX5Wh1MUwghhIsyuhACwIQJNY+YpvnBcF7DUDybn4l+Q1/DX9K3xXK5K6YHf5QRwzRvmzdvnhzaK4QQKSLjC+GJJx7ZBrYWAhwc6mv86Ldn8DLTD0uVotX7Jb6dCrklZpsFf8ydM1O6RYUQIoVkfCEEgE1Na59ixpUAhtSSI+hPOkMZBC9i5hdxd+hY8+G75s2cGXUvUyGEEE7L+E23d/T7JQ9fAKirAWTt6TqG0l/Vi3Q+eswdv07gD8H8Jf856za4mqgQQgjHSItwB2ececrNNtsnAfwO9tA6ZJD6iA5kBWvnr08DqaXB2yeOdTtXIYQQzpBCuAMi4vnzT33WG7OOZ6KzAbwMoHuny1jB7llLh3wYpLyOnWMwMJuU+Zf+22eMiUvSQgghRkW6Rvdg0aL6rLy88BiDzXFaI4s8SiuNXgvRFtO0u76B6+Z6wrwYgPmpFzNe9fvtb9DpH7XFP3MhhBBDJYVwFLgeRqRj6hMMnLirfyZDP+0rtE+heRt64p6cEEKIIZGu0VGgebB92jOfGF27+me21ZeiPcZNXF+zx8k3QgghEkcK4SjRuR80qqq+n4J3vWepttQPwu05l8c7LyGEEEMjhdABnvcKH4ER+/Nu/pnAdEl06YTT4pqUEEKIIZExQoeE6sfXocv3MjTtbulEj2mH5nrO2/xcXBMTQgixR9IidEjWvE0NRjauACO2m0sKLDPrgcit0/aNa2JCCCH2SAqhgzxWtB4Gv77bCxiV2mPdG3ygpjqOaQkhhNgDKYQOotM2hs3e8K8B2l2rEGDjQEW+2/nFWn8cUxNCCLEbUggdZg5sfoEM/fSeruEB8yvhlf5fxCsnIYQQuyeTZVwQeXDydN2v3gFhT62+GJh/5D977YNEwz8YWAghhDOkRegC74Z1a8gXW7yX8uYhpt9ZT4w7LE5pCSGE2AVpEbqE3y4aF36r/FUA4/Z4IfFK0vwVObpJCCESQ1qEbjmgq5G8kZvAe2kXMs1khcV8w2dy4pSZEEKIHUghdAkR2DdO3Ucm3t3rxayOj/j4qjikJYQQYidSCF1Ex23oMcP9vwAosrdL2RO9IHTvlDPikpgQQohPSCF0mdG55RkyontcTvGJCN0YurX2aJdTEkIIsQOZLBMH4dumTWGT3wUje+9X63Uq7Puqb8EHq93PTAghhLQI48B/3odrQfYtQ7taTeYs+66um/YvdDcrIYQQgBTCuPEP+G6ATWuGci2z/my2L3gLB2Z43c5LCCEynRTCOKELV3Z69u26EvYe9iHd4XJNdGq0LHQJs3RfCyGEm6QQxpGhsx6nHGtoE2cAaOVdGH12/NfdzEkIITKdtDbiLPrApFk6aDzPQNGQXsC8VSv6as78NW+7nJoQQmQkaRHGmed7H71nk30nMMSNtomqSPHd/GBFubuZCSFEZpJCGGdE4Oxi79UgWjvk19i0X6g3//f8YIVswyaEEA6TQpgANG9Vv0fZPwNgDfk1hvGVSNT3cxfTEkKIjCRjhAnCgaPNcHXTI7CMeUN/FVnKjpziO6+hfndXBAIBBRylKivXUnPzFL7yyqNtIpLzDoUQYjekECYQ/2vClPB68xVoqhjyizS16qkDX875fONbAPD7Wx6uMbO9R9psH661nkakCsDswWBr3wYQBTAAom4wWoh4iwavJfKsU8q39oc//GqfK9+cEEKkCCmECcQMitxa/RP25C0CeK+/CwULFgx7vd7nudfNucsU8+dBOABAFobXza0x2C3bx8ByMF4izU+FrKIPfvzjE/e2QfgeMM2du1QVFXUpn+8DZZp1CgAKCnp3+b319OQz0AhgLAoKehmAXrlypb10ab0GpBUrhIgPKYQJxrfPyA0r+0kAR+3mChBs7kWxtYbm6LU0x4gg2/Ag4vTvjgG8z0SLs7PtP333u9/t3cO1dP75gbysLOTHYmaVYaDa47EmMqMOQA2AEgD5AHIA+ABsb6EybS9wGoOtVRuAzUyaSIeZqYsIHURo0po3E6lNWnMDEW+NRKh3y5YZfUuXzrMd/r6FEBlOCmESiN0x8bMWm8+CkLvj1xVi3I1Sazl9TjfQfqaGYRhDn18zUhrgF02vOuO0076zcfBLTAsW/LKIyDc+GvXNyc3tORSgfQGMBVAMdyddaSJ0M2OrbasNpqnf05reYVYfZmfbjYFAIOjivYUQGUAKYZII3z1hEUe9C0AMAsMG2+/ScdaH9FnThmkoxKchpJSC1tqORiOvNW5pfADgSbZtzjSM2DQAVUScy3vvxXWbBtDJTJsBvEmElwF+89prr9wkXapCiOFK+CeaGMT/Ls0LryxZrrRd24mS6Ivq++hFqceA5frviIhARDoUDlrdPV0cDA4Ytq0NGrxzKrxHbGb0EeH9aNT7WHZ28KmrrrpqXaKTEkKkhlT4kMsYzXcfcXC7NebZ12huvgHLcPNeNFjl2LJidm9fj93d06UsK2YqZaT0e4KIwUw2wO/YtvmIYdiP+/1oCgQCrvcpCyFSU0p/6KWbh//49I/6e/t/Z8AawgG+I0NEYGZ7INhvd/d0IRQKGQAb2wtj2iHi3mjU8wwRHsnNtV4OBAJ7mgQkhMhA6fnpl2ICgRfNadN6ftDbPXArEfnduIcixTEravf09ti9fT3KsqImEVEGvQViAL+ntfGg1rr+xhsDrYlOSAiRHDLmUzBZLVmyJFtxzrUgdSYGlxo4iKAU6VAoaHV2dyAYHDCYoYgy+vfOABqYcZ9SkSXXXHNNW6ITEkIkViZ/ICbcsmXLsla+33ALFJ0OB5cgEBEYbPf391mdXR0UiYY9ipT8rv8XA9gG0K3hMN/xu98FuhOdkBAiMeTDMUECgYCaWLdfIBwOObaRNhGx1rbd09ttd3V3KsuyTKWkAO4NM22IRDyBwsLo3wKBQH+i8xFCxJd8SCbIXXc9fAKx+hsc6A4lUhyLRa2eni7d09dtaG2bRHKwyDDZAF4msgM+n/FaIBDQiU5ICBEfrk7RF7v2bP2zxT0Dwb8S0agO21VKcSwWs9o7WqzW9hYjFA56AKh0nQHqMgWgDqCTQiFv2Re+cOSbL730UjjRSQkh3CfNhgTY0te/kJSaONLXK6XY1naseduW6MbNG1RvX48vnZdAxBcVeDyxBeEwXjr//OuPSHQ2Qgj3ySdnnC257aHZyqNeAKhguK8lIrYsy2rvbLV7e3s8SpEhv0L3KKXD4XDWdaapfnv99ZfIcVVCpClpEcZRIBBQvmzP2cMtgkTEttZWW0drtGHTetXX1+tXSkkRdJnWyu/zha8kCv/pvPNurUt0PkIId0ghjKPCwsqaaFSfMNTrt3d12p1dHdFNmzegu7vTRwTpAo0jZgIRn5Cd3fXceefd8LlE5yOEcJ4UwjgqyM0/nAhVQ7lWKaX7+/siGzev1x2d7V5mbUoBTByl9MS8vIE/L1hwzfy5c+tlkpkQaUT+oOMkEAgov7/sZ0rxfnu6jojYisViW1ua7K7uDi8zjAzfCSaZZJmm/YWiojZ93HFHL3vppZdkiYUQaUBahHEyduzYHMOwZ+/lMru9ozW6sXG9EQ6HfSS7wSQjDxF+1d9vXHbmmUs8iU5GCDF6UgjjRGtfAQG7nHBBRLCsWGxzU4Pd1d3lJVLSUk9uZJr2L/PzO26+4IKbChOdjBBidKQQxomHPOMB+tTxSkSK+wf6IpsaN1IsFvNKN2jKINOMnuXz9T562WWXlSU6GSHEyEkhjBPymJXM/D9fU0pxR1dbtHnbFg/AZoJSEyOniPh4Zt+iE0542uGTQ4QQ8SKFME5i4UjhTrM+7S1bG6OdHW1eko1BUxkR8XenTPngikAgIA8zQqQg+QCOE83aBD4eD7Rimxsb7IFgv4/kdIiUx0zIygouDIX4YllaIUTqkSfYOPF4PLZtax4Y6I9ta92qmNkj6wLTChHRL6urN4UBvgkg3vtLhBDJQFqEcaLI7O3u6bK2bmsymWU8ME2Zfv/AL3/2s+u+kuhEhBBDJ4UwThq3bi1qa2/xyHhg2ss1zfDtl1xy7cxEJyKEGBr5UI6Diy/+5TH9/R2/la7QjFFNFLp77tz64kQnIoTYO+mic1EgEFDBIL6mFN8J4FNrCEX6IsIhJSXbrgVwZqJz2ZP6+nqjty1Sp7K8tXbUHssKWVrrVtvWK8vK/OvnzZsXTXSOQrhNmiguCQQC3mDQWKCUvRBAXqLzEQlhM3u+e911Cx9NdCI7Y2a6++5HjzJILbBt+xAAxfi/B2MG0EVE/yXDuKOxcdXjgUBA9lUVaUsKoQsCgYAZidAtzPwjSKs7oxGhpacn//DFiy/8KNG5fKy+vj6rp8v6JYCzAeTu5fKoIvxFDUTOOW3Bad1xSE+IuJNC6LCFC6+qtiz7PiI+LtG5iOTArP6ZlaW/HggEgonO5eGHn84P9XfdDaK5w3oh0xvKg2/88Iff2epSakIkjEyWcdDFF/96qm1bf5ciKHZEpI/t6/P8COCEPngyM4WDfTcOuwgCAPEhlqXvfPDBB3NcSE2IhJJdMBxy8cVXTCeiR4iwt6OWROZRhqFnz5799jNvvvlca6KSKC+Zfrxp6t9ihD1BBJqk2Wx54ok//8fh1IRIKGkROuDii686UCnjL1IExR6U5+QMXJeoMwwDgYDy+vRC5lH9zRts84WPPPJIkWOJCZEEpBCOCtP55994kmlGXwBoeqKzEcmNGScUF2/7WiLuXVk5aSaAWaOPxHXBPnXs6OMIkTykEI7Q0Ue/aC5YcO1Zubn9f9BayfIIMRTEzNdecsm1BfG+sdaeg7D3GaJDQ1rGwEVakUI4AoFAwJw48cP5Pl9kETPkHDoxZEqhrq2t4NJ4T5xR0BPh0Cxx0/RMdCKOEMlC1rgNG1Ms9ovTy8u3XcdMWYnORqQWZlB5+dazr79+8eqyoj+1R7UmZu40DGw444zvtBK5c2qFMuw8zR7YMNiEpRlENkzyIDLs4mjFrISMcwrhFimEw3TeeYu+yUy3MJO0BMUIGQX9fT13FRUUkQIUCDFo9P/+zj+8f/ddf/gblPnoGWfM63Tyjh4K907Qb0dr+V3KQx9pKG6nCv0OnYBelHkV7CHHIpKeJJFeZEH9MCxYcM3ns7JCT2itpCUoRoVZc2lJeayosMTL/KlGYL+GfsSv1OKw7lt91llnxUZ6n+7F+xZlewa+rWx7oc1GtcaOjTmGgZD+O11gd1CVhzC0xihrfubMs085caQ5CZFs5MluiBYuDBzs80UekCIonECkqKurQ2mtd9UUy1VQZ0U1linKu/vRR5+aMtz4/bfPGBO+Z/J8HyKv2pZncYz9OxVBYPA52KtKsEUNZ1WFMui94eYjRDKTFuEQXHzxddOVCv5FlkgIJ2nNKCsti+6mVfgJImo2vealkUjnH/fUOuQAVLR20nRt42RE1TyA9jpBRiHKT9PZVhuNHVKLkJkjdRNrDj3uuKPe3evFQqQIaRHuxTnn3D7GMEIPSREUTlOK0NnVqYA9D9Axc2U0HPu9VxXcUb+k/lNLL5hBwcXTD4lUTf6TDhmvIGpcDtAkDOFBtw9FVgvVGkPuFmXzyQ0bcj4Y0sVCpAhpEe7B3LkBb12d8ZxS9pGJzkWkJ601KsdUR/Ny8/fYKgQAZmbDUG9r8Bk/+tHJy7keRnig7jAi4+ccMo4EhreUx0BEP0nnWu1U4x1SaxBoz8r2f/7UU096fzj3ESLZSYtwNw444G1PaWnRzYZhSREUrlFKobOrXQHY63l/RERa80HQeOFPd906P9o57n6EfM9zyDgOwyyCBJuX0UlWK40fUhEEEFLAZVIERTqSQrgb++337plFRR0/5MQeGCAyQDQaM0Lh4NDXLwAl3Vx2xxoc+i1FsWEvgSLYfR/SgX9bhUNiBqyhvKQzryB3QX6Red9w7yVEKpB1hLvwgx8sPqKsbOsvtVaycDhBiBjMZAPYZtvGFqXsJmZq0NpsUcrqtG1Pj1J20DBsi1kTYICIKRTK8vp84TyluEhrKleKxwGoY+axRFQNwJvgb+3TiKm7uwuVY3J48HvZOwWNN+hrRgFaYxXc5B3GrM9m8vA5nnz7aV8fHQttLLS1fTDhU1NKASBMhH8qpqu//e2vvDnk70eIFCPNnZ2ceeaS0oKCthcMw9o30blkEiKAGe22bb5rGNZ/wuGsd7ze6OpYzG4ZGKgMd3UVRZYunTecVtMnoQOBgK+7G36/H6XMNBPgQ4hwGIDZRJybFK1+Irt27AQ2DGPID6cMQi66ra/om8kA7/1INeKVyjK/5Ttv1cqPv1RfX58ViZhTgsHg4Qp0GJhKyKANZOv/Kh+9lpNjbpg3b150hN+VECkhCT4BkkcgEDD7+817PZ7YqUnx4Zi+GOAgM1qJ6D9E+uVYzPdqbm7sw0AgMKS+OicEAoHc9vacg3NzB74C0NeIuIY5MWd0MjNKS/a+lGJnNjzYj5+LzuIXvHtIPQrS9/ttz0/p3FX9jiQsRBqRT/sdnHfezSfn5XU+IkXQFQygFcD7zOo5Zv2S1jmrb7zxooFEJwYA5557W4nf3/MNrzd2FjP2RwLGzz0eb2x8Ta3Bw7y3gm1/Q18HH2K7qoSbFevLvK3V9RR4KW4PGUKkEvnE3+6SS64dRxR+A0BlonNJL9wD0Kta02NK8cvr189oGGEXZ1wEAoHCUIjmMtOlSukJ8bw3M+txNbW21+sb1ti0BS/m8BPRGfz6jmOFmqAfh1dd5v/hmjXOZytE+pBCCGDu3Hqjqqrh4ays0LcTnUs6IGJt2+oDIv1HZvNv2dl2QyAQSKlxpvPOu67K749d5vHEzmAmfzzuycwoLCiKlpVWDKt7FACy0RObp681LfgJhFaQvdA/EH6ELmwKuZSuEGlDCiGAn/70um96vaGH5WzBUWEAA1obT8Vixh1dXZVv3n//aeFEJzUagUBAdXf7v+D3h28DEJfWoVLKmlA7WTHzsLpHY/Dpb+tfBrM49hhVDFzpO2lzAw11uxghMlzGF8K5c+vL6urWvKCUvU+ic0lRGsBGremPoVDRfbfe+uP1iU7IaZdf/ptK27YeIOLPw+W/Ga01j6uptXw+/7C6RzWbqDXf++EXzrj6XrdyEyJdZfqCepo0adVZUgRHxGam96NRz49DIc9h119/5RXpWAQB4OqrFzZnZfE3Lct4GHC3lUVE1NPXw4qG96epyMJGe7+kHXsVIpll9IL6hQsXjrNtnJ/oPFKMDdDrlmXebprqH4sWXdaV6ITiIRAI9F5yybXnA3YJANfO4iMiDAz0KS4bYwPDW8qhoGtdSkuItJbRLcKenpKfAChPdB6pgAh2LGY+aVnG8Z2d/IUbb1z46LXXZkYR/Nh1113aYxjmOQDWuXkfy7KMSDSy171Hd+bxGFVu5CNEusvYMcKTTvpLzdSpy9czU/JtuZUkiBgAdTHz33p7C29cvHjB6kTnlAwuvPC6Y7ze0BMAct2Iz8woKiyOlpVUeDUPox4SPf6jM7/zNTdyEiKdZWzX6NSpyy+SIrhHXV1dRX8cGMi57aGHfiQFcAeLFl3y4mWXBW5hxuVuxCciBEMDxGCNYfTaMHOOG/kIke4yshBeemmglhnfSXQeSaoXwJ+jUf8td955gRy5sxtNTTlXV1cPzAUw2Y340WjUsCxLG4Yx5EJIhJRaqylEssjUMcLTAZQmOokkYxOhPhjM/Zzfj7MWLbpUiuAePPTQRQNKqV+5FZ8ZFAoHmWgYoxfMm9zKR4h0lnEtwosuun4MEDwFGTw+upMYs3pVa/MXGzdOeiOZtz9LNl6vfiIcxgcAXFh+wxQMDiAvN58xxPeqodSHzuchRPrLwBZh7MsA6hKdRRKIMtMrRPhaVpb+wg03XP6aFMHhCQQCvdGo72E3lhYSEULhEPGQ91ojhGORtFzHKYTbMqpFGAgEsoNB+7uQ1uAKZnV1NJr7+E03XSh7UY5Ca2v5Y9XVTRcRcYnTsS0rpizL0qZpDuGBlbXHY0p3thAjkFEtwp6erBlK6UMSnUeiMFNbLOZdSOQ99rrrfvGoFMHRmzSpcT0RL3MjNjMoEg0zDe257aMzzjhlixt5CJHuMqgQMnm9oblARm6szUR4MhxWR+TlRa+95prL2xKdULoIBAKWUngMrmy9xhQKBRlD2Tyb8A8aXPgphBimjOkaXbDgJj8Rvp7oPBKgDcDl11wTuDvRiaSrUMj3is8X6YDDM5EHxwmDQ3lYZQb+4uS9hcgkGdMi9HiCM+HSmq8kxcz0H9v2HH/ttVIE3dTUNLFBa+XK4bexaIy01nvbXmZtdli/68b9hcgEGVMIiSzXNkpONkRs2baxOBgs+vINNyx8L9H5pLulS+fZSvFLbsS2tU2xWGy3hZCZkZ2d/fQp55/S58b9hcgEGVQIcWyic4gHpXRnKJTzvZwc+8Jbb/2xjAXGSSzmew2A5UJoFYmGdzv2R0ThUKT/LzI+KMTIZcQY4dy5SwqAbfu5fJRcojGANw2Dz/jd7y5emehkMk0opN71ejnCTI7+TRERwuEQCvIKscsNuBkvB4PFbzt5TyEyTUa0CCdNatoH4OxE5+GiCIDb/X4c9+tf/1qKYAIsXnzxtljM2+B03O2FkHbT4gspUot+/OMTI07fV4hMkhGFsKencAZRerZ+mdGpNZ3t92NBIBDoT3Q+mczjiS13I27MipHmT0+YYcZTjc0VL7hxTyEySVoWh515vbFpzGm5m8zWgYGcU2+77SL5MEwCzPQewCc7Hde2bWXbtlbq/55bLcveEo6qSwKBY9wYlxQio2REIfT5Imm3t6hSep1tm3Nvu+0i2VYrSRDx6qHuDDo8rKKxiOX3ZQEALMvunbnv1FOOPPLgDW7cTYhMk/aFMBAIqGAQY4dzmk2yC4f9K3p7y792772nywdhclmLwUlLjr7biAiRSARZ/mwQo7W3P/jtI488+GUn7yFEJkv7McJQKJSnFJclOg+nEPGGYDBnnhTB5GPbWc3M6HE6LoEQs2I2gPezs81vXXLJWS86fQ8hMlnaF8KursoCgPyJzsMJzNTT359/yl13nS/nziWhUKgpSgTnN74mQjg88PdwNHrsd06d68rCfSEyWdoXwtLS7nxmToeNtm1m49xbb/3pG4lOROxaSUmJzUxb3YgdjUbbzjvv+x1uxBYi06V9IQyHzVwieBOdxyixZXlvzs62/pToRMTuBQJX2kTc6EZsZhhuxBVCZEAh1NrIRopPCopGPf82DPWrQCAgU+WTGrFtm44vqt8unTeEECKh0r4QRqOewlReTE/Enczmz6677lLHJ2EI5xmG5UrXKDPy3YgrhMiAQpiTE8xnTtnvk2Mx76033XTJfxKdiBgaZmp2Iy6RFEIh3JKqBWLIlOKsROcwUlqrDcFg4Y2JzkMMXU9P7jYAezs/cNiYqcDpmEKIQWlfCIGUnSjDsZj3isWLz5X9Q1OIYXAnwG6cDZgXCAQy4e9ViLhL+z8spdiT6BxGaHlBQfixRCchhofIjgEUcj4u5/T05KfDMiAhkk7aF0JmnarTzu8MBALhRCchhsfnC0UBuNEi9EQivan6XhYiqWVAIaRU/PDYZhixpxKdhBi+vDxEATjenc1MnJ2dk9YnSwuRKBlQCFXKbbfNjFfWrl3ryjR84booMw04HZSIQ7m5AzGn4wohMqAQqtT7Dlkpenbp0qV2ohMRw7dy5YwYwG6s+ewIBAJRF+IKkfFSr0wMk9a241PZ3USE/tbW8vcSnYcYmaVL59kAupyO69YepkKIDCiEhkEp1bLSmjqKi/tcWZQt4kMpuNE12ul0TCHEoLQvhAClWIuQe3Jygt2JzkOMHDMcH8sjgswgFsIlaV8ImSnVZtq1yLKJVKdbXQgqG64L4ZK0L4REnFKFkAjSGkxxtm22OB1Ta+dbmUKIQWlfCFPtW7QsQ1qDKY6IXdhZRssYoRAuSa0qMSIpNUQIpeyUmtwjPk0p2/FuTNs21jodUwgxKGXP6Rsq2za1UqkzvEKU0SeR0/nnn+/1+XymUkr192ezz9djNzU1RVNpXaVtA4aDv0UiRkdH8YfORRRC7CgDCiHZqaQnMoMAACAASURBVLSongj+ROeQAN599tnnsMLCwpPXrFlzKIBaALkAYgCamXnFvvvu+0RHR8dft27d2p7YVPduw4Z1xuTJUx2Lx0y9995752rHAgqRnKioqCg/FAoVMrMPACulQqFQqAtwfknSjtK+EJqmlVK7cTCjMNE5xFN1dXXN+PHjr83NzZ0HYOeTQjwAxhHRuMrKyi9VVFT8pKio6LKVK1c+iSTu8yYiRx+9iPA6sCql3sdCDAONHz9+VllZ2Q+Ki4uPxOCDcD4AJqJOZl7f1dX1XHt7+8MNDQ1r3EgghdpKI0Pk/AbILis7//zzM+K4naqqqrHTpk1bmpubezI+XQQ/RSk1o7q6+qFZs2adhiR+7xJpR2cqr1y54hkn4wmRLIqKigoOPfTQ66ZOnfp8cXHx+QD2A1AAgAAoZi4FMKeoqOiKyZMnv3zooYdeCiDb6TyS9sPEOdwGpM7UcyLke70leYnOw21HH320f+bMmYsMwzgEg2/6ocovKyu7cdq0aYe4ldtoWZbHyZm/4fXrP5STSETaqaioKD/wwAOX5uXl/RQYUk9YRV5e3lXHHHPMvcXFxflO5pL2hVBrsxvglOlWYkaBZWWVJDoPt40ZU30CEZ00wpcXjhs37gYASdlyDgapnYgdmaEVieD5lStXbnYilhDJorS0NG+//fZ7mIiOw/DqkOHxeL41ffr032IIvUhDlfaF0DStIDOlTIsQQEFOTrgq0Um4KRAImJ2dbfMxuvffYZMmTTrUqZyctHLlv9uZHRnc18uXv/kQgJR5kBNiKKZOnTofwHEjfX1OTs73P/OZzxzhVD5pXwiZYSmVvBMrdsFjWTwz0Um4qampqwTAkaONU15ePteBdBxnWWobs+oYfST68MMPl/9r9HGESB5VVVXZOTk5PxtlGE9FRcVZjiSEDCiEhmHZzKlTCIkYkUjWbIBT7kDhoYrF+g8ERr9MxO/3H+VAOo7btu2j9o6OllEvgG9u3vzwli1bHCioQiQPj8dzNIDy0cYhouOZ2ZEVu2lfCDdtGm8xp84JFMwEvz+8fyDwy7SdMNPX1+dIi9c0zfFOD5o7hEMh+5VRBWBsef31Vx90KiEhksW4cePmOBSq8K9//WuNE4HSvhCOHdsQdmriQrwQ6SnBoFGZ6DzcEgz2VzsUyvT7/Uk5nvr22689B/BIxwl527bG+9euXbvF0aSESAJKKSf/ZkfdsgQyoBB6vd4+YO9nuTHzJ/8lHuUwc1JOBHECMzu1aYBSSiVjixBr1nzwXigU+WAkr9WaO59//u07nM5JiGRAREk37JP2hTAQCAwA2OWJ79uLnu33+mL5eQWRwoKiSF5uftTr8cYA2MyJ61E1DP3FQCCQlr8fB/dTJSJKyiUUAKwVK/5783BfRMTYtq31uqam96U1KNISMzs27m3btiNbLqb9FmsAmAj9Ozf0tNa6pKg0VlhYrAzD+NTPwbYtu6+/L9LR2a60tjwO75o1FMd2dCAXQG+8b5xKnBosd8MLLzy39JBDDlugNR00lOuJYDc1df7uoYfuGHYBFSJVNDU1rZ44caITofrLysoanQiUli2OnWmNT86HYzBM04xNqJ1klZSU+5RSHmamnf9TyjALC4p8kyZMUWUlFWEisuLZbUrEpUrljXidjUgK1qOP/umHRLy3E+vZtvWG11//7zcfeujWiyHrBkUai0QizwEY9bwN27b/ccwxxzgy/yMjCqFSg4ubmRlZ/qzYuJo6MgzTu7euT2aG1tooLCz2146byPl5BRGOU38pM8E0IyfH417xR8kwEBsXGzZ8uGLlyrXfB7B1N5eE2ts77nn00T8d8dJLf38MSbyZuBBOaGpq2hKNRh8fZZjYhg0b7nIkIWRIIdSaOhkMvz8rWjVmrCKiYXUJMzOUUp6K8kpvTfV4y2N6Ysxw/cPc44kcGwgEknJW5Oik7xrJXXniiT8++/e/P/W1WCzyLwAhAAygta+v9/GXX37563fffetZjY1rdlcohUg769evDwDYW0/JbkUikUcbGhpeciqfTBgjBGBt9HmzYjVV4wxg5BM1mJn8Pr933Ng6u6OzPdrZ3e5R5OZph5Q/MGB8C8BN7t1DxMPKlW+91dW15aslJZXjqqur8tatW7Vt/fr1LZBuUJGBGhsbV2ZlZZ1VW1t7L4Ci4bw2Eom88Pbbbzs6hJARLcLy8or3x1bXAqMogjsxSkvKvONqai1lKMvFxiEB+OE559ye69YNRPxs3bo1uGLFfz989tm/v7V+/fpGSBEUmYvXrl37+IYNG75k2/b7GNqQQCQajS557733vjkwMLDNyWQyohAW5BbXwLkiCGCwdejz+r0Txk9GTnZuxK2uUsOwp+bmdn3VjdhCCJFA/NFHH73+/PPPH9bc3HyOZVmvA2gDEPn43wEEAWwJhUJ/bm5uPv6ll16a39PT0+V0ImnfNXrvvfVlsai9QBG7UvSZ2awaU6O6ujujHZ1tJhwuuADMWMw469RTH3zsoYe+58SJBkIIkUyCK1asWALgnvLy8vFa65r8/Py8vr4+TURdzNzQ1tbWArjX9ZbWhbC+vt5QlHNFZ0f3Z4Z39uvwMLMqKiz2+ny+WPO2LczMjv5c/f7IIePGffR5AKOdaSWEEMnKam1tXQ9gfXu7I+vkhyytu0bD/dZRnR3dZ8RjSx9mpmx/jnfc2AmslHL0/ENmeGIxz4Vz5y7KcjKuEEKINC6Et9zycL5lmzcQUXa87slgmIbhqRs/iUzTjDk5bKiUfeT06d1fdiygEEIIAGlcCHN95im2tmYn6PbmuJo68nl8MSd3o4lG1a8CgcCoz/FLvMxZUC+ESH5pWQhvv70+1yZemMgciMisrhpHnsENvB2KydN6e7PmOxUvcTJrQb0QIrmlZSH0GLEfgtmpM+9GzFCGWVM1DkRkOxGPmeD1hi654IJrap2IJ4QQIg0LYX19fS4Rzk90HsDgmKFhGJ6x1eNtrbVTe0iOMU37V3Pn1iftqQtCCJFK0m75RCziPQmwkqrF5PX6vGPKqyItbVu9RGrU3YKmac2bMmX14wD+4kB6QgwVAfAVFhb6Y7GYX2vtYWYPMyv870M1A2AisojIUkpZpmlGenp6Ihg8JDtVNxYnAD4Mfm5aGFz4LePdaSCtCuGSJUs8weDA9wBKqtYSMyM/v8AbigRjvb09XgdWc/hsm3+zcOFV//nNb65w5DyuDEUVFRVltm3XjB07to6IJmqtKwGUbp9t7MH23S22Hya6BcBHLS0tG/r7+zf19fXFd7FTfHkKCwur8/Pza0pLS2cw85SCgoIJPp+vjJkLARQCyALw8c9px88SDcAGECGiMDOHMHiuZq9t252dnZ2bmblBKfVhQ0PDRq11kxu7hTilsrJy/JgxY07w+XxHFRQU1GitfUqpSGdnZ5NlWS83NDQ8093dvcnp+5aWluYZhlFbVVVVB2AyM9copcoA5DCzQUT29p9tGwZPN/mosbGxIRKJbE7B92bW5MmTD8rLyztCaz2NiAowuAXhJiJ6c9OmTa91dHS4dlh1WhXC7OzKfUPB/oOScSYGM1NZSYURDoViMSvmcSDkVMvSVwcCgdMCgYAjZ3JlCKqpqdm3pqbm86Zpfi47O3s6gAoAOUMNUF5ePgBgW19f37uRSOSp1tbW55qamlL+RPmCgoKiioqKQ4uLiz+flZV1qMfjGQegDIOFDsDgQ90QfNxC9DDz/+yTaxgGysrKPvn/0tLSHiJq6e/vX21Z1qubN29+sbm5eTkcOK/OAeacOXPOKygo+BmAamDw+yciMDOKiooA4NulpaWNnZ2dv/vvf/+7GIMt3hGrqakpLi4u/lx2dvaJeXl5c4ioGkA+hrgjSFlZ2QCAbeFweGVvb+8/2tra/rVly5Z1SOKW69SpUz83ZsyYgM/nOwjArmbF69LS0qaenp67169f/7v29vY+p3NIxpoxYrff+qcrvV47kOg89iQSjUQbmzaa5MCR90SwW1srzrznnrPvdSK3ePniF094WGv7FAdCxVatWnV8U1PTUI5j8c2cOfPrFRUV803TnA0gF868/zWA9lgs9tT69et/u3nz5pUOxIwnNXHixKPHjh37PY/HcxwR/U/hS4ABy7LWDwwMPLpu3bqHOjs7mxKUh+fwww+/KTs7+ywMrcFg9/f3P7Rs2bLzAAx7K8TKysrxkyZN+nFWVta3MPhg5kQjhQH0RiKRN7u7u5e8//77TyK5NnpXhxxyyLn5+flXYbDY7422LOvldevWfbexsdHRY8vSphDec8/jedoaeBHAAYnOZU8UKW7vbI11dnU40UUKw7AHYjHf0ddff8XbDqQXF3EuhNkzZ86cW11dfQWASQ7cc0/sWCz2h3Xr1v26qanpIyTxU3hBQUHR5MmTTyouLl4AYGai89mNEBH9ae3atdc2NDSsQ/zGFumggw66sKio6DoMc+/ggYGBm1577bWLMbQWLVVWVo6bPHnyxX6//zQMdjW7hojWNjc339DU1FTf2dnZ6+a9hpLOZz/72dNzcnLuwPAfvN5ctmzZV/r7+0d8nuHOkmosbTROPvmU6dFIdCGSvLuXwZSdnYO+/h5baz3qnz+z8hLxnPLy8x9fvbq+34kc3TZp0pSvM+vPOBBKt7W1PdTb27txF/9GNTU1B8+ZM+e+/Pz8CwAUO3C/vVGGYexXVlb2rcLCwv7m5uYPkBxdfJ8oLi7Onz59+vcnT558V3Z29ukAyhOd0x54AOxfUlJyanFxsb+vr29FNBoNuX3TioqKutra2rsAFAz3tV6vd1ZOTs5LLS0tm/dyqX+//fY7fcKECQ+Zpvk5xKcVXpKbm/uVqqqq47KysppbW1sbkKCJS2PHjp1YVVX1BwytJbizmpKSkuzNmzf/Ew7lnzbLJ2KRyLHM7Et0HkPDxpiKanZuSQV/ZvLkFYsCgUDctpMbHdcX1PtnzZq1YMaMGU8T0dEu32tXyktKSm456qijfl9QUDCsQ0ddRHV1dUcceOCBz5SWlt5BRDOQOj1CBUVFRT8/8MADH5syZcp+bt9s7NixX8P2McER8FdUVFywpwuqqqrGHnHEEfdXVFTcAaBqhPcZjQOrqqr+fPjhh99RU1OTkPXWtbW152AUD2HZ2dk/qKmpme5UPmlRCAOBF81QOPq5OOyt7QhmwO/zewryCyyHtmAjIswNhfDzQCCQ1C1itxUVFRUce+yxS8rKyq4FUJLAVEyfz/fdWbNmLa2rq6tIYB4AkHXooYcGJk+e/HcAhyE1/+7J4/EcXltb++SMGTOOcPE+3uLi4i+OJgARnVhaWpq3q3+bNGnSITNmzHg2KytrHhL7e/BlZ2efPmXKlGcnTJhweJzvbWZlZX13lDFypkyZ4sTwCoDU/IP4lLKyNj8BcxKdx3AwM5WWVCillCO7zgAwiHBRb6/3x5m6hVlubm7ZAQcc8KRhGKcisRM+PuH1eo+dNGlSfUVFRUK6IMvLyyuOPfbYpXl5eVdgBF19SaimpqbmsX322ecwN4Ln5+fnAth3lGH8eXl5h+z0NTr44IO/PmHChCeVUsnSGifTNPeZNGnSkwcddNApiFNOEyZMmAUHuuRN03TsEIK0KISFufkzGFya6DyGyzAMs7ioxHbwdHvD44necNllv/yGQ/FSRkVFxYQ5c+Y8o5Q6HMnxIfMJIjpy6tSpd+yuleCWysrK8fvvv//ThmF8CWnyt75dcVVV1cNVVVVTnQ5cVVWVD2DMaOMUFRXtOAGJ5syZ84PCwsJHkNheit0pKCoqemD27NnnIA7zRgzDcOowhGkPPvjgkJc97Ula/HH0BzsOpuT67BsSZkZBQZHhMU2nWoUggiLiO08++f4jnYqZ7CoqKibMnDnzUcMwknbGsN/v/9qMGTMuRJz+5ioqKsr32WefegCJOoHFbXVTp079LYax/nMotNZlcOBBKjc39+PucHXwwQd/r6Cg4Ha4PCt0lIzS0tIbZ8+ePR8uF8PKykqndv4y/H5/jROB0qIQKgMHJTqHkVKkjKKiEu1gqxBaU8mECR/d/Y1v/CFZp8U7pri4eMzMmTPvN00z2d8Dyu/3Xzxt2rSdu8zc4J82bdqtRJTsP5NR8Xg8X9h///2/43BYR445+/gc1IMOOmhuYWHhzUjuIvgxf2lp6TWzZs2aCxd7VYjIyRncjnT3p0UhZE7adVB7xczIzys0TNNwrFUIAJZlTq6r27D0iit+PdnJuEnGGDNmzHWmabo5ecJJ2TU1Nb+Fy0t8Zs2a9SOfz3cSkqyL2AVmeXn5xU7OzGV2Znydmb377LPP0UVFRbcjtcZm88rKym6prKx0s3fFsfF7InLkbynlC+Htt9fnEsjthdKuIoJRUlRqa3Z2SY9pWtO1jv3rwguvmeVo4OShAIxLdBLDoZQ6eN999/2hW/HHjx8/vays7Aq4v542CqAPQCcG97rctv2/lu3/34XBHVbcXqc2ubq6eq7L9xi2rKysyVVVVQ8jOccE96Zs3333fbC6ujoVcx+RlJ9q7+NYCYO8ic5jNAY35S40W9tbLDj8O9FajfP5wk9efPFvvnf99Ze/kBynwydDDgmjysrKLsjPz1/a29vb6XBsc/z48T+DO4vkw5ZlrQ8Gg28x81sNDQ3riGibx+PpHBgY6K+srAwBQDAYVL29vV6/31/IzOWlpaV1OTk5B+Tm5h6tlNoHDo/pAUBNTc2Zq1at+j0c2MmHyJn3JjMf60ScBJo+bty4q7ds2XI2Uve0kCFL+ULo9XlURCfV5h0jZRTkF0a6e7pMp9dDMlOVUtE/XXbZry7x+QIPJH6T7oQv7+gB0AigY/vpCAqAn5lLiKgGI9vtYshM05xcW1v7/5YvX/6Ak3EnTJgwwe/3z3MyJoCBYDD416ampnt7e3vf2d3WXF1d/3N4RBiDp01sbm5ufhvAUgC+8ePHzx4/fvwFfr//awCcfHidXVtbO3Xjxo0fjjaQU12joxAEsKKrq2t5LBZbSURNRNS//T1aSEQTcnNzZ/v9/lkAauFi93deXt73J06c+Lf169c/69Y9kkXKF0L4zAGEYpzqwyHMjIL8QtXd06XhSpc1lTDzbcGgUXXmmUuuveuus2LO3yOpdYVCoSfa29sf6+7ufjcUCvV0d3eHMLgFGgEwCwoKsvx+f2FxcfH+48aN+w4zfxnuTHIwysvLTwbwRzi4CXJhYeF3MLiZuCOY+a2PPvroZw0NDcsw+q3iIps2bXp906ZN7+y///6nlpeX3wTncqXq6uqTNm7ceLVD8RKhsbe3956NGzcu3bZt2ybseeNuVVFRUVpcXHxYVVXVfMMwjoc7H4C+urq6X3d1dS1Lgr1JXZXyY4QbNixvB5BqZ2/tktfrM7xer5vdEH6l7EBhYevDl112ddneL08LPeFw+DerV6/e59VXXz199erVjzU3N2/q7u7uxuDBqjYGP+TDPT09XS0tLQ2rV6/+2z/+8Y/vrF69+mCt9T/gQteQUuqgurq6OidjlpaWOjVWZgeDwXveeuut4xsaGl6Bs/ulRt577717enp6LnUyrmmaX3AqVjwxc3dfX98vVq1atf8bb7zxq23btq3C3k+v0C0tLa2rV69+7Pnnn//yxo0bv8TMK+HCJu9KqdkTJkw41em4ySblC2EgENCa6f1E5+EQlZuTpx3adm2391DKnsccfe0nP7nuuDTekk1blvXimjVrDn3llVeu2H5sy3AKmt3Y2PjBv/71r6/19/ffOszXDkXRLnYfGbGJEyeWA5jhQCgdDodv/Pe//z1/+8OCG/jNN9+8y7KsF50K6PP5ZpaXlyd6K7vhev2jjz466vXXX/91U1NTJ0ZWyKy1a9c+s2bNmiMikcjdAJzu6VElJSU/LisrG/UmA8ks5QshABimej7ROTiBmZGdlUNxmkwyOSsr+LeBAfPKs89enCwbQzslFo1GF7/77rtf37Rp0+pRxgovW7bskoGBgb85ktkOvF7vYXCoSysWi+3rRKxwOPz7V1555Qq4f2pGrLm5+SoH4+UqpRzbhNllHIlE/vzGG298uaGhYbkTATdv3tz18ssvn9fb2/tLOFwMmXlKbW3tt5yMmWzSohCW5OY/ycxpMebl9XqJiOI0S4tyDMO6PCen84lLLvlVyq7F3InV39+/6KWXXrqoq6urx6GYkQ0bNvwUQIdD8QAAxcXF0wE4cmKKUmrUO2wQ0fPLly93tMtyT1avXv1vACscCuerrq5OiUIYCoUeWbFixQ9dmDUcfeONN67t6+u7Cg53kxYVFZ1RXFzs6iSyREqLQvj+h1mbADWUU8qTnlKGMk0znssLlGlahxPply644Hqnd+mIO9u2/7Bs2bJfYHDmomOam5s39/b23u1kTABj4dBOJgBGewRX67p16xa42B26K7q3t/evTgXzer2O7z3qtHA4/I/ly5f/2MXJJ/brr79+XW9v7yMOx51ZUlKSKhtXDFtaFMJA4BgrNzv3f8ZxeLCXSHsQtRikNcyUmFlKRPDEtxB+rNTvDz5w0UW/WXT66ffEdXNoBy1//vnn58PBmZg74MbGxnsxuCzAKVWlpaWOnCHJzKPJy2pvb//Vhg0bnGqdDVlHR8czcKj1wsxTnIjjFmZet2XLlh/19PR07f3qUYls3LjxQq31Bw7GpLq6ujMcjJdU0qIQAkDl2NwXPT5zGQAwFPLQFft/+nf2PH0NfVNfqz/LS6N53B6zkZAiMxyklEEuT5jZHY9pRhfk53fe+oMfBJxqqeyCK2OgoaampvMAuHaC+ZYtWzZalvWagyG9xcXFjszeZeb3MMKCEolEXnznnXfucyKP4dq2bdt6ODTrOzs7ewxGuSTMqQX1uxDdvHnzRevXr290Kf7/2LZtW9vWrVuvgLM9I18oLCwsdDBe0kibQnjMMcf0m2QsYlAkB92xL+vbUIBuDwFGFsLmJH7X92W+Vc3kV6IaRpIXw8Slx0zIzu47lajyTPfu4vwJypFI5E+rVq163em4O4l2d3f/08mAWmtHZjpu3rx5NYCRzJ7uaW5uvgiDC7njrq+vbwDAeidimaaZW1BQMKreDLcW1Nu2/cyaNWv+7kbs3Vm1atUzlmU5+X7NqqqqOt7BeEkjbQohAHiz7Kdyzf6/f1HfqUzYnh27QhkGDJBxED/tmc6vRbX7x26NFMcsi53eXWY4tFZqzJitv3JvraHjc4H6mpqabkMcJnls2bLlDTj4lE1ETu3nqLdu3fpzDLNbuLu7+4a1a9cmcvlRJBgMbnYolt8wDMe3cHOAtXXr1l8h/luVRVtaWm6Gg+/XsrIyxw7DTSZpVQhP6Lis8CTrmvJshHZb5RgedRA/ZeaiKyn3ZbNsS8di0YRXaWYqYI7NdyO20zU+FAq9un79+rh8mGutN2Jwc2mnODYT74MPPnimt7f35xjcKGCvmPnlrVu3LnLq/iOke3p6mhyK5TMMw8Uu/ZFh5n+uXr3akWUSw7Vy5cqXY7HY207FMwzjCDi7PV5SSJtC2HfHxHJTm/ex9uz1QFoFGDP5Ndt27jQQRxARggP9WuuE73e4HX8rFRbcB4PBJxGnKf9tbW1t4XC4xcGQTk5Mst94440bOzs7f6C1/gh76GO3bXvNu+++e1ZTU5NrY6rD0OpQHI9t244sR3EQb9my5X7E6f25C3Z7e/u9TgUzTbO0vLw8JZapDEdaFML+22vHeEg9DIUTh3K9hokK/khZ8CTVWCEz687uDiJKlumtXBOJYILjUZ39qQ+0tLS842jEPbOj0agjY1qAc+ep7UC//fbbj77//vtHdHR0nBuJRJ4goncBfADgvWAw+K/Ozs7ABx98cGJ7e/sah+89bOXl5RV+v9+pDR0MZk54b8pOtrS2tv47kQl0dXU9jiH2EgxBTmVl5WccipU0kv5pf2+C904ca0SMRzXTYcN5nQGLEjkpZWdEhK7ujlgsFvMlcnzwf5GfGTUA1iY6kz3ojsViDXG+p1NdeYBL3UxtbW3b2tra7gBwZ1lZWU4sFjNN07Tb29vjcUbgnpgVFRXTqqurP+v1eo/Lz8+fDWDUmwFsp7af0pA0IpHIW+3t7U61eEekqampc8aMGcsAHONAOMrKytrHgThJJaULYd9tM2ZS1KrXoGHvsRhEgUYSff/RaDTa3tHqIUqqv2O2bZXUO/bEYrH2lpaWeG+67uQYodu4ra2tP5EJjBkzpszn8x05bty4o71e7+cMwxiLwZMnnH7iS54n2+36+vpeweDG7gnV09PzYkFBgROFEACkRZgsgndMOZhg/xVM1cN9rUJEv0efJ597S86GxbbtWOOWjYpIJVUVJEKXYXicXJTruGg0uhFxbuHYtu32guhUpQBk19XVlZimeUBJSckx+fn5R2FwM/Bk67KMh1h3d7djE1VGo6ura1lBQYEjsfLz88dWVVVlb926NSFLbtyQkoVw4I5JswhUD2DYRZBg6bfohFgL1XlV4h/UOGbZK5q2bMpm5omJTmZHRIzOztJHliw53/EPfa0VO/WQTEROdlMOSWNj40BRUREjFbYqcpeZnZ1dVlJSUlNUVHRQXl7eoTk5OZ8BMBUO7aEabw4vqG/v6OjY4mC8Eevo6PiwtrY2Amd+L3mRSKQICVp76oaEFMLFix8pAmITPMr/GVOpfA3dzsraGIt5N86fP3frnt6MkSVTpmlNfwUwfrj3jcAT+g99w9xA+3sHxwgTSjPo/u4efXFvr8fn9apver3RcwEkxTZRzLQxO7vjGjdiG4Ym26FnECKK+/gLEVkY7IZL9HsoroqLi/MNw5hYU1Mz1TCMg3Nzc2d5vd5aDD6QJtcU7BFyckE9M3f5/f7Wnh6n9n4fuY6OjgEMjm078cCdz8yFAJKiyDshboWwvr7e6OvTxxvKOCUSiR2qyFsG6FyLNQFg2CpsKqv790v+sOL3S/74lKXDT5x99mkbd4wR/EfVWL2B/gqg3vIiwQAAGSZJREFUdpi3t8B4qFFNXbyODvy1F+EvOvaNjUzENDxX9gVzfnf55Sd+PJvrlp/9LPCoaWIeM52nFE9NzC5rADO1K0XfvemmXzi9O77j+vr6HD0RYii01jaScDzKYaq2tnacbdv7jRs37gCl1MFZWVlTARRjcMlHRj0EjMTAwEBbS0vL3g7ZjZcwETU71POURUS5DsRJGq4XwkAgoCZO3P+Qns7gtSAcqqFN9ek/IQKQhcEfcCXAx5nKd9Vdd/7xBX+27xa/3/r3MVU/96nV1r0MDGcNiw3gP/DoS/35617bd94a+/bbvzWXDVxOhAVwbuf/YeCtWTnZZ3z00fv/CAQC/zO2deONgVYAt59zTuB+v9/7OdO05itlHwlQFuK01IWZmsJh3yk333zJMuAX8bjlaHBbW1tfopNIcQTAW1VVlZeVlfWZ/Pz8g4qKiuYQ0QGGYZRhcFZrJo7vjZrWujnROewgZtt2u3JmGoK3sLAwp6Mj7s+grnG1EC5aVJ+Vnxu9IDQw8HMiyhrGSwlAHhF/NRwKfyUcMV9f1fbFFQerv39uGDEaKVv/xqdjD9BpGz/ZYujcc+f1A7j8zjsf/LdB5m8xOJ4Rj6dbDfCLppfO++53v/7hHq7jxYsD/QCeAPDET3961XitjRN8vsgJAGYDKIM74y9Rrc3nmfknN9986TrgUhdu4TgmomR54k4lZnFxceWYMWMOyc/P/1x+fv6hGHzATLsdQxIs3rOZ98RubW3tGTPGkYPmqaCgIK0233atEN5334v+WKT5ZmZ1OtHInygJIGjrsNXmZw/t56LoEfyo6cEeF82GYfBSqNjP/d9v2LS7i+bP/97T991X/w7b/FPbtk8D4NSej7vSB/AiZeb+9rTTvjqsFsxvf3vFJgB3Arjz8st/UwFYMyxLHWzbarbHE5sKYAwGu6tGOkbTD+C/zGpxa2v1E/fff5qj5/i5jJk5lfJNqKKiooK6urpj8/LyTvH5fJ8F4MiG32LXmDmpeiuIyLF8mDklJ0PtjmuFUKHjV0Q4Aw61tgxY1EjTff+i06Mn6juJ4dlVG3+9Il7oLTT/RvPW7nXz4dNOm7etvr7+0oHurEcsBM8D07cwuL7JKTYRP28z/fqss04Z9e4SV1+9sAVAC4AXAaZA4Jd54TCKLctbyUwTTDM2nkiPZUY5EfKZkcdMOUQ6h4i8ABQz2UQcZFabAft5IuO5SKRr1U033ZQca0mGh5nZqR0z0lZxcXF+bW3td0pKSuYT0b6Qrs64UEol1UOa1tqxczqZOa16D1wphL+/84FvRiKRn5DDW6QYsNGKOu879IXIAfwPn/6/RhCT4r8xrAW+szYMayf7efPm2QDeCwRenD++svlGNtR8y7K/TUSjeVpmgF8lphvzBzz/mnfhPBeKDHEggF4MHhS7EcD2I4iY5s6dp2bOnGkAMINBvxGJhAyiwTHGcNjL+fmkg8Hs8K23/jjViwgrpZJy8/QkQbNnz/5CUVHRtYZh7IP0L4D29hm9SUFrnVQTqojIyfViaTFL+GOOF8IlSx6qZKYbtrdAHGcghhV0lGcyv2Xlos8EsFXb6sqcs1ffPZq4gcAxFvD/27vz6LaqOw/g3/u0epMtS7Ycy1viOEASxxCTACWhmLSlh86hG90gA5MCTWHa6b7PTMrpNKczdCjTmSnDaSkHpoWUtJQOU6BQSHCb2NkXEtuJnViS5eVZkiVrsbW9d+cPmyGFBGzp6kmOf59zck7+iH73Huf5/fTuu/f3Qx+ALz7wwFPfKi1NXq/XGT/EudqhKKqDAcW48M8riZkzNYMAe15vNO/csuXDR7OZT+YY37kTys6dOxXkplM7WQAqKioqrrzyyu2SJH0WhbfDM80YC8Xj8cPBYPCp0tLSitLS0h/me1KiSdJ5tgXml7DlTMbYRXVvEZ4IjUbj1nRSme/xhvmSTrKN0at1v96JlHl7yedOnRUZ/MszT3DPA3j+ueeeM42NRZsBtUVNqZeAoVZiOqsKVS9Jkj+VVjyM8RN6vbm/tFRxzz5hkreRwy7gBEBVVVVLa2vrI5Ikbcz3XGZxAH7OuTsaje7x+Xy7wuFw9/j4uAwAa9asub20tDB244u8NgvtPRpjTOQu+YIuvThfQhPhQw89Xq0k1VtFxjwfCSr62TrPpGT40gfv/ZecvpC+6aabEgB6Zv8QAXLVBZwAlZWVq1pbW3+p1+vb8jgNFcCIqqqn/H7/oUQi0e3z+U76/X4XzrNKUUgdI0Rem4wxMTXNxGBWq1XYfERuvCkEQhMhU5WruKTXqlRYk4+vXw7giEbjEVLQKisr6y+//PIn9Xp9q8ZDpwH0KYpyeHR09ACA/W632xOLxSYwt+V5UfchVZKkglmR4Zzb8z2Hc+iNRqOodlfc4/FQIryQotKyTYnphKRRG6FSqInVoERICACY1q5d+0tJknKZBDmAtKqqUVVVDyYSia7R0dF9kUjksM/nC2Im6WWytChqPwHPcPycMJlM866FnEMmANWCYk1h5tjVRUNYIuScm3720yfbtOylpyjim8YSsgCx9vb2bTl6J8g552PT09P74vF458jIyD4AR0V2HpAkKQ8VnnLPZDJVWa3W8mAwmPdio2VlZWYA9YLCxRhjYUGxCoLIJ0KTxFiNqmGBTLPRmMtD8IQsCE1NTettNtvfCg7LAfSEw+GH+/v7n85lFwVVVUW9u1IKaWmUMWbT6XQOAHlPhHV1da8X3hAhEo/HL6pWZMIS4eTkpE5V1WItd2qnFKVgXrITkieG+vr6bwKwCIwZCwaD/+rxeP5TluWcd/eQJEnUDRoooKVRzrnV4XAs9fv9p/M9F0VR2iHo5pxMJicikQglwvPhnHMGpukJUs7UhVgNhRBhGhsb1xUVFb1XYEh5YmLikwcPHuyENg2PperqalGl3ngymSyYRAhAZzKZrgHwh3xPpL6+foOoWPF4/DRENRQtEMI6GlRUVKQ5oOm3BK7wIS3HI6TAsPr6+tsBlAiK5z1+/PimgwcP7oY2SRAATDMdZ4RQBVdPyZrdbu9AXrrc/AVJp9O9T1QwxtgxUbEKhcjWPnGdTqddYuJIl5aU0tm+BYgO1ItRVlZmKy4unk9HlreTlGX5K2NjYycFxZsrM4AGjce8oBxcm1c0NTXlusDI21q2bFk7xP2Mkz6fjxLhhTDG0ul06pCoeO84no6NmooNvVqNR8ShA/ViVFVVNQFidk6nUqn9x44d+18RseZj6dKl1QBqtR73QnJwbZbZbLYPC445L3a7/a8FhovG43GtvyzlnNBmr8k02w2NSu8woOu11/aPaDEWIYXIZDKtg6BC2tFo9HeYOR+mKYPBsB4XeTFwm822xeFwiFq+nheHw1FdXl7+EVHxksnkaa/Xe9Hdd4UmwooKfhTACZExz0flSsJoLv7Zmzu8E7KYlJeXrxQUKuXxePJSmKKhoeH9omIxxgx6vb6g6nvOaqmvr/9EPgZubGy8gzEm7IlbUZSXUEA7c0URmgg3b94c5kx5DDl+0W4tL3918+abX87lGIQUOJ3FYhF1QDquKIrm2+HtdnuZJEkfEBWPc25Op9PFouKJZLVa/8HpdGp67rm2tra+oqLiXgg80+Z2u38nKlYhEZoIAaCurvEJnU7fLzru6zjnSTWObYwxehoki5kEoCzfk8hGc3PzpwCILExd7HA4RNXTFIox1tjc3PyP0G4ZWF9XV/clACI36gzma+Ug14Qnwptuus6XTiW+xzkXvo2Zcw6LpfTBT265uVt0bEIWIFHb8k0lJSUVgmLNSVlZma2srOzLgsNKJSUljYJjisLMZvNdbW1tH9VisLa2thsqKiruFhkzFov9Ctodq9GU8EQIAHd/dvOOsrKyX4uOy3T637a2Lf+e6LiELFCiurEb7Xb7akGx5oK1tbV9W5KkFaIDq6p6qeiYAhVXVVU9WFdXtz6Xg1RWVtY5HI6HAIhs8pgMBAJPCIxXUHKSCBljSjg6upVzvl9QSK4o6WdvuOHKLatWrbqoqp4TkiEVAmtYlpSU3AyBHczfhtTe3n57cXGx0HdXr7NYLK0o4F2okiQtWbly5dP19fXrchG/urraccUVVzwDQcdqXqeq6kt9fX2nRMYsJDlJhACwdevWSV1K+jDn/Blk982V6yTp1yp0dzQ3N+e9eC3JHh2oF0JNJpPCtrGbzeZ3LVu2TFgZrgtgy5cv/4jNZnsQOaq2YjabW8rKyjJ+T6jRtem87LLLnl21atWNEHgPrq2tvWT16tVP63S6dlExZ6WHhoZ+irn1llyQcpYIAeDOz39qxFysbOaMfxVAJtXroyaD7gdcKrrz3ntvu6iKvC5mdKBeCC7LssiCEkUNDQ3fs1gsIgtgn0u/bt26e5YtW/YIgFy+j2y02Wx1mX5Yw2vT4XQ6n2pvb/+OgM7xutbW1g+tXr36Wb1e/y4hsztHKpXaHwgEXhEdt5DkNBECwO233x77zGdu+zem49fq9dL9AOZSzT7KGHaoYO856+n9+zvv/OBF1Q2ZEBFmXz0Ie4IxGo1Xt7e3PwjBDbttNpvz2muvfcRqtf4IYrtknI+huLj4uhyPIYrFZrNtW7t27Utr1qy5BRn83Gtray/t6Oh4fMmSJU8AaBE/RaTGxsZ+7Pf7L+p7sNAL/u3cdddtbs75Nx59dOf9OuAGlfPrmCS1gPNKAGDAJGcY1DG2S2Xm3UVF02Mf//jHC6qALiGFxOv1DjQ0NJwF0CwoJDMYDJs7Ojqkw4cPf35ycjKrVRir1Vre0tLy6fLy8q/OFtbW5GnL6XS+r6en5ycQt5kol3Q6nW5dTU3Njurq6lN+v/8Xk5OTvx8cHDyDmaVIBW982ZEA6Gtra8usVuu7HQ7HrXq9/kaIK7r+FqlUqrO3t/eZXMUvFJolQuD/1999AH41+4csQkajEdPT1EErW9Fo1B8Oh1+xWCyiEiEwkwxvu+qqq1o9Hs93+vr6XsH8Sq+ZbTZbU0tLy0ctFstnkIeC2oyxjXV1dRav1zuh9dhZ0EmStLK6unp7dXX191taWsYBDDDGRjjnUwAYY6yCc94A4FJo0NGCcx4dHh7+NoBErsfKN00TISFEKB4KhZ6wWCybARQJjr2moaHh6cbGxn0+n+83Pp9vz9TU1Iherw/JspwAwBwOh1FV1TJFUSqdTmejXq+/ury8/Dqj0diO/B72t5jN5g0A/iePc8gGA+AA4OD8jZXvc/+uhampqf84ffq0qJ3/BY0SISELWF9fX/eSJUv2GgyGTTkIb+Ccb7Db7Rvsdvs0AD/nPMIYSwEA59zAGCvGTHWYcmiw52CuampqbhwYGMhnIjyMmSVrkZVztNTd09Pzg3xPQisFc+ESkglJkvLxHkhF4RQejo+Pj/8QQDzH4xQBqGeMrQTQBqBt9u9NAKwosHuJ2WwW1acxI4qiHIjFYl/FwjxyIPf39382GAwW/HE1SZKEVLopqIuXLBqibg6cc57rBPAWkiSlICgRMsaynv/Jkyf/kEgkdoqYTz5wzofcbvcnksnkn0TFlCSpqaGhQeih8vlIpVJ8z549Pw+Hw/dBo9Z0gkzKsnzX4OBgzprvMsaEfTlQFEXI7z8lQqI5xpioM6EqAM3PlyqKEoa4HYkBATF4T0/P1znnbgGxtMTj8fhLAwMD7z116tRTw8PDXwMgqnKUQa/XXz7fDwk+UK92d3ffHw6HH8DM7s9CFwuFQl85duzY73M5iKqqPoHhhMSiREg0t3HjxiERcTjnCZ1Ol0mhhqwwxmSI20l3VkQQn8835nK57oLAsms5Fo3H49s7Ozs/Mjg4eAoA+vv790Wj0Z8Iiq9zOp3L5/uhHByoT3V3d2+LRqMPorALVsfD4fAX9+/f/yhyvOwvy7KQax7AVFVVlSwiECVCojm73S6kebOqqr0ul0vzpVFZlr2KoohIOLFYLHZaQBwAQH9//yvj4+NfQB46zc8HY+zImTNnbu7s7NyGNz0B9vb2bmeMCWn1wzkXvZM2U4m9e/d+JxqNbkdhnm2cjEQid3Z3dz8CDZJ1Mpk8JCjU0Y6ODiE/T0qERHMtLS2HIWAJLBQKvShgOplIptPprmyDcM4Peb1eEUujr1OPHj3637FY7F5VVQuxEkgkHo9/98CBA9efOXNmF86zXBgMBid7enq2Asj2DKAaCoXOZBlDpMTevXvvi0Qin+Och/M9mVmcc366r6/vA11dXU9Cow1gg4ODJwBkvSoUDAafFzAdAJQISR5cc801kyUlJS9kGSbh9/t3CJlQBgKBwFNZhuCyLO+A+N2e6p49ex5zuVy3FNA7w2lFUX7X19d3dWdn530TExNvmwiGhoYOhEKhbyCL5WfOeXB8fPylTD+fI+murq6H+/v7P8g578vzXJKxWOzJI0eOXO/xePZA213QaiAQeDTLGOFAICCsKAslQqI5xpiyfv36h5HFjS6ZTO5wu93ClhXn68SJE88xxjIeP51On5Bl+Tci53SugYGBFwcHBzclEolnkL9di8lUKvXHoaGhW15++eWPeTyenrl+cP/+/Y9NTEz8GBluMonFYj8aHx8X8v5INJfLtfvIkSOb4vH4L6F91RYOoNflct2xZ8+eO/x+/6jG4wMAxsbGfoosngqTyeTPz549K+pdIyVCkh+JRKIzkUhk2uizf3Bw8D7kdydeYnR09GvI7EYWGR0d/aYsy3MpQJ+xgYGBM6+++uqtgUDgbwC8Bu2+9ScBvOD1ej+0a9eum3t7e5/D/JNxamxsbJuqqo/Nd/Cpqanf7t2798H5fk5Lfr9/pLOz89Mej+c2AEehwf8N59wdCAS+dfTo0Y7Tp0/vQB7fVw4PDw97PJ5vAph3rcVkMtl94MCBf4bA3/+CbWBJLm67d+9WAoHAXofDcblOp5tzrUzOudvtdn/q7NmzJ3M5v7mQZXmgpqYmbjQa3425/y5Nj46Obj158uQz0CYxpUdHR18LBAJPFhcXny4qKlqGmfJduTAWj8cf6e3t/btjx4792OfznUIWN9twOJxWVfVFg8FQYzKZ1s7hI3xqaurJ48eP35NIJDJ6D2ez2RqtVuuWTD57rnQ6fdDtdr/TMQTF7/f3TkxM7CgqKhooKipqBlCd7djn8VooFPrukSNHvuR2u1+KxWIF0dzc7/f3OJ3OiF6vvx5zr3J2yO123yrLspCd56+jvnAk34o3bNjw7eLi4nswU6HkQtdkNJFIPDswMPD14eFhr4bzeyfs0ksv/av6+vrtjLFLABgu8O8SiqIckmX5CydOnDio5QTfRGpqalrncDhuKSkpuVGv1zdgpnvBfMotcgBxxlgsmUye5ZzvcrlcL7hcrj8jN08Zuvb29i2VlZXbGGNOvPUaUTnn7mg0+v2urq7HsplDS0vLdUuXLn01q9kCiMfj/9XZ2XnPPD8mLV++/Cqn0/kxSZLeazAY6jH//5sUgEg6nT4Ti8VekGX5aZfLdQyFUwnpLVasWLGprq7uAb1efxnO//vDAYSmp6cf7e3t/W4uWkJRIiQFYcmSJY12u/39JSUlVwNYajKZSuPxeJIx5gVwyOPxvDgyMiJkW30uOByOEqvVekNFRUUHgMsMBoMtnU6Dc+5jjB0fHh7+o8fj+RMKq+SWVFVV1Ww2my+rq6u7hHO+jHNeI0mSjXNuNplMUiKRUBljcc55EDOHl72RSGQwGAwOKIrSn+vl3XPZbDZnU1PTRw0Gw3uMRuOSVCo1rapqfzgc3j06OvpsKBQKZTvGihUrNjY1NXVmGyfDRHguXVVV1dLq6uqVpaWlLYyxZQBqOOd2xpjZZDLpEomEipmjMn7GmJdzfnZ4ePiUoig9IyMjQp+YNFC0cuXK91kslk0AVppMpopEIpHgnLslSdrr9XqfHxoaytkuYEqEhBAyK89PhCRPaLMMIYSQRY0SISGEkEWNEiEhhJBFjRIhIYSQRY0SISGEkEWNEiEhhJBFjRIhIYSQRY0SISGEzBLcoZ4sEJQICSFkVg461JMFgBIhIYSQRY0SISGEkEWNEiEhhJBFjRIhIYSQRY0SISGEkEWNEiEhhAjGGEvlew5k7igREkLILEmSFBFxGGOF1ICZvANKhIQQMosxFhYRh3M+KSIO0QYlQkIImRWJRIIAsn4qlGVZFjAdohFKhIQQMiscDk8DCGQbZ3p6ekDAdIhGKBESQsisSCQyDcCVZRhVUZSjIuZDtEGJkBBC3jAdDodfyyYA5/yQ1+udEDUhknuUCAkh5A18amrqjwAy7kIxPj6+Q+B8iAYoERJCyDmGh4f/BGAow497JyYmKBEuMJQICSHkHIFAYCQUCv0ig48qsiz/09DQ0KjwSZGc0uV7AoQQUmhisdhhp9N5JYClAObSozARjUbvP3jw4AMA1NzOjohGiZAQQt4kHo/HfT7f7202W4nBYFgKoOQC/1ThnJ8KBoPf2Ldv378DSGs4TSIIdWMmhJALY3fffXdLTU3Nuxhjl3POnYwxE2NsmnM+CKDL5XL9+fHHH8/67CEhhBBCCCGEEEIIIYQQQgghhBBCCCGEEEIIIYQQQgghhBBCCCGEEEIIIYQQQgghhBBCCCGEEEIIIYQQQgghhBBCCCHz9H+kdmgpqIKhSQAAAABJRU5ErkJggg==;" parent="1" vertex="1">
          <mxGeometry x="162.14" y="204.01999999999998" width="35.71" height="25" as="geometry" />
        </mxCell>
        <mxCell id="JN9JuaacZQjpyCuYcN4X-9" style="edgeStyle=orthogonalEdgeStyle;rounded=0;orthogonalLoop=1;jettySize=auto;html=1;entryX=1;entryY=0.5;entryDx=0;entryDy=0;" parent="1" source="B2m6w45xhWhxdDzetuVd-6" target="JN9JuaacZQjpyCuYcN4X-4" edge="1">
          <mxGeometry relative="1" as="geometry">
            <Array as="points">
              <mxPoint y="400" />
              <mxPoint y="200" />
            </Array>
          </mxGeometry>
        </mxCell>
        <mxCell id="B2m6w45xhWhxdDzetuVd-6" value="Eligibility check&lt;br&gt;(ffc-tcg-eligibility)" style="rounded=1;whiteSpace=wrap;html=1;verticalAlign=top;" parent="1" vertex="1">
          <mxGeometry x="80" y="360" width="160" height="80" as="geometry" />
        </mxCell>
        <mxCell id="B2m6w45xhWhxdDzetuVd-7" value="" style="shape=image;verticalLabelPosition=bottom;labelBackgroundColor=default;verticalAlign=top;aspect=fixed;imageAspect=0;image=https://cdn.freebiesupply.com/logos/large/2x/nodejs-icon-logo-png-transparent.png;" parent="1" vertex="1">
          <mxGeometry x="145" y="400" width="30" height="33.03" as="geometry" />
        </mxCell>
        <mxCell id="B2m6w45xhWhxdDzetuVd-9" value="Back office&lt;br&gt;(ffc-tcg-back-office)" style="rounded=1;whiteSpace=wrap;html=1;verticalAlign=top;" parent="1" vertex="1">
          <mxGeometry x="80" y="560" width="160" height="80" as="geometry" />
        </mxCell>
        <mxCell id="B2m6w45xhWhxdDzetuVd-10" value="" style="shape=image;verticalLabelPosition=bottom;labelBackgroundColor=default;verticalAlign=top;aspect=fixed;imageAspect=0;image=https://cdn.freebiesupply.com/logos/large/2x/nodejs-icon-logo-png-transparent.png;" parent="1" vertex="1">
          <mxGeometry x="122.13999999999987" y="600" width="30" height="33.03" as="geometry" />
        </mxCell>
        <mxCell id="B2m6w45xhWhxdDzetuVd-11" value="" style="shape=image;verticalLabelPosition=bottom;labelBackgroundColor=default;verticalAlign=top;aspect=fixed;imageAspect=0;image=data:image/png,iVBORw0KGgoAAAANSUhEUgAAAcIAAAE7CAYAAABOhYGUAAAgAElEQVR4nOzdd5wdZfU/8M95Zm7Z3nezJcluegEhoQSQKoKC/ixoooKoIEJoSlBqUK6KdIO0QJBeFDcWQJoiXQIIUhKSkIRkk+wmm+391pnn/P7YwDeGlC0zt57368UfbOaeObt79555OiCEEEIIIYQQQgghhBBCCCGEEEIIIYQQQgghhBBCCCGEEEIIIYQQQgghhBBCCCGEEEIIIYQQQgghhBBCCCGEEEIIIYQQQohUQ4lOINlt3bo1Oxi0JgBcoJQd09rXPHFi1VYishOdmxBCiNGTQrgbd99dXww7djIzzQPhMwC8ADNAncpQb0bD9HRBcfYTJ5/8/9oTnasQQoiRk0K4k3vueTzPNGM/ioajlwMo2dO1BPQq4ru08lxzxhnzOuOUohBCCAdJIdzBg3c8WB4zPPdo5i8P75W8wmb79Pnzv/e2O5kJIYRwixTC7W6/vT7X54n9hZmOH2GIDZaOffPss7//rqOJCSGEcJVKdALJwjSsXzDTcaMIMcE0vLc+/PDT+Y4lJYQQwnVSCAHccstdn1eEczDaFjLzYdFo77edyUoIIUQ8ZHzX6D333JOnraxnARzmRDwiLDc8kTmnnXZa2Il4Qggh3JXxLUKO+L8IYI5j8Rj72rZ/ulPxhBBCuCujC2F9fb0XJk4DYDgYlmDxoQ7GE0II4aKMLoQ9PdFyZjrC6bhMPMPpmEIIIdyR0YXQpIJZAOc6HZegCpyOKYQQwh0ZXQhtDIx3Zb4Qa8v5oEIIIdyQ0YUwPye7h5kdj0uGudXxoEIIIVyR0YVwIBx+z+lTJJgZfp/nPSdjCiGEcE9GF8JgEA1EWOFkTCIK94cG/u1kTCGEEO7J6EJ47rnz+sNRPABg2P2jGgYTNGso5h3HGQnPFBX5Wh1MUwghhIsyuhACwIQJNY+YpvnBcF7DUDybn4l+Q1/DX9K3xXK5K6YHf5QRwzRvmzdvnhzaK4QQKSLjC+GJJx7ZBrYWAhwc6mv86Ldn8DLTD0uVotX7Jb6dCrklZpsFf8ydM1O6RYUQIoVkfCEEgE1Na59ixpUAhtSSI+hPOkMZBC9i5hdxd+hY8+G75s2cGXUvUyGEEE7L+E23d/T7JQ9fAKirAWTt6TqG0l/Vi3Q+eswdv07gD8H8Jf856za4mqgQQgjHSItwB2ececrNNtsnAfwO9tA6ZJD6iA5kBWvnr08DqaXB2yeOdTtXIYQQzpBCuAMi4vnzT33WG7OOZ6KzAbwMoHuny1jB7llLh3wYpLyOnWMwMJuU+Zf+22eMiUvSQgghRkW6Rvdg0aL6rLy88BiDzXFaI4s8SiuNXgvRFtO0u76B6+Z6wrwYgPmpFzNe9fvtb9DpH7XFP3MhhBBDJYVwFLgeRqRj6hMMnLirfyZDP+0rtE+heRt64p6cEEKIIZGu0VGgebB92jOfGF27+me21ZeiPcZNXF+zx8k3QgghEkcK4SjRuR80qqq+n4J3vWepttQPwu05l8c7LyGEEEMjhdABnvcKH4ER+/Nu/pnAdEl06YTT4pqUEEKIIZExQoeE6sfXocv3MjTtbulEj2mH5nrO2/xcXBMTQgixR9IidEjWvE0NRjauACO2m0sKLDPrgcit0/aNa2JCCCH2SAqhgzxWtB4Gv77bCxiV2mPdG3ygpjqOaQkhhNgDKYQOotM2hs3e8K8B2l2rEGDjQEW+2/nFWn8cUxNCCLEbUggdZg5sfoEM/fSeruEB8yvhlf5fxCsnIYQQuyeTZVwQeXDydN2v3gFhT62+GJh/5D977YNEwz8YWAghhDOkRegC74Z1a8gXW7yX8uYhpt9ZT4w7LE5pCSGE2AVpEbqE3y4aF36r/FUA4/Z4IfFK0vwVObpJCCESQ1qEbjmgq5G8kZvAe2kXMs1khcV8w2dy4pSZEEKIHUghdAkR2DdO3Ucm3t3rxayOj/j4qjikJYQQYidSCF1Ex23oMcP9vwAosrdL2RO9IHTvlDPikpgQQohPSCF0mdG55RkyontcTvGJCN0YurX2aJdTEkIIsQOZLBMH4dumTWGT3wUje+9X63Uq7Puqb8EHq93PTAghhLQI48B/3odrQfYtQ7taTeYs+66um/YvdDcrIYQQgBTCuPEP+G6ATWuGci2z/my2L3gLB2Z43c5LCCEynRTCOKELV3Z69u26EvYe9iHd4XJNdGq0LHQJs3RfCyGEm6QQxpGhsx6nHGtoE2cAaOVdGH12/NfdzEkIITKdtDbiLPrApFk6aDzPQNGQXsC8VSv6as78NW+7nJoQQmQkaRHGmed7H71nk30nMMSNtomqSPHd/GBFubuZCSFEZpJCGGdE4Oxi79UgWjvk19i0X6g3//f8YIVswyaEEA6TQpgANG9Vv0fZPwNgDfk1hvGVSNT3cxfTEkKIjCRjhAnCgaPNcHXTI7CMeUN/FVnKjpziO6+hfndXBAIBBRylKivXUnPzFL7yyqNtIpLzDoUQYjekECYQ/2vClPB68xVoqhjyizS16qkDX875fONbAPD7Wx6uMbO9R9psH661nkakCsDswWBr3wYQBTAAom4wWoh4iwavJfKsU8q39oc//GqfK9+cEEKkCCmECcQMitxa/RP25C0CeK+/CwULFgx7vd7nudfNucsU8+dBOABAFobXza0x2C3bx8ByMF4izU+FrKIPfvzjE/e2QfgeMM2du1QVFXUpn+8DZZp1CgAKCnp3+b319OQz0AhgLAoKehmAXrlypb10ab0GpBUrhIgPKYQJxrfPyA0r+0kAR+3mChBs7kWxtYbm6LU0x4gg2/Ag4vTvjgG8z0SLs7PtP333u9/t3cO1dP75gbysLOTHYmaVYaDa47EmMqMOQA2AEgD5AHIA+ABsb6EybS9wGoOtVRuAzUyaSIeZqYsIHURo0po3E6lNWnMDEW+NRKh3y5YZfUuXzrMd/r6FEBlOCmESiN0x8bMWm8+CkLvj1xVi3I1Sazl9TjfQfqaGYRhDn18zUhrgF02vOuO0076zcfBLTAsW/LKIyDc+GvXNyc3tORSgfQGMBVAMdyddaSJ0M2OrbasNpqnf05reYVYfZmfbjYFAIOjivYUQGUAKYZII3z1hEUe9C0AMAsMG2+/ScdaH9FnThmkoxKchpJSC1tqORiOvNW5pfADgSbZtzjSM2DQAVUScy3vvxXWbBtDJTJsBvEmElwF+89prr9wkXapCiOFK+CeaGMT/Ls0LryxZrrRd24mS6Ivq++hFqceA5frviIhARDoUDlrdPV0cDA4Ytq0NGrxzKrxHbGb0EeH9aNT7WHZ28KmrrrpqXaKTEkKkhlT4kMsYzXcfcXC7NebZ12huvgHLcPNeNFjl2LJidm9fj93d06UsK2YqZaT0e4KIwUw2wO/YtvmIYdiP+/1oCgQCrvcpCyFSU0p/6KWbh//49I/6e/t/Z8AawgG+I0NEYGZ7INhvd/d0IRQKGQAb2wtj2iHi3mjU8wwRHsnNtV4OBAJ7mgQkhMhA6fnpl2ICgRfNadN6ftDbPXArEfnduIcixTEravf09ti9fT3KsqImEVEGvQViAL+ntfGg1rr+xhsDrYlOSAiRHDLmUzBZLVmyJFtxzrUgdSYGlxo4iKAU6VAoaHV2dyAYHDCYoYgy+vfOABqYcZ9SkSXXXHNNW6ITEkIkViZ/ICbcsmXLsla+33ALFJ0OB5cgEBEYbPf391mdXR0UiYY9ipT8rv8XA9gG0K3hMN/xu98FuhOdkBAiMeTDMUECgYCaWLdfIBwOObaRNhGx1rbd09ttd3V3KsuyTKWkAO4NM22IRDyBwsLo3wKBQH+i8xFCxJd8SCbIXXc9fAKx+hsc6A4lUhyLRa2eni7d09dtaG2bRHKwyDDZAF4msgM+n/FaIBDQiU5ICBEfrk7RF7v2bP2zxT0Dwb8S0agO21VKcSwWs9o7WqzW9hYjFA56AKh0nQHqMgWgDqCTQiFv2Re+cOSbL730UjjRSQkh3CfNhgTY0te/kJSaONLXK6XY1naseduW6MbNG1RvX48vnZdAxBcVeDyxBeEwXjr//OuPSHQ2Qgj3ySdnnC257aHZyqNeAKhguK8lIrYsy2rvbLV7e3s8SpEhv0L3KKXD4XDWdaapfnv99ZfIcVVCpClpEcZRIBBQvmzP2cMtgkTEttZWW0drtGHTetXX1+tXSkkRdJnWyu/zha8kCv/pvPNurUt0PkIId0ghjKPCwsqaaFSfMNTrt3d12p1dHdFNmzegu7vTRwTpAo0jZgIRn5Cd3fXceefd8LlE5yOEcJ4UwjgqyM0/nAhVQ7lWKaX7+/siGzev1x2d7V5mbUoBTByl9MS8vIE/L1hwzfy5c+tlkpkQaUT+oOMkEAgov7/sZ0rxfnu6jojYisViW1ua7K7uDi8zjAzfCSaZZJmm/YWiojZ93HFHL3vppZdkiYUQaUBahHEyduzYHMOwZ+/lMru9ozW6sXG9EQ6HfSS7wSQjDxF+1d9vXHbmmUs8iU5GCDF6UgjjRGtfAQG7nHBBRLCsWGxzU4Pd1d3lJVLSUk9uZJr2L/PzO26+4IKbChOdjBBidKQQxomHPOMB+tTxSkSK+wf6IpsaN1IsFvNKN2jKINOMnuXz9T562WWXlSU6GSHEyEkhjBPymJXM/D9fU0pxR1dbtHnbFg/AZoJSEyOniPh4Zt+iE0542uGTQ4QQ8SKFME5i4UjhTrM+7S1bG6OdHW1eko1BUxkR8XenTPngikAgIA8zQqQg+QCOE83aBD4eD7Rimxsb7IFgv4/kdIiUx0zIygouDIX4YllaIUTqkSfYOPF4PLZtax4Y6I9ta92qmNkj6wLTChHRL6urN4UBvgkg3vtLhBDJQFqEcaLI7O3u6bK2bmsymWU8ME2Zfv/AL3/2s+u+kuhEhBBDJ4UwThq3bi1qa2/xyHhg2ss1zfDtl1xy7cxEJyKEGBr5UI6Diy/+5TH9/R2/la7QjFFNFLp77tz64kQnIoTYO+mic1EgEFDBIL6mFN8J4FNrCEX6IsIhJSXbrgVwZqJz2ZP6+nqjty1Sp7K8tXbUHssKWVrrVtvWK8vK/OvnzZsXTXSOQrhNmiguCQQC3mDQWKCUvRBAXqLzEQlhM3u+e911Cx9NdCI7Y2a6++5HjzJILbBt+xAAxfi/B2MG0EVE/yXDuKOxcdXjgUBA9lUVaUsKoQsCgYAZidAtzPwjSKs7oxGhpacn//DFiy/8KNG5fKy+vj6rp8v6JYCzAeTu5fKoIvxFDUTOOW3Bad1xSE+IuJNC6LCFC6+qtiz7PiI+LtG5iOTArP6ZlaW/HggEgonO5eGHn84P9XfdDaK5w3oh0xvKg2/88Iff2epSakIkjEyWcdDFF/96qm1bf5ciKHZEpI/t6/P8COCEPngyM4WDfTcOuwgCAPEhlqXvfPDBB3NcSE2IhJJdMBxy8cVXTCeiR4iwt6OWROZRhqFnz5799jNvvvlca6KSKC+Zfrxp6t9ihD1BBJqk2Wx54ok//8fh1IRIKGkROuDii686UCnjL1IExR6U5+QMXJeoMwwDgYDy+vRC5lH9zRts84WPPPJIkWOJCZEEpBCOCtP55994kmlGXwBoeqKzEcmNGScUF2/7WiLuXVk5aSaAWaOPxHXBPnXs6OMIkTykEI7Q0Ue/aC5YcO1Zubn9f9BayfIIMRTEzNdecsm1BfG+sdaeg7D3GaJDQ1rGwEVakUI4AoFAwJw48cP5Pl9kETPkHDoxZEqhrq2t4NJ4T5xR0BPh0Cxx0/RMdCKOEMlC1rgNG1Ms9ovTy8u3XcdMWYnORqQWZlB5+dazr79+8eqyoj+1R7UmZu40DGw444zvtBK5c2qFMuw8zR7YMNiEpRlENkzyIDLs4mjFrISMcwrhFimEw3TeeYu+yUy3MJO0BMUIGQX9fT13FRUUkQIUCDFo9P/+zj+8f/ddf/gblPnoGWfM63Tyjh4K907Qb0dr+V3KQx9pKG6nCv0OnYBelHkV7CHHIpKeJJFeZEH9MCxYcM3ns7JCT2itpCUoRoVZc2lJeayosMTL/KlGYL+GfsSv1OKw7lt91llnxUZ6n+7F+xZlewa+rWx7oc1GtcaOjTmGgZD+O11gd1CVhzC0xihrfubMs085caQ5CZFs5MluiBYuDBzs80UekCIonECkqKurQ2mtd9UUy1VQZ0U1linKu/vRR5+aMtz4/bfPGBO+Z/J8HyKv2pZncYz9OxVBYPA52KtKsEUNZ1WFMui94eYjRDKTFuEQXHzxddOVCv5FlkgIJ2nNKCsti+6mVfgJImo2vealkUjnH/fUOuQAVLR20nRt42RE1TyA9jpBRiHKT9PZVhuNHVKLkJkjdRNrDj3uuKPe3evFQqQIaRHuxTnn3D7GMEIPSREUTlOK0NnVqYA9D9Axc2U0HPu9VxXcUb+k/lNLL5hBwcXTD4lUTf6TDhmvIGpcDtAkDOFBtw9FVgvVGkPuFmXzyQ0bcj4Y0sVCpAhpEe7B3LkBb12d8ZxS9pGJzkWkJ601KsdUR/Ny8/fYKgQAZmbDUG9r8Bk/+tHJy7keRnig7jAi4+ccMo4EhreUx0BEP0nnWu1U4x1SaxBoz8r2f/7UU096fzj3ESLZSYtwNw444G1PaWnRzYZhSREUrlFKobOrXQHY63l/RERa80HQeOFPd906P9o57n6EfM9zyDgOwyyCBJuX0UlWK40fUhEEEFLAZVIERTqSQrgb++337plFRR0/5MQeGCAyQDQaM0Lh4NDXLwAl3Vx2xxoc+i1FsWEvgSLYfR/SgX9bhUNiBqyhvKQzryB3QX6Red9w7yVEKpB1hLvwgx8sPqKsbOsvtVaycDhBiBjMZAPYZtvGFqXsJmZq0NpsUcrqtG1Pj1J20DBsi1kTYICIKRTK8vp84TyluEhrKleKxwGoY+axRFQNwJvgb+3TiKm7uwuVY3J48HvZOwWNN+hrRgFaYxXc5B3GrM9m8vA5nnz7aV8fHQttLLS1fTDhU1NKASBMhH8qpqu//e2vvDnk70eIFCPNnZ2ceeaS0oKCthcMw9o30blkEiKAGe22bb5rGNZ/wuGsd7ze6OpYzG4ZGKgMd3UVRZYunTecVtMnoQOBgK+7G36/H6XMNBPgQ4hwGIDZRJybFK1+Irt27AQ2DGPID6cMQi66ra/om8kA7/1INeKVyjK/5Ttv1cqPv1RfX58ViZhTgsHg4Qp0GJhKyKANZOv/Kh+9lpNjbpg3b150hN+VECkhCT4BkkcgEDD7+817PZ7YqUnx4Zi+GOAgM1qJ6D9E+uVYzPdqbm7sw0AgMKS+OicEAoHc9vacg3NzB74C0NeIuIY5MWd0MjNKS/a+lGJnNjzYj5+LzuIXvHtIPQrS9/ttz0/p3FX9jiQsRBqRT/sdnHfezSfn5XU+IkXQFQygFcD7zOo5Zv2S1jmrb7zxooFEJwYA5557W4nf3/MNrzd2FjP2RwLGzz0eb2x8Ta3Bw7y3gm1/Q18HH2K7qoSbFevLvK3V9RR4KW4PGUKkEvnE3+6SS64dRxR+A0BlonNJL9wD0Kta02NK8cvr189oGGEXZ1wEAoHCUIjmMtOlSukJ8bw3M+txNbW21+sb1ti0BS/m8BPRGfz6jmOFmqAfh1dd5v/hmjXOZytE+pBCCGDu3Hqjqqrh4ays0LcTnUs6IGJt2+oDIv1HZvNv2dl2QyAQSKlxpvPOu67K749d5vHEzmAmfzzuycwoLCiKlpVWDKt7FACy0RObp681LfgJhFaQvdA/EH6ELmwKuZSuEGlDCiGAn/70um96vaGH5WzBUWEAA1obT8Vixh1dXZVv3n//aeFEJzUagUBAdXf7v+D3h28DEJfWoVLKmlA7WTHzsLpHY/Dpb+tfBrM49hhVDFzpO2lzAw11uxghMlzGF8K5c+vL6urWvKCUvU+ic0lRGsBGremPoVDRfbfe+uP1iU7IaZdf/ptK27YeIOLPw+W/Ga01j6uptXw+/7C6RzWbqDXf++EXzrj6XrdyEyJdZfqCepo0adVZUgRHxGam96NRz49DIc9h119/5RXpWAQB4OqrFzZnZfE3Lct4GHC3lUVE1NPXw4qG96epyMJGe7+kHXsVIpll9IL6hQsXjrNtnJ/oPFKMDdDrlmXebprqH4sWXdaV6ITiIRAI9F5yybXnA3YJANfO4iMiDAz0KS4bYwPDW8qhoGtdSkuItJbRLcKenpKfAChPdB6pgAh2LGY+aVnG8Z2d/IUbb1z46LXXZkYR/Nh1113aYxjmOQDWuXkfy7KMSDSy171Hd+bxGFVu5CNEusvYMcKTTvpLzdSpy9czU/JtuZUkiBgAdTHz33p7C29cvHjB6kTnlAwuvPC6Y7ze0BMAct2Iz8woKiyOlpVUeDUPox4SPf6jM7/zNTdyEiKdZWzX6NSpyy+SIrhHXV1dRX8cGMi57aGHfiQFcAeLFl3y4mWXBW5hxuVuxCciBEMDxGCNYfTaMHOOG/kIke4yshBeemmglhnfSXQeSaoXwJ+jUf8td955gRy5sxtNTTlXV1cPzAUw2Y340WjUsCxLG4Yx5EJIhJRaqylEssjUMcLTAZQmOokkYxOhPhjM/Zzfj7MWLbpUiuAePPTQRQNKqV+5FZ8ZFAoHmWgYoxfMm9zKR4h0lnEtwosuun4MEDwFGTw+upMYs3pVa/MXGzdOeiOZtz9LNl6vfiIcxgcAXFh+wxQMDiAvN58xxPeqodSHzuchRPrLwBZh7MsA6hKdRRKIMtMrRPhaVpb+wg03XP6aFMHhCQQCvdGo72E3lhYSEULhEPGQ91ojhGORtFzHKYTbMqpFGAgEsoNB+7uQ1uAKZnV1NJr7+E03XSh7UY5Ca2v5Y9XVTRcRcYnTsS0rpizL0qZpDuGBlbXHY0p3thAjkFEtwp6erBlK6UMSnUeiMFNbLOZdSOQ99rrrfvGoFMHRmzSpcT0RL3MjNjMoEg0zDe257aMzzjhlixt5CJHuMqgQMnm9oblARm6szUR4MhxWR+TlRa+95prL2xKdULoIBAKWUngMrmy9xhQKBRlD2Tyb8A8aXPgphBimjOkaXbDgJj8Rvp7oPBKgDcDl11wTuDvRiaSrUMj3is8X6YDDM5EHxwmDQ3lYZQb+4uS9hcgkGdMi9HiCM+HSmq8kxcz0H9v2HH/ttVIE3dTUNLFBa+XK4bexaIy01nvbXmZtdli/68b9hcgEGVMIiSzXNkpONkRs2baxOBgs+vINNyx8L9H5pLulS+fZSvFLbsS2tU2xWGy3hZCZkZ2d/fQp55/S58b9hcgEGVQIcWyic4gHpXRnKJTzvZwc+8Jbb/2xjAXGSSzmew2A5UJoFYmGdzv2R0ThUKT/LzI+KMTIZcQY4dy5SwqAbfu5fJRcojGANw2Dz/jd7y5emehkMk0opN71ejnCTI7+TRERwuEQCvIKscsNuBkvB4PFbzt5TyEyTUa0CCdNatoH4OxE5+GiCIDb/X4c9+tf/1qKYAIsXnzxtljM2+B03O2FkHbT4gspUot+/OMTI07fV4hMkhGFsKencAZRerZ+mdGpNZ3t92NBIBDoT3Q+mczjiS13I27MipHmT0+YYcZTjc0VL7hxTyEySVoWh515vbFpzGm5m8zWgYGcU2+77SL5MEwCzPQewCc7Hde2bWXbtlbq/55bLcveEo6qSwKBY9wYlxQio2REIfT5Imm3t6hSep1tm3Nvu+0i2VYrSRDx6qHuDDo8rKKxiOX3ZQEALMvunbnv1FOOPPLgDW7cTYhMk/aFMBAIqGAQY4dzmk2yC4f9K3p7y792772nywdhclmLwUlLjr7biAiRSARZ/mwQo7W3P/jtI488+GUn7yFEJkv7McJQKJSnFJclOg+nEPGGYDBnnhTB5GPbWc3M6HE6LoEQs2I2gPezs81vXXLJWS86fQ8hMlnaF8KursoCgPyJzsMJzNTT359/yl13nS/nziWhUKgpSgTnN74mQjg88PdwNHrsd06d68rCfSEyWdoXwtLS7nxmToeNtm1m49xbb/3pG4lOROxaSUmJzUxb3YgdjUbbzjvv+x1uxBYi06V9IQyHzVwieBOdxyixZXlvzs62/pToRMTuBQJX2kTc6EZsZhhuxBVCZEAh1NrIRopPCopGPf82DPWrQCAgU+WTGrFtm44vqt8unTeEECKh0r4QRqOewlReTE/Enczmz6677lLHJ2EI5xmG5UrXKDPy3YgrhMiAQpiTE8xnTtnvk2Mx76033XTJfxKdiBgaZmp2Iy6RFEIh3JKqBWLIlOKsROcwUlqrDcFg4Y2JzkMMXU9P7jYAezs/cNiYqcDpmEKIQWlfCIGUnSjDsZj3isWLz5X9Q1OIYXAnwG6cDZgXCAQy4e9ViLhL+z8spdiT6BxGaHlBQfixRCchhofIjgEUcj4u5/T05KfDMiAhkk7aF0JmnarTzu8MBALhRCchhsfnC0UBuNEi9EQivan6XhYiqWVAIaRU/PDYZhixpxKdhBi+vDxEATjenc1MnJ2dk9YnSwuRKBlQCFXKbbfNjFfWrl3ryjR84booMw04HZSIQ7m5AzGn4wohMqAQqtT7Dlkpenbp0qV2ohMRw7dy5YwYwG6s+ewIBAJRF+IKkfFSr0wMk9a241PZ3USE/tbW8vcSnYcYmaVL59kAupyO69YepkKIDCiEhkEp1bLSmjqKi/tcWZQt4kMpuNE12ul0TCHEoLQvhAClWIuQe3Jygt2JzkOMHDMcH8sjgswgFsIlaV8ImSnVZtq1yLKJVKdbXQgqG64L4ZK0L4REnFKFkAjSGkxxtm22OB1Ta+dbmUKIQWlfCFPtW7QsQ1qDKY6IXdhZRssYoRAuSa0qMSIpNUQIpeyUmtwjPk0p2/FuTNs21jodUwgxKGXP6Rsq2za1UqkzvEKU0SeR0/nnn+/1+XymUkr192ezz9djNzU1RVNpXaVtA4aDv0UiRkdH8YfORRRC7CgDCiHZqaQnMoMAACAASURBVLSongj+ROeQAN599tnnsMLCwpPXrFlzKIBaALkAYgCamXnFvvvu+0RHR8dft27d2p7YVPduw4Z1xuTJUx2Lx0y9995752rHAgqRnKioqCg/FAoVMrMPACulQqFQqAtwfknSjtK+EJqmlVK7cTCjMNE5xFN1dXXN+PHjr83NzZ0HYOeTQjwAxhHRuMrKyi9VVFT8pKio6LKVK1c+iSTu8yYiRx+9iPA6sCql3sdCDAONHz9+VllZ2Q+Ki4uPxOCDcD4AJqJOZl7f1dX1XHt7+8MNDQ1r3EgghdpKI0Pk/AbILis7//zzM+K4naqqqrHTpk1bmpubezI+XQQ/RSk1o7q6+qFZs2adhiR+7xJpR2cqr1y54hkn4wmRLIqKigoOPfTQ66ZOnfp8cXHx+QD2A1AAgAAoZi4FMKeoqOiKyZMnv3zooYdeCiDb6TyS9sPEOdwGpM7UcyLke70leYnOw21HH320f+bMmYsMwzgEg2/6ocovKyu7cdq0aYe4ldtoWZbHyZm/4fXrP5STSETaqaioKD/wwAOX5uXl/RQYUk9YRV5e3lXHHHPMvcXFxflO5pL2hVBrsxvglOlWYkaBZWWVJDoPt40ZU30CEZ00wpcXjhs37gYASdlyDgapnYgdmaEVieD5lStXbnYilhDJorS0NG+//fZ7mIiOw/DqkOHxeL41ffr032IIvUhDlfaF0DStIDOlTIsQQEFOTrgq0Um4KRAImJ2dbfMxuvffYZMmTTrUqZyctHLlv9uZHRnc18uXv/kQgJR5kBNiKKZOnTofwHEjfX1OTs73P/OZzxzhVD5pXwiZYSmVvBMrdsFjWTwz0Um4qampqwTAkaONU15ePteBdBxnWWobs+oYfST68MMPl/9r9HGESB5VVVXZOTk5PxtlGE9FRcVZjiSEDCiEhmHZzKlTCIkYkUjWbIBT7kDhoYrF+g8ERr9MxO/3H+VAOo7btu2j9o6OllEvgG9u3vzwli1bHCioQiQPj8dzNIDy0cYhouOZ2ZEVu2lfCDdtGm8xp84JFMwEvz+8fyDwy7SdMNPX1+dIi9c0zfFOD5o7hEMh+5VRBWBsef31Vx90KiEhksW4cePmOBSq8K9//WuNE4HSvhCOHdsQdmriQrwQ6SnBoFGZ6DzcEgz2VzsUyvT7/Uk5nvr22689B/BIxwl527bG+9euXbvF0aSESAJKKSf/ZkfdsgQyoBB6vd4+YO9nuTHzJ/8lHuUwc1JOBHECMzu1aYBSSiVjixBr1nzwXigU+WAkr9WaO59//u07nM5JiGRAREk37JP2hTAQCAwA2OWJ79uLnu33+mL5eQWRwoKiSF5uftTr8cYA2MyJ61E1DP3FQCCQlr8fB/dTJSJKyiUUAKwVK/5783BfRMTYtq31uqam96U1KNISMzs27m3btiNbLqb9FmsAmAj9Ozf0tNa6pKg0VlhYrAzD+NTPwbYtu6+/L9LR2a60tjwO75o1FMd2dCAXQG+8b5xKnBosd8MLLzy39JBDDlugNR00lOuJYDc1df7uoYfuGHYBFSJVNDU1rZ44caITofrLysoanQiUli2OnWmNT86HYzBM04xNqJ1klZSU+5RSHmamnf9TyjALC4p8kyZMUWUlFWEisuLZbUrEpUrljXidjUgK1qOP/umHRLy3E+vZtvWG11//7zcfeujWiyHrBkUai0QizwEY9bwN27b/ccwxxzgy/yMjCqFSg4ubmRlZ/qzYuJo6MgzTu7euT2aG1tooLCz2146byPl5BRGOU38pM8E0IyfH417xR8kwEBsXGzZ8uGLlyrXfB7B1N5eE2ts77nn00T8d8dJLf38MSbyZuBBOaGpq2hKNRh8fZZjYhg0b7nIkIWRIIdSaOhkMvz8rWjVmrCKiYXUJMzOUUp6K8kpvTfV4y2N6Ysxw/cPc44kcGwgEknJW5Oik7xrJXXniiT8++/e/P/W1WCzyLwAhAAygta+v9/GXX37563fffetZjY1rdlcohUg769evDwDYW0/JbkUikUcbGhpeciqfTBgjBGBt9HmzYjVV4wxg5BM1mJn8Pr933Ng6u6OzPdrZ3e5R5OZph5Q/MGB8C8BN7t1DxMPKlW+91dW15aslJZXjqqur8tatW7Vt/fr1LZBuUJGBGhsbV2ZlZZ1VW1t7L4Ci4bw2Eom88Pbbbzs6hJARLcLy8or3x1bXAqMogjsxSkvKvONqai1lKMvFxiEB+OE559ye69YNRPxs3bo1uGLFfz989tm/v7V+/fpGSBEUmYvXrl37+IYNG75k2/b7GNqQQCQajS557733vjkwMLDNyWQyohAW5BbXwLkiCGCwdejz+r0Txk9GTnZuxK2uUsOwp+bmdn3VjdhCCJFA/NFHH73+/PPPH9bc3HyOZVmvA2gDEPn43wEEAWwJhUJ/bm5uPv6ll16a39PT0+V0ImnfNXrvvfVlsai9QBG7UvSZ2awaU6O6ujujHZ1tJhwuuADMWMw469RTH3zsoYe+58SJBkIIkUyCK1asWALgnvLy8vFa65r8/Py8vr4+TURdzNzQ1tbWArjX9ZbWhbC+vt5QlHNFZ0f3Z4Z39uvwMLMqKiz2+ny+WPO2LczMjv5c/f7IIePGffR5AKOdaSWEEMnKam1tXQ9gfXu7I+vkhyytu0bD/dZRnR3dZ8RjSx9mpmx/jnfc2AmslHL0/ENmeGIxz4Vz5y7KcjKuEEKINC6Et9zycL5lmzcQUXa87slgmIbhqRs/iUzTjDk5bKiUfeT06d1fdiygEEIIAGlcCHN95im2tmYn6PbmuJo68nl8MSd3o4lG1a8CgcCoz/FLvMxZUC+ESH5pWQhvv70+1yZemMgciMisrhpHnsENvB2KydN6e7PmOxUvcTJrQb0QIrmlZSH0GLEfgtmpM+9GzFCGWVM1DkRkOxGPmeD1hi654IJrap2IJ4QQIg0LYX19fS4Rzk90HsDgmKFhGJ6x1eNtrbVTe0iOMU37V3Pn1iftqQtCCJFK0m75RCziPQmwkqrF5PX6vGPKqyItbVu9RGrU3YKmac2bMmX14wD+4kB6QgwVAfAVFhb6Y7GYX2vtYWYPMyv870M1A2AisojIUkpZpmlGenp6Ihg8JDtVNxYnAD4Mfm5aGFz4LePdaSCtCuGSJUs8weDA9wBKqtYSMyM/v8AbigRjvb09XgdWc/hsm3+zcOFV//nNb65w5DyuDEUVFRVltm3XjB07to6IJmqtKwGUbp9t7MH23S22Hya6BcBHLS0tG/r7+zf19fXFd7FTfHkKCwur8/Pza0pLS2cw85SCgoIJPp+vjJkLARQCyALw8c9px88SDcAGECGiMDOHMHiuZq9t252dnZ2bmblBKfVhQ0PDRq11kxu7hTilsrJy/JgxY07w+XxHFRQU1GitfUqpSGdnZ5NlWS83NDQ8093dvcnp+5aWluYZhlFbVVVVB2AyM9copcoA5DCzQUT29p9tGwZPN/mosbGxIRKJbE7B92bW5MmTD8rLyztCaz2NiAowuAXhJiJ6c9OmTa91dHS4dlh1WhXC7OzKfUPB/oOScSYGM1NZSYURDoViMSvmcSDkVMvSVwcCgdMCgYAjZ3JlCKqpqdm3pqbm86Zpfi47O3s6gAoAOUMNUF5ePgBgW19f37uRSOSp1tbW55qamlL+RPmCgoKiioqKQ4uLiz+flZV1qMfjGQegDIOFDsDgQ90QfNxC9DDz/+yTaxgGysrKPvn/0tLSHiJq6e/vX21Z1qubN29+sbm5eTkcOK/OAeacOXPOKygo+BmAamDw+yciMDOKiooA4NulpaWNnZ2dv/vvf/+7GIMt3hGrqakpLi4u/lx2dvaJeXl5c4ioGkA+hrgjSFlZ2QCAbeFweGVvb+8/2tra/rVly5Z1SOKW69SpUz83ZsyYgM/nOwjArmbF69LS0qaenp67169f/7v29vY+p3NIxpoxYrff+qcrvV47kOg89iQSjUQbmzaa5MCR90SwW1srzrznnrPvdSK3ePniF094WGv7FAdCxVatWnV8U1PTUI5j8c2cOfPrFRUV803TnA0gF868/zWA9lgs9tT69et/u3nz5pUOxIwnNXHixKPHjh37PY/HcxwR/U/hS4ABy7LWDwwMPLpu3bqHOjs7mxKUh+fwww+/KTs7+ywMrcFg9/f3P7Rs2bLzAAx7K8TKysrxkyZN+nFWVta3MPhg5kQjhQH0RiKRN7u7u5e8//77TyK5NnpXhxxyyLn5+flXYbDY7422LOvldevWfbexsdHRY8vSphDec8/jedoaeBHAAYnOZU8UKW7vbI11dnU40UUKw7AHYjHf0ddff8XbDqQXF3EuhNkzZ86cW11dfQWASQ7cc0/sWCz2h3Xr1v26qanpIyTxU3hBQUHR5MmTTyouLl4AYGai89mNEBH9ae3atdc2NDSsQ/zGFumggw66sKio6DoMc+/ggYGBm1577bWLMbQWLVVWVo6bPHnyxX6//zQMdjW7hojWNjc339DU1FTf2dnZ6+a9hpLOZz/72dNzcnLuwPAfvN5ctmzZV/r7+0d8nuHOkmosbTROPvmU6dFIdCGSvLuXwZSdnYO+/h5baz3qnz+z8hLxnPLy8x9fvbq+34kc3TZp0pSvM+vPOBBKt7W1PdTb27txF/9GNTU1B8+ZM+e+/Pz8CwAUO3C/vVGGYexXVlb2rcLCwv7m5uYPkBxdfJ8oLi7Onz59+vcnT558V3Z29ukAyhOd0x54AOxfUlJyanFxsb+vr29FNBoNuX3TioqKutra2rsAFAz3tV6vd1ZOTs5LLS0tm/dyqX+//fY7fcKECQ+Zpvk5xKcVXpKbm/uVqqqq47KysppbW1sbkKCJS2PHjp1YVVX1BwytJbizmpKSkuzNmzf/Ew7lnzbLJ2KRyLHM7Et0HkPDxpiKanZuSQV/ZvLkFYsCgUDctpMbHdcX1PtnzZq1YMaMGU8T0dEu32tXyktKSm456qijfl9QUDCsQ0ddRHV1dUcceOCBz5SWlt5BRDOQOj1CBUVFRT8/8MADH5syZcp+bt9s7NixX8P2McER8FdUVFywpwuqqqrGHnHEEfdXVFTcAaBqhPcZjQOrqqr+fPjhh99RU1OTkPXWtbW152AUD2HZ2dk/qKmpme5UPmlRCAOBF81QOPq5OOyt7QhmwO/zewryCyyHtmAjIswNhfDzQCCQ1C1itxUVFRUce+yxS8rKyq4FUJLAVEyfz/fdWbNmLa2rq6tIYB4AkHXooYcGJk+e/HcAhyE1/+7J4/EcXltb++SMGTOOcPE+3uLi4i+OJgARnVhaWpq3q3+bNGnSITNmzHg2KytrHhL7e/BlZ2efPmXKlGcnTJhweJzvbWZlZX13lDFypkyZ4sTwCoDU/IP4lLKyNj8BcxKdx3AwM5WWVCillCO7zgAwiHBRb6/3x5m6hVlubm7ZAQcc8KRhGKcisRM+PuH1eo+dNGlSfUVFRUK6IMvLyyuOPfbYpXl5eVdgBF19SaimpqbmsX322ecwN4Ln5+fnAth3lGH8eXl5h+z0NTr44IO/PmHChCeVUsnSGifTNPeZNGnSkwcddNApiFNOEyZMmAUHuuRN03TsEIK0KISFufkzGFya6DyGyzAMs7ioxHbwdHvD44necNllv/yGQ/FSRkVFxYQ5c+Y8o5Q6HMnxIfMJIjpy6tSpd+yuleCWysrK8fvvv//ThmF8CWnyt75dcVVV1cNVVVVTnQ5cVVWVD2DMaOMUFRXtOAGJ5syZ84PCwsJHkNheit0pKCoqemD27NnnIA7zRgzDcOowhGkPPvjgkJc97Ula/HH0BzsOpuT67BsSZkZBQZHhMU2nWoUggiLiO08++f4jnYqZ7CoqKibMnDnzUcMwknbGsN/v/9qMGTMuRJz+5ioqKsr32WefegCJOoHFbXVTp079LYax/nMotNZlcOBBKjc39+PucHXwwQd/r6Cg4Ha4PCt0lIzS0tIbZ8+ePR8uF8PKykqndv4y/H5/jROB0qIQKgMHJTqHkVKkjKKiEu1gqxBaU8mECR/d/Y1v/CFZp8U7pri4eMzMmTPvN00z2d8Dyu/3Xzxt2rSdu8zc4J82bdqtRJTsP5NR8Xg8X9h///2/43BYR445+/gc1IMOOmhuYWHhzUjuIvgxf2lp6TWzZs2aCxd7VYjIyRncjnT3p0UhZE7adVB7xczIzys0TNNwrFUIAJZlTq6r27D0iit+PdnJuEnGGDNmzHWmabo5ecJJ2TU1Nb+Fy0t8Zs2a9SOfz3cSkqyL2AVmeXn5xU7OzGV2Znydmb377LPP0UVFRbcjtcZm88rKym6prKx0s3fFsfF7InLkbynlC+Htt9fnEsjthdKuIoJRUlRqa3Z2SY9pWtO1jv3rwguvmeVo4OShAIxLdBLDoZQ6eN999/2hW/HHjx8/vays7Aq4v542CqAPQCcG97rctv2/lu3/34XBHVbcXqc2ubq6eq7L9xi2rKysyVVVVQ8jOccE96Zs3333fbC6ujoVcx+RlJ9q7+NYCYO8ic5jNAY35S40W9tbLDj8O9FajfP5wk9efPFvvnf99Ze/kBynwydDDgmjysrKLsjPz1/a29vb6XBsc/z48T+DO4vkw5ZlrQ8Gg28x81sNDQ3riGibx+PpHBgY6K+srAwBQDAYVL29vV6/31/IzOWlpaV1OTk5B+Tm5h6tlNoHDo/pAUBNTc2Zq1at+j0c2MmHyJn3JjMf60ScBJo+bty4q7ds2XI2Uve0kCFL+ULo9XlURCfV5h0jZRTkF0a6e7pMp9dDMlOVUtE/XXbZry7x+QIPJH6T7oQv7+gB0AigY/vpCAqAn5lLiKgGI9vtYshM05xcW1v7/5YvX/6Ak3EnTJgwwe/3z3MyJoCBYDD416ampnt7e3vf2d3WXF1d/3N4RBiDp01sbm5ufhvAUgC+8ePHzx4/fvwFfr//awCcfHidXVtbO3Xjxo0fjjaQU12joxAEsKKrq2t5LBZbSURNRNS//T1aSEQTcnNzZ/v9/lkAauFi93deXt73J06c+Lf169c/69Y9kkXKF0L4zAGEYpzqwyHMjIL8QtXd06XhSpc1lTDzbcGgUXXmmUuuveuus2LO3yOpdYVCoSfa29sf6+7ufjcUCvV0d3eHMLgFGgEwCwoKsvx+f2FxcfH+48aN+w4zfxnuTHIwysvLTwbwRzi4CXJhYeF3MLiZuCOY+a2PPvroZw0NDcsw+q3iIps2bXp906ZN7+y///6nlpeX3wTncqXq6uqTNm7ceLVD8RKhsbe3956NGzcu3bZt2ybseeNuVVFRUVpcXHxYVVXVfMMwjoc7H4C+urq6X3d1dS1Lgr1JXZXyY4QbNixvB5BqZ2/tktfrM7xer5vdEH6l7EBhYevDl112ddneL08LPeFw+DerV6/e59VXXz199erVjzU3N2/q7u7uxuDBqjYGP+TDPT09XS0tLQ2rV6/+2z/+8Y/vrF69+mCt9T/gQteQUuqgurq6OidjlpaWOjVWZgeDwXveeuut4xsaGl6Bs/ulRt577717enp6LnUyrmmaX3AqVjwxc3dfX98vVq1atf8bb7zxq23btq3C3k+v0C0tLa2rV69+7Pnnn//yxo0bv8TMK+HCJu9KqdkTJkw41em4ySblC2EgENCa6f1E5+EQlZuTpx3adm2391DKnsccfe0nP7nuuDTekk1blvXimjVrDn3llVeu2H5sy3AKmt3Y2PjBv/71r6/19/ffOszXDkXRLnYfGbGJEyeWA5jhQCgdDodv/Pe//z1/+8OCG/jNN9+8y7KsF50K6PP5ZpaXlyd6K7vhev2jjz466vXXX/91U1NTJ0ZWyKy1a9c+s2bNmiMikcjdAJzu6VElJSU/LisrG/UmA8ks5QshABimej7ROTiBmZGdlUNxmkwyOSsr+LeBAfPKs89enCwbQzslFo1GF7/77rtf37Rp0+pRxgovW7bskoGBgb85ktkOvF7vYXCoSysWi+3rRKxwOPz7V1555Qq4f2pGrLm5+SoH4+UqpRzbhNllHIlE/vzGG298uaGhYbkTATdv3tz18ssvn9fb2/tLOFwMmXlKbW3tt5yMmWzSohCW5OY/ycxpMebl9XqJiOI0S4tyDMO6PCen84lLLvlVyq7F3InV39+/6KWXXrqoq6urx6GYkQ0bNvwUQIdD8QAAxcXF0wE4cmKKUmrUO2wQ0fPLly93tMtyT1avXv1vACscCuerrq5OiUIYCoUeWbFixQ9dmDUcfeONN67t6+u7Cg53kxYVFZ1RXFzs6iSyREqLQvj+h1mbADWUU8qTnlKGMk0znssLlGlahxPply644Hqnd+mIO9u2/7Bs2bJfYHDmomOam5s39/b23u1kTABj4dBOJgBGewRX67p16xa42B26K7q3t/evTgXzer2O7z3qtHA4/I/ly5f/2MXJJ/brr79+XW9v7yMOx51ZUlKSKhtXDFtaFMJA4BgrNzv3f8ZxeLCXSHsQtRikNcyUmFlKRPDEtxB+rNTvDz5w0UW/WXT66ffEdXNoBy1//vnn58PBmZg74MbGxnsxuCzAKVWlpaWOnCHJzKPJy2pvb//Vhg0bnGqdDVlHR8czcKj1wsxTnIjjFmZet2XLlh/19PR07f3qUYls3LjxQq31Bw7GpLq6ujMcjJdU0qIQAkDl2NwXPT5zGQAwFPLQFft/+nf2PH0NfVNfqz/LS6N53B6zkZAiMxyklEEuT5jZHY9pRhfk53fe+oMfBJxqqeyCK2OgoaampvMAuHaC+ZYtWzZalvWagyG9xcXFjszeZeb3MMKCEolEXnznnXfucyKP4dq2bdt6ODTrOzs7ewxGuSTMqQX1uxDdvHnzRevXr290Kf7/2LZtW9vWrVuvgLM9I18oLCwsdDBe0kibQnjMMcf0m2QsYlAkB92xL+vbUIBuDwFGFsLmJH7X92W+Vc3kV6IaRpIXw8Slx0zIzu47lajyTPfu4vwJypFI5E+rVq163em4O4l2d3f/08mAWmtHZjpu3rx5NYCRzJ7uaW5uvgiDC7njrq+vbwDAeidimaaZW1BQMKreDLcW1Nu2/cyaNWv+7kbs3Vm1atUzlmU5+X7NqqqqOt7BeEkjbQohAHiz7Kdyzf6/f1HfqUzYnh27QhkGDJBxED/tmc6vRbX7x26NFMcsi53eXWY4tFZqzJitv3JvraHjc4H6mpqabkMcJnls2bLlDTj4lE1ETu3nqLdu3fpzDLNbuLu7+4a1a9cmcvlRJBgMbnYolt8wDMe3cHOAtXXr1l8h/luVRVtaWm6Gg+/XsrIyxw7DTSZpVQhP6Lis8CTrmvJshHZb5RgedRA/ZeaiKyn3ZbNsS8di0YRXaWYqYI7NdyO20zU+FAq9un79+rh8mGutN2Jwc2mnODYT74MPPnimt7f35xjcKGCvmPnlrVu3LnLq/iOke3p6mhyK5TMMw8Uu/ZFh5n+uXr3akWUSw7Vy5cqXY7HY207FMwzjCDi7PV5SSJtC2HfHxHJTm/ex9uz1QFoFGDP5Ndt27jQQRxARggP9WuuE73e4HX8rFRbcB4PBJxGnKf9tbW1t4XC4xcGQTk5Mst94440bOzs7f6C1/gh76GO3bXvNu+++e1ZTU5NrY6rD0OpQHI9t244sR3EQb9my5X7E6f25C3Z7e/u9TgUzTbO0vLw8JZapDEdaFML+22vHeEg9DIUTh3K9hokK/khZ8CTVWCEz687uDiJKlumtXBOJYILjUZ39qQ+0tLS842jEPbOj0agjY1qAc+ep7UC//fbbj77//vtHdHR0nBuJRJ4goncBfADgvWAw+K/Ozs7ABx98cGJ7e/sah+89bOXl5RV+v9+pDR0MZk54b8pOtrS2tv47kQl0dXU9jiH2EgxBTmVl5WccipU0kv5pf2+C904ca0SMRzXTYcN5nQGLEjkpZWdEhK7ujlgsFvMlcnzwf5GfGTUA1iY6kz3ojsViDXG+p1NdeYBL3UxtbW3b2tra7gBwZ1lZWU4sFjNN07Tb29vjcUbgnpgVFRXTqqurP+v1eo/Lz8+fDWDUmwFsp7af0pA0IpHIW+3t7U61eEekqampc8aMGcsAHONAOMrKytrHgThJJaULYd9tM2ZS1KrXoGHvsRhEgUYSff/RaDTa3tHqIUqqv2O2bZXUO/bEYrH2lpaWeG+67uQYodu4ra2tP5EJjBkzpszn8x05bty4o71e7+cMwxiLwZMnnH7iS54n2+36+vpeweDG7gnV09PzYkFBgROFEACkRZgsgndMOZhg/xVM1cN9rUJEv0efJ597S86GxbbtWOOWjYpIJVUVJEKXYXicXJTruGg0uhFxbuHYtu32guhUpQBk19XVlZimeUBJSckx+fn5R2FwM/Bk67KMh1h3d7djE1VGo6ura1lBQYEjsfLz88dWVVVlb926NSFLbtyQkoVw4I5JswhUD2DYRZBg6bfohFgL1XlV4h/UOGbZK5q2bMpm5omJTmZHRIzOztJHliw53/EPfa0VO/WQTEROdlMOSWNj40BRUREjFbYqcpeZnZ1dVlJSUlNUVHRQXl7eoTk5OZ8BMBUO7aEabw4vqG/v6OjY4mC8Eevo6PiwtrY2Amd+L3mRSKQICVp76oaEFMLFix8pAmITPMr/GVOpfA3dzsraGIt5N86fP3frnt6MkSVTpmlNfwUwfrj3jcAT+g99w9xA+3sHxwgTSjPo/u4efXFvr8fn9apver3RcwEkxTZRzLQxO7vjGjdiG4Ym26FnECKK+/gLEVkY7IZL9HsoroqLi/MNw5hYU1Mz1TCMg3Nzc2d5vd5aDD6QJtcU7BFyckE9M3f5/f7Wnh6n9n4fuY6OjgEMjm078cCdz8yFAJKiyDshboWwvr7e6OvTxxvKOCUSiR2qyFsG6FyLNQFg2CpsKqv790v+sOL3S/74lKXDT5x99mkbd4wR/EfVWL2B/gqg3vIiwQAAGSZJREFUdpi3t8B4qFFNXbyODvy1F+EvOvaNjUzENDxX9gVzfnf55Sd+PJvrlp/9LPCoaWIeM52nFE9NzC5rADO1K0XfvemmXzi9O77j+vr6HD0RYii01jaScDzKYaq2tnacbdv7jRs37gCl1MFZWVlTARRjcMlHRj0EjMTAwEBbS0vL3g7ZjZcwETU71POURUS5DsRJGq4XwkAgoCZO3P+Qns7gtSAcqqFN9ek/IQKQhcEfcCXAx5nKd9Vdd/7xBX+27xa/3/r3MVU/96nV1r0MDGcNiw3gP/DoS/35617bd94a+/bbvzWXDVxOhAVwbuf/YeCtWTnZZ3z00fv/CAQC/zO2deONgVYAt59zTuB+v9/7OdO05itlHwlQFuK01IWZmsJh3yk333zJMuAX8bjlaHBbW1tfopNIcQTAW1VVlZeVlfWZ/Pz8g4qKiuYQ0QGGYZRhcFZrJo7vjZrWujnROewgZtt2u3JmGoK3sLAwp6Mj7s+grnG1EC5aVJ+Vnxu9IDQw8HMiyhrGSwlAHhF/NRwKfyUcMV9f1fbFFQerv39uGDEaKVv/xqdjD9BpGz/ZYujcc+f1A7j8zjsf/LdB5m8xOJ4Rj6dbDfCLppfO++53v/7hHq7jxYsD/QCeAPDET3961XitjRN8vsgJAGYDKIM74y9Rrc3nmfknN9986TrgUhdu4TgmomR54k4lZnFxceWYMWMOyc/P/1x+fv6hGHzATLsdQxIs3rOZ98RubW3tGTPGkYPmqaCgIK0233atEN5334v+WKT5ZmZ1OtHInygJIGjrsNXmZw/t56LoEfyo6cEeF82GYfBSqNjP/d9v2LS7i+bP/97T991X/w7b/FPbtk8D4NSej7vSB/AiZeb+9rTTvjqsFsxvf3vFJgB3Arjz8st/UwFYMyxLHWzbarbHE5sKYAwGu6tGOkbTD+C/zGpxa2v1E/fff5qj5/i5jJk5lfJNqKKiooK6urpj8/LyTvH5fJ8F4MiG32LXmDmpeiuIyLF8mDklJ0PtjmuFUKHjV0Q4Aw61tgxY1EjTff+i06Mn6juJ4dlVG3+9Il7oLTT/RvPW7nXz4dNOm7etvr7+0oHurEcsBM8D07cwuL7JKTYRP28z/fqss04Z9e4SV1+9sAVAC4AXAaZA4Jd54TCKLctbyUwTTDM2nkiPZUY5EfKZkcdMOUQ6h4i8ABQz2UQcZFabAft5IuO5SKRr1U033ZQca0mGh5nZqR0z0lZxcXF+bW3td0pKSuYT0b6Qrs64UEol1UOa1tqxczqZOa16D1wphL+/84FvRiKRn5DDW6QYsNGKOu879IXIAfwPn/6/RhCT4r8xrAW+szYMayf7efPm2QDeCwRenD++svlGNtR8y7K/TUSjeVpmgF8lphvzBzz/mnfhPBeKDHEggF4MHhS7EcD2I4iY5s6dp2bOnGkAMINBvxGJhAyiwTHGcNjL+fmkg8Hs8K23/jjViwgrpZJy8/QkQbNnz/5CUVHRtYZh7IP0L4D29hm9SUFrnVQTqojIyfViaTFL+GOOF8IlSx6qZKYbtrdAHGcghhV0lGcyv2Xlos8EsFXb6sqcs1ffPZq4gcAxFvD/27vz6LaqOw/g3/u0epMtS7Ycy1viOEASxxCTACWhmLSlh86hG90gA5MCTWHa6b7PTMrpNKczdCjTmSnDaSkHpoWUtJQOU6BQSHCb2NkXEtuJnViS5eVZkiVrsbW9d+cPmyGFBGzp6kmOf59zck7+iH73Huf5/fTuu/f3Qx+ALz7wwFPfKi1NXq/XGT/EudqhKKqDAcW48M8riZkzNYMAe15vNO/csuXDR7OZT+YY37kTys6dOxXkplM7WQAqKioqrrzyyu2SJH0WhbfDM80YC8Xj8cPBYPCp0tLSitLS0h/me1KiSdJ5tgXml7DlTMbYRXVvEZ4IjUbj1nRSme/xhvmSTrKN0at1v96JlHl7yedOnRUZ/MszT3DPA3j+ueeeM42NRZsBtUVNqZeAoVZiOqsKVS9Jkj+VVjyM8RN6vbm/tFRxzz5hkreRwy7gBEBVVVVLa2vrI5Ikbcz3XGZxAH7OuTsaje7x+Xy7wuFw9/j4uAwAa9asub20tDB244u8NgvtPRpjTOQu+YIuvThfQhPhQw89Xq0k1VtFxjwfCSr62TrPpGT40gfv/ZecvpC+6aabEgB6Zv8QAXLVBZwAlZWVq1pbW3+p1+vb8jgNFcCIqqqn/H7/oUQi0e3z+U76/X4XzrNKUUgdI0Rem4wxMTXNxGBWq1XYfERuvCkEQhMhU5WruKTXqlRYk4+vXw7giEbjEVLQKisr6y+//PIn9Xp9q8ZDpwH0KYpyeHR09ACA/W632xOLxSYwt+V5UfchVZKkglmR4Zzb8z2Hc+iNRqOodlfc4/FQIryQotKyTYnphKRRG6FSqInVoERICACY1q5d+0tJknKZBDmAtKqqUVVVDyYSia7R0dF9kUjksM/nC2Im6WWytChqPwHPcPycMJlM866FnEMmANWCYk1h5tjVRUNYIuScm3720yfbtOylpyjim8YSsgCx9vb2bTl6J8g552PT09P74vF458jIyD4AR0V2HpAkKQ8VnnLPZDJVWa3W8mAwmPdio2VlZWYA9YLCxRhjYUGxCoLIJ0KTxFiNqmGBTLPRmMtD8IQsCE1NTettNtvfCg7LAfSEw+GH+/v7n85lFwVVVUW9u1IKaWmUMWbT6XQOAHlPhHV1da8X3hAhEo/HL6pWZMIS4eTkpE5V1WItd2qnFKVgXrITkieG+vr6bwKwCIwZCwaD/+rxeP5TluWcd/eQJEnUDRoooKVRzrnV4XAs9fv9p/M9F0VR2iHo5pxMJicikQglwvPhnHMGpukJUs7UhVgNhRBhGhsb1xUVFb1XYEh5YmLikwcPHuyENg2PperqalGl3ngymSyYRAhAZzKZrgHwh3xPpL6+foOoWPF4/DRENRQtEMI6GlRUVKQ5oOm3BK7wIS3HI6TAsPr6+tsBlAiK5z1+/PimgwcP7oY2SRAATDMdZ4RQBVdPyZrdbu9AXrrc/AVJp9O9T1QwxtgxUbEKhcjWPnGdTqddYuJIl5aU0tm+BYgO1ItRVlZmKy4unk9HlreTlGX5K2NjYycFxZsrM4AGjce8oBxcm1c0NTXlusDI21q2bFk7xP2Mkz6fjxLhhTDG0ul06pCoeO84no6NmooNvVqNR8ShA/ViVFVVNQFidk6nUqn9x44d+18RseZj6dKl1QBqtR73QnJwbZbZbLYPC445L3a7/a8FhovG43GtvyzlnNBmr8k02w2NSu8woOu11/aPaDEWIYXIZDKtg6BC2tFo9HeYOR+mKYPBsB4XeTFwm822xeFwiFq+nheHw1FdXl7+EVHxksnkaa/Xe9Hdd4UmwooKfhTACZExz0flSsJoLv7Zmzu8E7KYlJeXrxQUKuXxePJSmKKhoeH9omIxxgx6vb6g6nvOaqmvr/9EPgZubGy8gzEm7IlbUZSXUEA7c0URmgg3b94c5kx5DDl+0W4tL3918+abX87lGIQUOJ3FYhF1QDquKIrm2+HtdnuZJEkfEBWPc25Op9PFouKJZLVa/8HpdGp67rm2tra+oqLiXgg80+Z2u38nKlYhEZoIAaCurvEJnU7fLzru6zjnSTWObYwxehoki5kEoCzfk8hGc3PzpwCILExd7HA4RNXTFIox1tjc3PyP0G4ZWF9XV/clACI36gzma+Ug14Qnwptuus6XTiW+xzkXvo2Zcw6LpfTBT265uVt0bEIWIFHb8k0lJSUVgmLNSVlZma2srOzLgsNKJSUljYJjisLMZvNdbW1tH9VisLa2thsqKiruFhkzFov9Ctodq9GU8EQIAHd/dvOOsrKyX4uOy3T637a2Lf+e6LiELFCiurEb7Xb7akGx5oK1tbV9W5KkFaIDq6p6qeiYAhVXVVU9WFdXtz6Xg1RWVtY5HI6HAIhs8pgMBAJPCIxXUHKSCBljSjg6upVzvl9QSK4o6WdvuOHKLatWrbqoqp4TkiEVAmtYlpSU3AyBHczfhtTe3n57cXGx0HdXr7NYLK0o4F2okiQtWbly5dP19fXrchG/urraccUVVzwDQcdqXqeq6kt9fX2nRMYsJDlJhACwdevWSV1K+jDn/Blk982V6yTp1yp0dzQ3N+e9eC3JHh2oF0JNJpPCtrGbzeZ3LVu2TFgZrgtgy5cv/4jNZnsQOaq2YjabW8rKyjJ+T6jRtem87LLLnl21atWNEHgPrq2tvWT16tVP63S6dlExZ6WHhoZ+irn1llyQcpYIAeDOz39qxFysbOaMfxVAJtXroyaD7gdcKrrz3ntvu6iKvC5mdKBeCC7LssiCEkUNDQ3fs1gsIgtgn0u/bt26e5YtW/YIgFy+j2y02Wx1mX5Yw2vT4XQ6n2pvb/+OgM7xutbW1g+tXr36Wb1e/y4hsztHKpXaHwgEXhEdt5DkNBECwO233x77zGdu+zem49fq9dL9AOZSzT7KGHaoYO856+n9+zvv/OBF1Q2ZEBFmXz0Ie4IxGo1Xt7e3PwjBDbttNpvz2muvfcRqtf4IYrtknI+huLj4uhyPIYrFZrNtW7t27Utr1qy5BRn83Gtray/t6Oh4fMmSJU8AaBE/RaTGxsZ+7Pf7L+p7sNAL/u3cdddtbs75Nx59dOf9OuAGlfPrmCS1gPNKAGDAJGcY1DG2S2Xm3UVF02Mf//jHC6qALiGFxOv1DjQ0NJwF0CwoJDMYDJs7Ojqkw4cPf35ycjKrVRir1Vre0tLy6fLy8q/OFtbW5GnL6XS+r6en5ycQt5kol3Q6nW5dTU3Njurq6lN+v/8Xk5OTvx8cHDyDmaVIBW982ZEA6Gtra8usVuu7HQ7HrXq9/kaIK7r+FqlUqrO3t/eZXMUvFJolQuD/1999AH41+4csQkajEdPT1EErW9Fo1B8Oh1+xWCyiEiEwkwxvu+qqq1o9Hs93+vr6XsH8Sq+ZbTZbU0tLy0ctFstnkIeC2oyxjXV1dRav1zuh9dhZ0EmStLK6unp7dXX191taWsYBDDDGRjjnUwAYY6yCc94A4FJo0NGCcx4dHh7+NoBErsfKN00TISFEKB4KhZ6wWCybARQJjr2moaHh6cbGxn0+n+83Pp9vz9TU1Iherw/JspwAwBwOh1FV1TJFUSqdTmejXq+/ury8/Dqj0diO/B72t5jN5g0A/iePc8gGA+AA4OD8jZXvc/+uhampqf84ffq0qJ3/BY0SISELWF9fX/eSJUv2GgyGTTkIb+Ccb7Db7Rvsdvs0AD/nPMIYSwEA59zAGCvGTHWYcmiw52CuampqbhwYGMhnIjyMmSVrkZVztNTd09Pzg3xPQisFc+ESkglJkvLxHkhF4RQejo+Pj/8QQDzH4xQBqGeMrQTQBqBt9u9NAKwosHuJ2WwW1acxI4qiHIjFYl/FwjxyIPf39382GAwW/HE1SZKEVLopqIuXLBqibg6cc57rBPAWkiSlICgRMsaynv/Jkyf/kEgkdoqYTz5wzofcbvcnksnkn0TFlCSpqaGhQeih8vlIpVJ8z549Pw+Hw/dBo9Z0gkzKsnzX4OBgzprvMsaEfTlQFEXI7z8lQqI5xpioM6EqAM3PlyqKEoa4HYkBATF4T0/P1znnbgGxtMTj8fhLAwMD7z116tRTw8PDXwMgqnKUQa/XXz7fDwk+UK92d3ffHw6HH8DM7s9CFwuFQl85duzY73M5iKqqPoHhhMSiREg0t3HjxiERcTjnCZ1Ol0mhhqwwxmSI20l3VkQQn8835nK57oLAsms5Fo3H49s7Ozs/Mjg4eAoA+vv790Wj0Z8Iiq9zOp3L5/uhHByoT3V3d2+LRqMPorALVsfD4fAX9+/f/yhyvOwvy7KQax7AVFVVlSwiECVCojm73S6kebOqqr0ul0vzpVFZlr2KoohIOLFYLHZaQBwAQH9//yvj4+NfQB46zc8HY+zImTNnbu7s7NyGNz0B9vb2bmeMCWn1wzkXvZM2U4m9e/d+JxqNbkdhnm2cjEQid3Z3dz8CDZJ1Mpk8JCjU0Y6ODiE/T0qERHMtLS2HIWAJLBQKvShgOplIptPprmyDcM4Peb1eEUujr1OPHj3637FY7F5VVQuxEkgkHo9/98CBA9efOXNmF86zXBgMBid7enq2Asj2DKAaCoXOZBlDpMTevXvvi0Qin+Och/M9mVmcc366r6/vA11dXU9Cow1gg4ODJwBkvSoUDAafFzAdAJQISR5cc801kyUlJS9kGSbh9/t3CJlQBgKBwFNZhuCyLO+A+N2e6p49ex5zuVy3FNA7w2lFUX7X19d3dWdn530TExNvmwiGhoYOhEKhbyCL5WfOeXB8fPylTD+fI+murq6H+/v7P8g578vzXJKxWOzJI0eOXO/xePZA213QaiAQeDTLGOFAICCsKAslQqI5xpiyfv36h5HFjS6ZTO5wu93ClhXn68SJE88xxjIeP51On5Bl+Tci53SugYGBFwcHBzclEolnkL9di8lUKvXHoaGhW15++eWPeTyenrl+cP/+/Y9NTEz8GBluMonFYj8aHx8X8v5INJfLtfvIkSOb4vH4L6F91RYOoNflct2xZ8+eO/x+/6jG4wMAxsbGfoosngqTyeTPz549K+pdIyVCkh+JRKIzkUhk2uizf3Bw8D7kdydeYnR09GvI7EYWGR0d/aYsy3MpQJ+xgYGBM6+++uqtgUDgbwC8Bu2+9ScBvOD1ej+0a9eum3t7e5/D/JNxamxsbJuqqo/Nd/Cpqanf7t2798H5fk5Lfr9/pLOz89Mej+c2AEehwf8N59wdCAS+dfTo0Y7Tp0/vQB7fVw4PDw97PJ5vAph3rcVkMtl94MCBf4bA3/+CbWBJLm67d+9WAoHAXofDcblOp5tzrUzOudvtdn/q7NmzJ3M5v7mQZXmgpqYmbjQa3425/y5Nj46Obj158uQz0CYxpUdHR18LBAJPFhcXny4qKlqGmfJduTAWj8cf6e3t/btjx4792OfznUIWN9twOJxWVfVFg8FQYzKZ1s7hI3xqaurJ48eP35NIJDJ6D2ez2RqtVuuWTD57rnQ6fdDtdr/TMQTF7/f3TkxM7CgqKhooKipqBlCd7djn8VooFPrukSNHvuR2u1+KxWIF0dzc7/f3OJ3OiF6vvx5zr3J2yO123yrLspCd56+jvnAk34o3bNjw7eLi4nswU6HkQtdkNJFIPDswMPD14eFhr4bzeyfs0ksv/av6+vrtjLFLABgu8O8SiqIckmX5CydOnDio5QTfRGpqalrncDhuKSkpuVGv1zdgpnvBfMotcgBxxlgsmUye5ZzvcrlcL7hcrj8jN08Zuvb29i2VlZXbGGNOvPUaUTnn7mg0+v2urq7HsplDS0vLdUuXLn01q9kCiMfj/9XZ2XnPPD8mLV++/Cqn0/kxSZLeazAY6jH//5sUgEg6nT4Ti8VekGX5aZfLdQyFUwnpLVasWLGprq7uAb1efxnO//vDAYSmp6cf7e3t/W4uWkJRIiQFYcmSJY12u/39JSUlVwNYajKZSuPxeJIx5gVwyOPxvDgyMiJkW30uOByOEqvVekNFRUUHgMsMBoMtnU6Dc+5jjB0fHh7+o8fj+RMKq+SWVFVV1Ww2my+rq6u7hHO+jHNeI0mSjXNuNplMUiKRUBljcc55EDOHl72RSGQwGAwOKIrSn+vl3XPZbDZnU1PTRw0Gw3uMRuOSVCo1rapqfzgc3j06OvpsKBQKZTvGihUrNjY1NXVmGyfDRHguXVVV1dLq6uqVpaWlLYyxZQBqOOd2xpjZZDLpEomEipmjMn7GmJdzfnZ4ePiUoig9IyMjQp+YNFC0cuXK91kslk0AVppMpopEIpHgnLslSdrr9XqfHxoaytkuYEqEhBAyK89PhCRPaLMMIYSQRY0SISGEkEWNEiEhhJBFjRIhIYSQRY0SISGEkEWNEiEhhJBFjRIhIYSQRY0SISGEzBLcoZ4sEJQICSFkVg461JMFgBIhIYSQRY0SISGEkEWNEiEhhJBFjRIhIYSQRY0SISGEkEWNEiEhhAjGGEvlew5k7igREkLILEmSFBFxGGOF1ICZvANKhIQQMosxFhYRh3M+KSIO0QYlQkIImRWJRIIAsn4qlGVZFjAdohFKhIQQMiscDk8DCGQbZ3p6ekDAdIhGKBESQsisSCQyDcCVZRhVUZSjIuZDtEGJkBBC3jAdDodfyyYA5/yQ1+udEDUhknuUCAkh5A18amrqjwAy7kIxPj6+Q+B8iAYoERJCyDmGh4f/BGAow497JyYmKBEuMJQICSHkHIFAYCQUCv0ig48qsiz/09DQ0KjwSZGc0uV7AoQQUmhisdhhp9N5JYClAObSozARjUbvP3jw4AMA1NzOjohGiZAQQt4kHo/HfT7f7202W4nBYFgKoOQC/1ThnJ8KBoPf2Ldv378DSGs4TSIIdWMmhJALY3fffXdLTU3Nuxhjl3POnYwxE2NsmnM+CKDL5XL9+fHHH8/67CEhhBBCCCGEEEIIIYQQQgghhBBCCCGEEEIIIYQQQgghhBBCCCGEEEIIIYQQQgghhBBCCCGEEEIIIYQQQgghhBBCCCHz9H+kdmgpqIKhSQAAAABJRU5ErkJggg==;" parent="1" vertex="1">
          <mxGeometry x="162.13999999999987" y="604.02" width="35.71" height="25" as="geometry" />
        </mxCell>
        <mxCell id="B2m6w45xhWhxdDzetuVd-12" value="Payment Hub" style="rounded=1;whiteSpace=wrap;html=1;verticalAlign=top;" parent="1" vertex="1">
          <mxGeometry x="762.2499999999999" y="400" width="160" height="80" as="geometry" />
        </mxCell>
        <mxCell id="B2m6w45xhWhxdDzetuVd-15" value="Defra Identity" style="rounded=1;whiteSpace=wrap;html=1;verticalAlign=top;" parent="1" vertex="1">
          <mxGeometry x="760" y="160" width="160" height="80" as="geometry" />
        </mxCell>
        <mxCell id="B2m6w45xhWhxdDzetuVd-16" value="" style="shape=image;verticalLabelPosition=bottom;labelBackgroundColor=default;verticalAlign=top;aspect=fixed;imageAspect=0;image=https://www.reaseheath.ac.uk/wp-content/uploads/2017/08/Defra-logo-768x393.jpg;" parent="1" vertex="1">
          <mxGeometry x="812.2499999999999" y="430" width="64.49" height="33" as="geometry" />
        </mxCell>
        <mxCell id="B2m6w45xhWhxdDzetuVd-17" value="" style="shape=image;verticalLabelPosition=bottom;labelBackgroundColor=default;verticalAlign=top;aspect=fixed;imageAspect=0;image=https://www.reaseheath.ac.uk/wp-content/uploads/2017/08/Defra-logo-768x393.jpg;" parent="1" vertex="1">
          <mxGeometry x="810" y="190" width="64.49" height="33" as="geometry" />
        </mxCell>
        <mxCell id="B2m6w45xhWhxdDzetuVd-26" value="Request autentication for&lt;br&gt;Apply (and Back office?)" style="edgeStyle=orthogonalEdgeStyle;rounded=0;orthogonalLoop=1;jettySize=auto;html=1;exitX=1;exitY=0.25;exitDx=0;exitDy=0;" parent="1" source="B2m6w45xhWhxdDzetuVd-19" target="B2m6w45xhWhxdDzetuVd-15" edge="1">
          <mxGeometry x="-0.4" relative="1" as="geometry">
            <mxPoint as="offset" />
          </mxGeometry>
        </mxCell>
        <mxCell id="B2m6w45xhWhxdDzetuVd-31" value="Exception handling and&lt;br&gt;payment approval&lt;br&gt;Transport TBC" style="edgeStyle=orthogonalEdgeStyle;rounded=0;orthogonalLoop=1;jettySize=auto;html=1;entryX=0.5;entryY=0;entryDx=0;entryDy=0;startArrow=classic;startFill=1;" parent="1" source="B2m6w45xhWhxdDzetuVd-19" target="B2m6w45xhWhxdDzetuVd-9" edge="1">
          <mxGeometry x="0.0833" relative="1" as="geometry">
            <Array as="points">
              <mxPoint x="330" y="320" />
              <mxPoint x="330" y="520" />
              <mxPoint x="160" y="520" />
            </Array>
            <mxPoint as="offset" />
          </mxGeometry>
        </mxCell>
        <mxCell id="B2m6w45xhWhxdDzetuVd-32" value="Payments Transport TBC, &lt;br&gt;file or Azure Service Bus" style="edgeStyle=orthogonalEdgeStyle;rounded=0;orthogonalLoop=1;jettySize=auto;html=1;entryX=0.5;entryY=0;entryDx=0;entryDy=0;exitX=1;exitY=0.75;exitDx=0;exitDy=0;" parent="1" source="B2m6w45xhWhxdDzetuVd-19" target="B2m6w45xhWhxdDzetuVd-12" edge="1">
          <mxGeometry x="-0.4046" relative="1" as="geometry">
            <mxPoint as="offset" />
          </mxGeometry>
        </mxCell>
        <mxCell id="JN9JuaacZQjpyCuYcN4X-31" value="Customer, claim and land data exchange" style="edgeStyle=orthogonalEdgeStyle;rounded=0;orthogonalLoop=1;jettySize=auto;html=1;entryX=0.5;entryY=1;entryDx=0;entryDy=0;exitX=0.5;exitY=1;exitDx=0;exitDy=0;startArrow=classic;startFill=1;" parent="1" source="B2m6w45xhWhxdDzetuVd-19" target="JN9JuaacZQjpyCuYcN4X-4" edge="1">
          <mxGeometry x="-0.0936" relative="1" as="geometry">
            <Array as="points">
              <mxPoint x="480" y="700" />
              <mxPoint x="-242" y="700" />
            </Array>
            <mxPoint as="offset" />
          </mxGeometry>
        </mxCell>
        <mxCell id="B2m6w45xhWhxdDzetuVd-19" value="Abaco Agri" style="rounded=1;whiteSpace=wrap;html=1;verticalAlign=top;" parent="1" vertex="1">
          <mxGeometry x="400" y="280" width="160" height="80" as="geometry" />
        </mxCell>
        <mxCell id="B2m6w45xhWhxdDzetuVd-21" value="" style="shape=image;verticalLabelPosition=bottom;labelBackgroundColor=default;verticalAlign=top;aspect=fixed;imageAspect=0;image=https://www.abacoagri.com/wp-content/uploads/2022/10/abaco_agri-87x87.png;" parent="1" vertex="1">
          <mxGeometry x="461.5" y="310" width="37" height="37" as="geometry" />
        </mxCell>
        <mxCell id="B2m6w45xhWhxdDzetuVd-23" value="" style="image;sketch=0;aspect=fixed;html=1;points=[];align=center;fontSize=12;image=img/lib/mscae/Service_Bus.svg;" parent="1" vertex="1">
          <mxGeometry x="165.99" y="291" width="20" height="20" as="geometry" />
        </mxCell>
        <mxCell id="B2m6w45xhWhxdDzetuVd-30" value="Link to apply journey" style="edgeStyle=orthogonalEdgeStyle;rounded=0;orthogonalLoop=1;jettySize=auto;html=1;entryX=0.5;entryY=0;entryDx=0;entryDy=0;" parent="1" source="B2m6w45xhWhxdDzetuVd-27" target="B2m6w45xhWhxdDzetuVd-1" edge="1">
          <mxGeometry relative="1" as="geometry" />
        </mxCell>
        <mxCell id="B2m6w45xhWhxdDzetuVd-36" style="edgeStyle=orthogonalEdgeStyle;rounded=0;orthogonalLoop=1;jettySize=auto;html=1;entryX=1;entryY=0.5;entryDx=0;entryDy=0;" parent="1" source="B2m6w45xhWhxdDzetuVd-27" target="B2m6w45xhWhxdDzetuVd-15" edge="1">
          <mxGeometry relative="1" as="geometry">
            <Array as="points">
              <mxPoint x="970" />
              <mxPoint x="970" y="200" />
            </Array>
          </mxGeometry>
        </mxCell>
        <mxCell id="B2m6w45xhWhxdDzetuVd-37" value="External user login" style="edgeLabel;html=1;align=center;verticalAlign=middle;resizable=0;points=[];" parent="B2m6w45xhWhxdDzetuVd-36" vertex="1" connectable="0">
          <mxGeometry x="-0.3889" y="5" relative="1" as="geometry">
            <mxPoint as="offset" />
          </mxGeometry>
        </mxCell>
        <mxCell id="JN9JuaacZQjpyCuYcN4X-10" style="edgeStyle=orthogonalEdgeStyle;rounded=0;orthogonalLoop=1;jettySize=auto;html=1;entryX=1;entryY=0.5;entryDx=0;entryDy=0;" parent="1" source="B2m6w45xhWhxdDzetuVd-27" target="JN9JuaacZQjpyCuYcN4X-4" edge="1">
          <mxGeometry relative="1" as="geometry">
            <Array as="points">
              <mxPoint />
              <mxPoint y="200" />
            </Array>
          </mxGeometry>
        </mxCell>
        <mxCell id="JN9JuaacZQjpyCuYcN4X-30" value="HTTPS request&amp;nbsp;" style="edgeLabel;html=1;align=center;verticalAlign=middle;resizable=0;points=[];" parent="JN9JuaacZQjpyCuYcN4X-10" vertex="1" connectable="0">
          <mxGeometry x="0.4102" y="-5" relative="1" as="geometry">
            <mxPoint x="-18" as="offset" />
          </mxGeometry>
        </mxCell>
        <mxCell id="B2m6w45xhWhxdDzetuVd-27" value="Portal&lt;br&gt;(ffc-tcg-portal)" style="rounded=1;whiteSpace=wrap;html=1;verticalAlign=top;" parent="1" vertex="1">
          <mxGeometry x="80" y="-40" width="160" height="80" as="geometry" />
        </mxCell>
        <mxCell id="B2m6w45xhWhxdDzetuVd-28" value="" style="shape=image;verticalLabelPosition=bottom;labelBackgroundColor=default;verticalAlign=top;aspect=fixed;imageAspect=0;image=https://cdn.freebiesupply.com/logos/large/2x/nodejs-icon-logo-png-transparent.png;" parent="1" vertex="1">
          <mxGeometry x="122.13999999999987" width="30" height="33.03" as="geometry" />
        </mxCell>
        <mxCell id="B2m6w45xhWhxdDzetuVd-29" value="" style="shape=image;verticalLabelPosition=bottom;labelBackgroundColor=default;verticalAlign=top;aspect=fixed;imageAspect=0;image=data:image/png,iVBORw0KGgoAAAANSUhEUgAAAcIAAAE7CAYAAABOhYGUAAAgAElEQVR4nOzdd5wdZfU/8M95Zm7Z3nezJcluegEhoQSQKoKC/ixoooKoIEJoSlBqUK6KdIO0QJBeFDcWQJoiXQIIUhKSkIRkk+wmm+391pnn/P7YwDeGlC0zt57368UfbOaeObt79555OiCEEEIIIYQQQgghhBBCCCGEEEIIIYQQQgghhBBCCCGEEEIIIYQQQgghhBBCCCGEEEIIIYQQQgghhBBCCCGEEEIIIYQQQohUQ4lOINlt3bo1Oxi0JgBcoJQd09rXPHFi1VYishOdmxBCiNGTQrgbd99dXww7djIzzQPhMwC8ADNAncpQb0bD9HRBcfYTJ5/8/9oTnasQQoiRk0K4k3vueTzPNGM/ioajlwMo2dO1BPQq4ru08lxzxhnzOuOUohBCCAdJIdzBg3c8WB4zPPdo5i8P75W8wmb79Pnzv/e2O5kJIYRwixTC7W6/vT7X54n9hZmOH2GIDZaOffPss7//rqOJCSGEcJVKdALJwjSsXzDTcaMIMcE0vLc+/PDT+Y4lJYQQwnVSCAHccstdn1eEczDaFjLzYdFo77edyUoIIUQ8ZHzX6D333JOnraxnARzmRDwiLDc8kTmnnXZa2Il4Qggh3JXxLUKO+L8IYI5j8Rj72rZ/ulPxhBBCuCujC2F9fb0XJk4DYDgYlmDxoQ7GE0II4aKMLoQ9PdFyZjrC6bhMPMPpmEIIIdyR0YXQpIJZAOc6HZegCpyOKYQQwh0ZXQhtDIx3Zb4Qa8v5oEIIIdyQ0YUwPye7h5kdj0uGudXxoEIIIVyR0YVwIBx+z+lTJJgZfp/nPSdjCiGEcE9GF8JgEA1EWOFkTCIK94cG/u1kTCGEEO7J6EJ47rnz+sNRPABg2P2jGgYTNGso5h3HGQnPFBX5Wh1MUwghhIsyuhACwIQJNY+YpvnBcF7DUDybn4l+Q1/DX9K3xXK5K6YHf5QRwzRvmzdvnhzaK4QQKSLjC+GJJx7ZBrYWAhwc6mv86Ldn8DLTD0uVotX7Jb6dCrklZpsFf8ydM1O6RYUQIoVkfCEEgE1Na59ixpUAhtSSI+hPOkMZBC9i5hdxd+hY8+G75s2cGXUvUyGEEE7L+E23d/T7JQ9fAKirAWTt6TqG0l/Vi3Q+eswdv07gD8H8Jf856za4mqgQQgjHSItwB2ececrNNtsnAfwO9tA6ZJD6iA5kBWvnr08DqaXB2yeOdTtXIYQQzpBCuAMi4vnzT33WG7OOZ6KzAbwMoHuny1jB7llLh3wYpLyOnWMwMJuU+Zf+22eMiUvSQgghRkW6Rvdg0aL6rLy88BiDzXFaI4s8SiuNXgvRFtO0u76B6+Z6wrwYgPmpFzNe9fvtb9DpH7XFP3MhhBBDJYVwFLgeRqRj6hMMnLirfyZDP+0rtE+heRt64p6cEEKIIZGu0VGgebB92jOfGF27+me21ZeiPcZNXF+zx8k3QgghEkcK4SjRuR80qqq+n4J3vWepttQPwu05l8c7LyGEEEMjhdABnvcKH4ER+/Nu/pnAdEl06YTT4pqUEEKIIZExQoeE6sfXocv3MjTtbulEj2mH5nrO2/xcXBMTQgixR9IidEjWvE0NRjauACO2m0sKLDPrgcit0/aNa2JCCCH2SAqhgzxWtB4Gv77bCxiV2mPdG3ygpjqOaQkhhNgDKYQOotM2hs3e8K8B2l2rEGDjQEW+2/nFWn8cUxNCCLEbUggdZg5sfoEM/fSeruEB8yvhlf5fxCsnIYQQuyeTZVwQeXDydN2v3gFhT62+GJh/5D977YNEwz8YWAghhDOkRegC74Z1a8gXW7yX8uYhpt9ZT4w7LE5pCSGE2AVpEbqE3y4aF36r/FUA4/Z4IfFK0vwVObpJCCESQ1qEbjmgq5G8kZvAe2kXMs1khcV8w2dy4pSZEEKIHUghdAkR2DdO3Ucm3t3rxayOj/j4qjikJYQQYidSCF1Ex23oMcP9vwAosrdL2RO9IHTvlDPikpgQQohPSCF0mdG55RkyontcTvGJCN0YurX2aJdTEkIIsQOZLBMH4dumTWGT3wUje+9X63Uq7Puqb8EHq93PTAghhLQI48B/3odrQfYtQ7taTeYs+66um/YvdDcrIYQQgBTCuPEP+G6ATWuGci2z/my2L3gLB2Z43c5LCCEynRTCOKELV3Z69u26EvYe9iHd4XJNdGq0LHQJs3RfCyGEm6QQxpGhsx6nHGtoE2cAaOVdGH12/NfdzEkIITKdtDbiLPrApFk6aDzPQNGQXsC8VSv6as78NW+7nJoQQmQkaRHGmed7H71nk30nMMSNtomqSPHd/GBFubuZCSFEZpJCGGdE4Oxi79UgWjvk19i0X6g3//f8YIVswyaEEA6TQpgANG9Vv0fZPwNgDfk1hvGVSNT3cxfTEkKIjCRjhAnCgaPNcHXTI7CMeUN/FVnKjpziO6+hfndXBAIBBRylKivXUnPzFL7yyqNtIpLzDoUQYjekECYQ/2vClPB68xVoqhjyizS16qkDX875fONbAPD7Wx6uMbO9R9psH661nkakCsDswWBr3wYQBTAAom4wWoh4iwavJfKsU8q39oc//GqfK9+cEEKkCCmECcQMitxa/RP25C0CeK+/CwULFgx7vd7nudfNucsU8+dBOABAFobXza0x2C3bx8ByMF4izU+FrKIPfvzjE/e2QfgeMM2du1QVFXUpn+8DZZp1CgAKCnp3+b319OQz0AhgLAoKehmAXrlypb10ab0GpBUrhIgPKYQJxrfPyA0r+0kAR+3mChBs7kWxtYbm6LU0x4gg2/Ag4vTvjgG8z0SLs7PtP333u9/t3cO1dP75gbysLOTHYmaVYaDa47EmMqMOQA2AEgD5AHIA+ABsb6EybS9wGoOtVRuAzUyaSIeZqYsIHURo0po3E6lNWnMDEW+NRKh3y5YZfUuXzrMd/r6FEBlOCmESiN0x8bMWm8+CkLvj1xVi3I1Sazl9TjfQfqaGYRhDn18zUhrgF02vOuO0076zcfBLTAsW/LKIyDc+GvXNyc3tORSgfQGMBVAMdyddaSJ0M2OrbasNpqnf05reYVYfZmfbjYFAIOjivYUQGUAKYZII3z1hEUe9C0AMAsMG2+/ScdaH9FnThmkoxKchpJSC1tqORiOvNW5pfADgSbZtzjSM2DQAVUScy3vvxXWbBtDJTJsBvEmElwF+89prr9wkXapCiOFK+CeaGMT/Ls0LryxZrrRd24mS6Ivq++hFqceA5frviIhARDoUDlrdPV0cDA4Ytq0NGrxzKrxHbGb0EeH9aNT7WHZ28KmrrrpqXaKTEkKkhlT4kMsYzXcfcXC7NebZ12huvgHLcPNeNFjl2LJidm9fj93d06UsK2YqZaT0e4KIwUw2wO/YtvmIYdiP+/1oCgQCrvcpCyFSU0p/6KWbh//49I/6e/t/Z8AawgG+I0NEYGZ7INhvd/d0IRQKGQAb2wtj2iHi3mjU8wwRHsnNtV4OBAJ7mgQkhMhA6fnpl2ICgRfNadN6ftDbPXArEfnduIcixTEravf09ti9fT3KsqImEVEGvQViAL+ntfGg1rr+xhsDrYlOSAiRHDLmUzBZLVmyJFtxzrUgdSYGlxo4iKAU6VAoaHV2dyAYHDCYoYgy+vfOABqYcZ9SkSXXXHNNW6ITEkIkViZ/ICbcsmXLsla+33ALFJ0OB5cgEBEYbPf391mdXR0UiYY9ipT8rv8XA9gG0K3hMN/xu98FuhOdkBAiMeTDMUECgYCaWLdfIBwOObaRNhGx1rbd09ttd3V3KsuyTKWkAO4NM22IRDyBwsLo3wKBQH+i8xFCxJd8SCbIXXc9fAKx+hsc6A4lUhyLRa2eni7d09dtaG2bRHKwyDDZAF4msgM+n/FaIBDQiU5ICBEfrk7RF7v2bP2zxT0Dwb8S0agO21VKcSwWs9o7WqzW9hYjFA56AKh0nQHqMgWgDqCTQiFv2Re+cOSbL730UjjRSQkh3CfNhgTY0te/kJSaONLXK6XY1naseduW6MbNG1RvX48vnZdAxBcVeDyxBeEwXjr//OuPSHQ2Qgj3ySdnnC257aHZyqNeAKhguK8lIrYsy2rvbLV7e3s8SpEhv0L3KKXD4XDWdaapfnv99ZfIcVVCpClpEcZRIBBQvmzP2cMtgkTEttZWW0drtGHTetXX1+tXSkkRdJnWyu/zha8kCv/pvPNurUt0PkIId0ghjKPCwsqaaFSfMNTrt3d12p1dHdFNmzegu7vTRwTpAo0jZgIRn5Cd3fXceefd8LlE5yOEcJ4UwjgqyM0/nAhVQ7lWKaX7+/siGzev1x2d7V5mbUoBTByl9MS8vIE/L1hwzfy5c+tlkpkQaUT+oOMkEAgov7/sZ0rxfnu6jojYisViW1ua7K7uDi8zjAzfCSaZZJmm/YWiojZ93HFHL3vppZdkiYUQaUBahHEyduzYHMOwZ+/lMru9ozW6sXG9EQ6HfSS7wSQjDxF+1d9vXHbmmUs8iU5GCDF6UgjjRGtfAQG7nHBBRLCsWGxzU4Pd1d3lJVLSUk9uZJr2L/PzO26+4IKbChOdjBBidKQQxomHPOMB+tTxSkSK+wf6IpsaN1IsFvNKN2jKINOMnuXz9T562WWXlSU6GSHEyEkhjBPymJXM/D9fU0pxR1dbtHnbFg/AZoJSEyOniPh4Zt+iE0542uGTQ4QQ8SKFME5i4UjhTrM+7S1bG6OdHW1eko1BUxkR8XenTPngikAgIA8zQqQg+QCOE83aBD4eD7Rimxsb7IFgv4/kdIiUx0zIygouDIX4YllaIUTqkSfYOPF4PLZtax4Y6I9ta92qmNkj6wLTChHRL6urN4UBvgkg3vtLhBDJQFqEcaLI7O3u6bK2bmsymWU8ME2Zfv/AL3/2s+u+kuhEhBBDJ4UwThq3bi1qa2/xyHhg2ss1zfDtl1xy7cxEJyKEGBr5UI6Diy/+5TH9/R2/la7QjFFNFLp77tz64kQnIoTYO+mic1EgEFDBIL6mFN8J4FNrCEX6IsIhJSXbrgVwZqJz2ZP6+nqjty1Sp7K8tXbUHssKWVrrVtvWK8vK/OvnzZsXTXSOQrhNmiguCQQC3mDQWKCUvRBAXqLzEQlhM3u+e911Cx9NdCI7Y2a6++5HjzJILbBt+xAAxfi/B2MG0EVE/yXDuKOxcdXjgUBA9lUVaUsKoQsCgYAZidAtzPwjSKs7oxGhpacn//DFiy/8KNG5fKy+vj6rp8v6JYCzAeTu5fKoIvxFDUTOOW3Bad1xSE+IuJNC6LCFC6+qtiz7PiI+LtG5iOTArP6ZlaW/HggEgonO5eGHn84P9XfdDaK5w3oh0xvKg2/88Iff2epSakIkjEyWcdDFF/96qm1bf5ciKHZEpI/t6/P8COCEPngyM4WDfTcOuwgCAPEhlqXvfPDBB3NcSE2IhJJdMBxy8cVXTCeiR4iwt6OWROZRhqFnz5799jNvvvlca6KSKC+Zfrxp6t9ihD1BBJqk2Wx54ok//8fh1IRIKGkROuDii686UCnjL1IExR6U5+QMXJeoMwwDgYDy+vRC5lH9zRts84WPPPJIkWOJCZEEpBCOCtP55994kmlGXwBoeqKzEcmNGScUF2/7WiLuXVk5aSaAWaOPxHXBPnXs6OMIkTykEI7Q0Ue/aC5YcO1Zubn9f9BayfIIMRTEzNdecsm1BfG+sdaeg7D3GaJDQ1rGwEVakUI4AoFAwJw48cP5Pl9kETPkHDoxZEqhrq2t4NJ4T5xR0BPh0Cxx0/RMdCKOEMlC1rgNG1Ms9ovTy8u3XcdMWYnORqQWZlB5+dazr79+8eqyoj+1R7UmZu40DGw444zvtBK5c2qFMuw8zR7YMNiEpRlENkzyIDLs4mjFrISMcwrhFimEw3TeeYu+yUy3MJO0BMUIGQX9fT13FRUUkQIUCDFo9P/+zj+8f/ddf/gblPnoGWfM63Tyjh4K907Qb0dr+V3KQx9pKG6nCv0OnYBelHkV7CHHIpKeJJFeZEH9MCxYcM3ns7JCT2itpCUoRoVZc2lJeayosMTL/KlGYL+GfsSv1OKw7lt91llnxUZ6n+7F+xZlewa+rWx7oc1GtcaOjTmGgZD+O11gd1CVhzC0xihrfubMs085caQ5CZFs5MluiBYuDBzs80UekCIonECkqKurQ2mtd9UUy1VQZ0U1linKu/vRR5+aMtz4/bfPGBO+Z/J8HyKv2pZncYz9OxVBYPA52KtKsEUNZ1WFMui94eYjRDKTFuEQXHzxddOVCv5FlkgIJ2nNKCsti+6mVfgJImo2vealkUjnH/fUOuQAVLR20nRt42RE1TyA9jpBRiHKT9PZVhuNHVKLkJkjdRNrDj3uuKPe3evFQqQIaRHuxTnn3D7GMEIPSREUTlOK0NnVqYA9D9Axc2U0HPu9VxXcUb+k/lNLL5hBwcXTD4lUTf6TDhmvIGpcDtAkDOFBtw9FVgvVGkPuFmXzyQ0bcj4Y0sVCpAhpEe7B3LkBb12d8ZxS9pGJzkWkJ601KsdUR/Ny8/fYKgQAZmbDUG9r8Bk/+tHJy7keRnig7jAi4+ccMo4EhreUx0BEP0nnWu1U4x1SaxBoz8r2f/7UU096fzj3ESLZSYtwNw444G1PaWnRzYZhSREUrlFKobOrXQHY63l/RERa80HQeOFPd906P9o57n6EfM9zyDgOwyyCBJuX0UlWK40fUhEEEFLAZVIERTqSQrgb++337plFRR0/5MQeGCAyQDQaM0Lh4NDXLwAl3Vx2xxoc+i1FsWEvgSLYfR/SgX9bhUNiBqyhvKQzryB3QX6Red9w7yVEKpB1hLvwgx8sPqKsbOsvtVaycDhBiBjMZAPYZtvGFqXsJmZq0NpsUcrqtG1Pj1J20DBsi1kTYICIKRTK8vp84TyluEhrKleKxwGoY+axRFQNwJvgb+3TiKm7uwuVY3J48HvZOwWNN+hrRgFaYxXc5B3GrM9m8vA5nnz7aV8fHQttLLS1fTDhU1NKASBMhH8qpqu//e2vvDnk70eIFCPNnZ2ceeaS0oKCthcMw9o30blkEiKAGe22bb5rGNZ/wuGsd7ze6OpYzG4ZGKgMd3UVRZYunTecVtMnoQOBgK+7G36/H6XMNBPgQ4hwGIDZRJybFK1+Irt27AQ2DGPID6cMQi66ra/om8kA7/1INeKVyjK/5Ttv1cqPv1RfX58ViZhTgsHg4Qp0GJhKyKANZOv/Kh+9lpNjbpg3b150hN+VECkhCT4BkkcgEDD7+817PZ7YqUnx4Zi+GOAgM1qJ6D9E+uVYzPdqbm7sw0AgMKS+OicEAoHc9vacg3NzB74C0NeIuIY5MWd0MjNKS/a+lGJnNjzYj5+LzuIXvHtIPQrS9/ttz0/p3FX9jiQsRBqRT/sdnHfezSfn5XU+IkXQFQygFcD7zOo5Zv2S1jmrb7zxooFEJwYA5557W4nf3/MNrzd2FjP2RwLGzz0eb2x8Ta3Bw7y3gm1/Q18HH2K7qoSbFevLvK3V9RR4KW4PGUKkEvnE3+6SS64dRxR+A0BlonNJL9wD0Kta02NK8cvr189oGGEXZ1wEAoHCUIjmMtOlSukJ8bw3M+txNbW21+sb1ti0BS/m8BPRGfz6jmOFmqAfh1dd5v/hmjXOZytE+pBCCGDu3Hqjqqrh4ays0LcTnUs6IGJt2+oDIv1HZvNv2dl2QyAQSKlxpvPOu67K749d5vHEzmAmfzzuycwoLCiKlpVWDKt7FACy0RObp681LfgJhFaQvdA/EH6ELmwKuZSuEGlDCiGAn/70um96vaGH5WzBUWEAA1obT8Vixh1dXZVv3n//aeFEJzUagUBAdXf7v+D3h28DEJfWoVLKmlA7WTHzsLpHY/Dpb+tfBrM49hhVDFzpO2lzAw11uxghMlzGF8K5c+vL6urWvKCUvU+ic0lRGsBGremPoVDRfbfe+uP1iU7IaZdf/ptK27YeIOLPw+W/Ga01j6uptXw+/7C6RzWbqDXf++EXzrj6XrdyEyJdZfqCepo0adVZUgRHxGam96NRz49DIc9h119/5RXpWAQB4OqrFzZnZfE3Lct4GHC3lUVE1NPXw4qG96epyMJGe7+kHXsVIpll9IL6hQsXjrNtnJ/oPFKMDdDrlmXebprqH4sWXdaV6ITiIRAI9F5yybXnA3YJANfO4iMiDAz0KS4bYwPDW8qhoGtdSkuItJbRLcKenpKfAChPdB6pgAh2LGY+aVnG8Z2d/IUbb1z46LXXZkYR/Nh1113aYxjmOQDWuXkfy7KMSDSy171Hd+bxGFVu5CNEusvYMcKTTvpLzdSpy9czU/JtuZUkiBgAdTHz33p7C29cvHjB6kTnlAwuvPC6Y7ze0BMAct2Iz8woKiyOlpVUeDUPox4SPf6jM7/zNTdyEiKdZWzX6NSpyy+SIrhHXV1dRX8cGMi57aGHfiQFcAeLFl3y4mWXBW5hxuVuxCciBEMDxGCNYfTaMHOOG/kIke4yshBeemmglhnfSXQeSaoXwJ+jUf8td955gRy5sxtNTTlXV1cPzAUw2Y340WjUsCxLG4Yx5EJIhJRaqylEssjUMcLTAZQmOokkYxOhPhjM/Zzfj7MWLbpUiuAePPTQRQNKqV+5FZ8ZFAoHmWgYoxfMm9zKR4h0lnEtwosuun4MEDwFGTw+upMYs3pVa/MXGzdOeiOZtz9LNl6vfiIcxgcAXFh+wxQMDiAvN58xxPeqodSHzuchRPrLwBZh7MsA6hKdRRKIMtMrRPhaVpb+wg03XP6aFMHhCQQCvdGo72E3lhYSEULhEPGQ91ojhGORtFzHKYTbMqpFGAgEsoNB+7uQ1uAKZnV1NJr7+E03XSh7UY5Ca2v5Y9XVTRcRcYnTsS0rpizL0qZpDuGBlbXHY0p3thAjkFEtwp6erBlK6UMSnUeiMFNbLOZdSOQ99rrrfvGoFMHRmzSpcT0RL3MjNjMoEg0zDe257aMzzjhlixt5CJHuMqgQMnm9oblARm6szUR4MhxWR+TlRa+95prL2xKdULoIBAKWUngMrmy9xhQKBRlD2Tyb8A8aXPgphBimjOkaXbDgJj8Rvp7oPBKgDcDl11wTuDvRiaSrUMj3is8X6YDDM5EHxwmDQ3lYZQb+4uS9hcgkGdMi9HiCM+HSmq8kxcz0H9v2HH/ttVIE3dTUNLFBa+XK4bexaIy01nvbXmZtdli/68b9hcgEGVMIiSzXNkpONkRs2baxOBgs+vINNyx8L9H5pLulS+fZSvFLbsS2tU2xWGy3hZCZkZ2d/fQp55/S58b9hcgEGVQIcWyic4gHpXRnKJTzvZwc+8Jbb/2xjAXGSSzmew2A5UJoFYmGdzv2R0ThUKT/LzI+KMTIZcQY4dy5SwqAbfu5fJRcojGANw2Dz/jd7y5emehkMk0opN71ejnCTI7+TRERwuEQCvIKscsNuBkvB4PFbzt5TyEyTUa0CCdNatoH4OxE5+GiCIDb/X4c9+tf/1qKYAIsXnzxtljM2+B03O2FkHbT4gspUot+/OMTI07fV4hMkhGFsKencAZRerZ+mdGpNZ3t92NBIBDoT3Q+mczjiS13I27MipHmT0+YYcZTjc0VL7hxTyEySVoWh515vbFpzGm5m8zWgYGcU2+77SL5MEwCzPQewCc7Hde2bWXbtlbq/55bLcveEo6qSwKBY9wYlxQio2REIfT5Imm3t6hSep1tm3Nvu+0i2VYrSRDx6qHuDDo8rKKxiOX3ZQEALMvunbnv1FOOPPLgDW7cTYhMk/aFMBAIqGAQY4dzmk2yC4f9K3p7y792772nywdhclmLwUlLjr7biAiRSARZ/mwQo7W3P/jtI488+GUn7yFEJkv7McJQKJSnFJclOg+nEPGGYDBnnhTB5GPbWc3M6HE6LoEQs2I2gPezs81vXXLJWS86fQ8hMlnaF8KursoCgPyJzsMJzNTT359/yl13nS/nziWhUKgpSgTnN74mQjg88PdwNHrsd06d68rCfSEyWdoXwtLS7nxmToeNtm1m49xbb/3pG4lOROxaSUmJzUxb3YgdjUbbzjvv+x1uxBYi06V9IQyHzVwieBOdxyixZXlvzs62/pToRMTuBQJX2kTc6EZsZhhuxBVCZEAh1NrIRopPCopGPf82DPWrQCAgU+WTGrFtm44vqt8unTeEECKh0r4QRqOewlReTE/Enczmz6677lLHJ2EI5xmG5UrXKDPy3YgrhMiAQpiTE8xnTtnvk2Mx76033XTJfxKdiBgaZmp2Iy6RFEIh3JKqBWLIlOKsROcwUlqrDcFg4Y2JzkMMXU9P7jYAezs/cNiYqcDpmEKIQWlfCIGUnSjDsZj3isWLz5X9Q1OIYXAnwG6cDZgXCAQy4e9ViLhL+z8spdiT6BxGaHlBQfixRCchhofIjgEUcj4u5/T05KfDMiAhkk7aF0JmnarTzu8MBALhRCchhsfnC0UBuNEi9EQivan6XhYiqWVAIaRU/PDYZhixpxKdhBi+vDxEATjenc1MnJ2dk9YnSwuRKBlQCFXKbbfNjFfWrl3ryjR84booMw04HZSIQ7m5AzGn4wohMqAQqtT7Dlkpenbp0qV2ohMRw7dy5YwYwG6s+ewIBAJRF+IKkfFSr0wMk9a241PZ3USE/tbW8vcSnYcYmaVL59kAupyO69YepkKIDCiEhkEp1bLSmjqKi/tcWZQt4kMpuNE12ul0TCHEoLQvhAClWIuQe3Jygt2JzkOMHDMcH8sjgswgFsIlaV8ImSnVZtq1yLKJVKdbXQgqG64L4ZK0L4REnFKFkAjSGkxxtm22OB1Ta+dbmUKIQWlfCFPtW7QsQ1qDKY6IXdhZRssYoRAuSa0qMSIpNUQIpeyUmtwjPk0p2/FuTNs21jodUwgxKGXP6Rsq2za1UqkzvEKU0SeR0/nnn+/1+XymUkr192ezz9djNzU1RVNpXaVtA4aDv0UiRkdH8YfORRRC7CgDCiHZqaQnMoMAACAASURBVLSongj+ROeQAN599tnnsMLCwpPXrFlzKIBaALkAYgCamXnFvvvu+0RHR8dft27d2p7YVPduw4Z1xuTJUx2Lx0y9995752rHAgqRnKioqCg/FAoVMrMPACulQqFQqAtwfknSjtK+EJqmlVK7cTCjMNE5xFN1dXXN+PHjr83NzZ0HYOeTQjwAxhHRuMrKyi9VVFT8pKio6LKVK1c+iSTu8yYiRx+9iPA6sCql3sdCDAONHz9+VllZ2Q+Ki4uPxOCDcD4AJqJOZl7f1dX1XHt7+8MNDQ1r3EgghdpKI0Pk/AbILis7//zzM+K4naqqqrHTpk1bmpubezI+XQQ/RSk1o7q6+qFZs2adhiR+7xJpR2cqr1y54hkn4wmRLIqKigoOPfTQ66ZOnfp8cXHx+QD2A1AAgAAoZi4FMKeoqOiKyZMnv3zooYdeCiDb6TyS9sPEOdwGpM7UcyLke70leYnOw21HH320f+bMmYsMwzgEg2/6ocovKyu7cdq0aYe4ldtoWZbHyZm/4fXrP5STSETaqaioKD/wwAOX5uXl/RQYUk9YRV5e3lXHHHPMvcXFxflO5pL2hVBrsxvglOlWYkaBZWWVJDoPt40ZU30CEZ00wpcXjhs37gYASdlyDgapnYgdmaEVieD5lStXbnYilhDJorS0NG+//fZ7mIiOw/DqkOHxeL41ffr032IIvUhDlfaF0DStIDOlTIsQQEFOTrgq0Um4KRAImJ2dbfMxuvffYZMmTTrUqZyctHLlv9uZHRnc18uXv/kQgJR5kBNiKKZOnTofwHEjfX1OTs73P/OZzxzhVD5pXwiZYSmVvBMrdsFjWTwz0Um4qampqwTAkaONU15ePteBdBxnWWobs+oYfST68MMPl/9r9HGESB5VVVXZOTk5PxtlGE9FRcVZjiSEDCiEhmHZzKlTCIkYkUjWbIBT7kDhoYrF+g8ERr9MxO/3H+VAOo7btu2j9o6OllEvgG9u3vzwli1bHCioQiQPj8dzNIDy0cYhouOZ2ZEVu2lfCDdtGm8xp84JFMwEvz+8fyDwy7SdMNPX1+dIi9c0zfFOD5o7hEMh+5VRBWBsef31Vx90KiEhksW4cePmOBSq8K9//WuNE4HSvhCOHdsQdmriQrwQ6SnBoFGZ6DzcEgz2VzsUyvT7/Uk5nvr22689B/BIxwl527bG+9euXbvF0aSESAJKKSf/ZkfdsgQyoBB6vd4+YO9nuTHzJ/8lHuUwc1JOBHECMzu1aYBSSiVjixBr1nzwXigU+WAkr9WaO59//u07nM5JiGRAREk37JP2hTAQCAwA2OWJ79uLnu33+mL5eQWRwoKiSF5uftTr8cYA2MyJ61E1DP3FQCCQlr8fB/dTJSJKyiUUAKwVK/5783BfRMTYtq31uqam96U1KNISMzs27m3btiNbLqb9FmsAmAj9Ozf0tNa6pKg0VlhYrAzD+NTPwbYtu6+/L9LR2a60tjwO75o1FMd2dCAXQG+8b5xKnBosd8MLLzy39JBDDlugNR00lOuJYDc1df7uoYfuGHYBFSJVNDU1rZ44caITofrLysoanQiUli2OnWmNT86HYzBM04xNqJ1klZSU+5RSHmamnf9TyjALC4p8kyZMUWUlFWEisuLZbUrEpUrljXidjUgK1qOP/umHRLy3E+vZtvWG11//7zcfeujWiyHrBkUai0QizwEY9bwN27b/ccwxxzgy/yMjCqFSg4ubmRlZ/qzYuJo6MgzTu7euT2aG1tooLCz2146byPl5BRGOU38pM8E0IyfH417xR8kwEBsXGzZ8uGLlyrXfB7B1N5eE2ts77nn00T8d8dJLf38MSbyZuBBOaGpq2hKNRh8fZZjYhg0b7nIkIWRIIdSaOhkMvz8rWjVmrCKiYXUJMzOUUp6K8kpvTfV4y2N6Ysxw/cPc44kcGwgEknJW5Oik7xrJXXniiT8++/e/P/W1WCzyLwAhAAygta+v9/GXX37563fffetZjY1rdlcohUg769evDwDYW0/JbkUikUcbGhpeciqfTBgjBGBt9HmzYjVV4wxg5BM1mJn8Pr933Ng6u6OzPdrZ3e5R5OZph5Q/MGB8C8BN7t1DxMPKlW+91dW15aslJZXjqqur8tatW7Vt/fr1LZBuUJGBGhsbV2ZlZZ1VW1t7L4Ci4bw2Eom88Pbbbzs6hJARLcLy8or3x1bXAqMogjsxSkvKvONqai1lKMvFxiEB+OE559ye69YNRPxs3bo1uGLFfz989tm/v7V+/fpGSBEUmYvXrl37+IYNG75k2/b7GNqQQCQajS557733vjkwMLDNyWQyohAW5BbXwLkiCGCwdejz+r0Txk9GTnZuxK2uUsOwp+bmdn3VjdhCCJFA/NFHH73+/PPPH9bc3HyOZVmvA2gDEPn43wEEAWwJhUJ/bm5uPv6ll16a39PT0+V0ImnfNXrvvfVlsai9QBG7UvSZ2awaU6O6ujujHZ1tJhwuuADMWMw469RTH3zsoYe+58SJBkIIkUyCK1asWALgnvLy8vFa65r8/Py8vr4+TURdzNzQ1tbWArjX9ZbWhbC+vt5QlHNFZ0f3Z4Z39uvwMLMqKiz2+ny+WPO2LczMjv5c/f7IIePGffR5AKOdaSWEEMnKam1tXQ9gfXu7I+vkhyytu0bD/dZRnR3dZ8RjSx9mpmx/jnfc2AmslHL0/ENmeGIxz4Vz5y7KcjKuEEKINC6Et9zycL5lmzcQUXa87slgmIbhqRs/iUzTjDk5bKiUfeT06d1fdiygEEIIAGlcCHN95im2tmYn6PbmuJo68nl8MSd3o4lG1a8CgcCoz/FLvMxZUC+ESH5pWQhvv70+1yZemMgciMisrhpHnsENvB2KydN6e7PmOxUvcTJrQb0QIrmlZSH0GLEfgtmpM+9GzFCGWVM1DkRkOxGPmeD1hi654IJrap2IJ4QQIg0LYX19fS4Rzk90HsDgmKFhGJ6x1eNtrbVTe0iOMU37V3Pn1iftqQtCCJFK0m75RCziPQmwkqrF5PX6vGPKqyItbVu9RGrU3YKmac2bMmX14wD+4kB6QgwVAfAVFhb6Y7GYX2vtYWYPMyv870M1A2AisojIUkpZpmlGenp6Ihg8JDtVNxYnAD4Mfm5aGFz4LePdaSCtCuGSJUs8weDA9wBKqtYSMyM/v8AbigRjvb09XgdWc/hsm3+zcOFV//nNb65w5DyuDEUVFRVltm3XjB07to6IJmqtKwGUbp9t7MH23S22Hya6BcBHLS0tG/r7+zf19fXFd7FTfHkKCwur8/Pza0pLS2cw85SCgoIJPp+vjJkLARQCyALw8c9px88SDcAGECGiMDOHMHiuZq9t252dnZ2bmblBKfVhQ0PDRq11kxu7hTilsrJy/JgxY07w+XxHFRQU1GitfUqpSGdnZ5NlWS83NDQ8093dvcnp+5aWluYZhlFbVVVVB2AyM9copcoA5DCzQUT29p9tGwZPN/mosbGxIRKJbE7B92bW5MmTD8rLyztCaz2NiAowuAXhJiJ6c9OmTa91dHS4dlh1WhXC7OzKfUPB/oOScSYGM1NZSYURDoViMSvmcSDkVMvSVwcCgdMCgYAjZ3JlCKqpqdm3pqbm86Zpfi47O3s6gAoAOUMNUF5ePgBgW19f37uRSOSp1tbW55qamlL+RPmCgoKiioqKQ4uLiz+flZV1qMfjGQegDIOFDsDgQ90QfNxC9DDz/+yTaxgGysrKPvn/0tLSHiJq6e/vX21Z1qubN29+sbm5eTkcOK/OAeacOXPOKygo+BmAamDw+yciMDOKiooA4NulpaWNnZ2dv/vvf/+7GIMt3hGrqakpLi4u/lx2dvaJeXl5c4ioGkA+hrgjSFlZ2QCAbeFweGVvb+8/2tra/rVly5Z1SOKW69SpUz83ZsyYgM/nOwjArmbF69LS0qaenp67169f/7v29vY+p3NIxpoxYrff+qcrvV47kOg89iQSjUQbmzaa5MCR90SwW1srzrznnrPvdSK3ePniF094WGv7FAdCxVatWnV8U1PTUI5j8c2cOfPrFRUV803TnA0gF868/zWA9lgs9tT69et/u3nz5pUOxIwnNXHixKPHjh37PY/HcxwR/U/hS4ABy7LWDwwMPLpu3bqHOjs7mxKUh+fwww+/KTs7+ywMrcFg9/f3P7Rs2bLzAAx7K8TKysrxkyZN+nFWVta3MPhg5kQjhQH0RiKRN7u7u5e8//77TyK5NnpXhxxyyLn5+flXYbDY7422LOvldevWfbexsdHRY8vSphDec8/jedoaeBHAAYnOZU8UKW7vbI11dnU40UUKw7AHYjHf0ddff8XbDqQXF3EuhNkzZ86cW11dfQWASQ7cc0/sWCz2h3Xr1v26qanpIyTxU3hBQUHR5MmTTyouLl4AYGai89mNEBH9ae3atdc2NDSsQ/zGFumggw66sKio6DoMc+/ggYGBm1577bWLMbQWLVVWVo6bPHnyxX6//zQMdjW7hojWNjc339DU1FTf2dnZ6+a9hpLOZz/72dNzcnLuwPAfvN5ctmzZV/r7+0d8nuHOkmosbTROPvmU6dFIdCGSvLuXwZSdnYO+/h5baz3qnz+z8hLxnPLy8x9fvbq+34kc3TZp0pSvM+vPOBBKt7W1PdTb27txF/9GNTU1B8+ZM+e+/Pz8CwAUO3C/vVGGYexXVlb2rcLCwv7m5uYPkBxdfJ8oLi7Onz59+vcnT558V3Z29ukAyhOd0x54AOxfUlJyanFxsb+vr29FNBoNuX3TioqKutra2rsAFAz3tV6vd1ZOTs5LLS0tm/dyqX+//fY7fcKECQ+Zpvk5xKcVXpKbm/uVqqqq47KysppbW1sbkKCJS2PHjp1YVVX1BwytJbizmpKSkuzNmzf/Ew7lnzbLJ2KRyLHM7Et0HkPDxpiKanZuSQV/ZvLkFYsCgUDctpMbHdcX1PtnzZq1YMaMGU8T0dEu32tXyktKSm456qijfl9QUDCsQ0ddRHV1dUcceOCBz5SWlt5BRDOQOj1CBUVFRT8/8MADH5syZcp+bt9s7NixX8P2McER8FdUVFywpwuqqqrGHnHEEfdXVFTcAaBqhPcZjQOrqqr+fPjhh99RU1OTkPXWtbW152AUD2HZ2dk/qKmpme5UPmlRCAOBF81QOPq5OOyt7QhmwO/zewryCyyHtmAjIswNhfDzQCCQ1C1itxUVFRUce+yxS8rKyq4FUJLAVEyfz/fdWbNmLa2rq6tIYB4AkHXooYcGJk+e/HcAhyE1/+7J4/EcXltb++SMGTOOcPE+3uLi4i+OJgARnVhaWpq3q3+bNGnSITNmzHg2KytrHhL7e/BlZ2efPmXKlGcnTJhweJzvbWZlZX13lDFypkyZ4sTwCoDU/IP4lLKyNj8BcxKdx3AwM5WWVCillCO7zgAwiHBRb6/3x5m6hVlubm7ZAQcc8KRhGKcisRM+PuH1eo+dNGlSfUVFRUK6IMvLyyuOPfbYpXl5eVdgBF19SaimpqbmsX322ecwN4Ln5+fnAth3lGH8eXl5h+z0NTr44IO/PmHChCeVUsnSGifTNPeZNGnSkwcddNApiFNOEyZMmAUHuuRN03TsEIK0KISFufkzGFya6DyGyzAMs7ioxHbwdHvD44necNllv/yGQ/FSRkVFxYQ5c+Y8o5Q6HMnxIfMJIjpy6tSpd+yuleCWysrK8fvvv//ThmF8CWnyt75dcVVV1cNVVVVTnQ5cVVWVD2DMaOMUFRXtOAGJ5syZ84PCwsJHkNheit0pKCoqemD27NnnIA7zRgzDcOowhGkPPvjgkJc97Ula/HH0BzsOpuT67BsSZkZBQZHhMU2nWoUggiLiO08++f4jnYqZ7CoqKibMnDnzUcMwknbGsN/v/9qMGTMuRJz+5ioqKsr32WefegCJOoHFbXVTp079LYax/nMotNZlcOBBKjc39+PucHXwwQd/r6Cg4Ha4PCt0lIzS0tIbZ8+ePR8uF8PKykqndv4y/H5/jROB0qIQKgMHJTqHkVKkjKKiEu1gqxBaU8mECR/d/Y1v/CFZp8U7pri4eMzMmTPvN00z2d8Dyu/3Xzxt2rSdu8zc4J82bdqtRJTsP5NR8Xg8X9h///2/43BYR445+/gc1IMOOmhuYWHhzUjuIvgxf2lp6TWzZs2aCxd7VYjIyRncjnT3p0UhZE7adVB7xczIzys0TNNwrFUIAJZlTq6r27D0iit+PdnJuEnGGDNmzHWmabo5ecJJ2TU1Nb+Fy0t8Zs2a9SOfz3cSkqyL2AVmeXn5xU7OzGV2Znydmb377LPP0UVFRbcjtcZm88rKym6prKx0s3fFsfF7InLkbynlC+Htt9fnEsjthdKuIoJRUlRqa3Z2SY9pWtO1jv3rwguvmeVo4OShAIxLdBLDoZQ6eN999/2hW/HHjx8/vays7Aq4v542CqAPQCcG97rctv2/lu3/34XBHVbcXqc2ubq6eq7L9xi2rKysyVVVVQ8jOccE96Zs3333fbC6ujoVcx+RlJ9q7+NYCYO8ic5jNAY35S40W9tbLDj8O9FajfP5wk9efPFvvnf99Ze/kBynwydDDgmjysrKLsjPz1/a29vb6XBsc/z48T+DO4vkw5ZlrQ8Gg28x81sNDQ3riGibx+PpHBgY6K+srAwBQDAYVL29vV6/31/IzOWlpaV1OTk5B+Tm5h6tlNoHDo/pAUBNTc2Zq1at+j0c2MmHyJn3JjMf60ScBJo+bty4q7ds2XI2Uve0kCFL+ULo9XlURCfV5h0jZRTkF0a6e7pMp9dDMlOVUtE/XXbZry7x+QIPJH6T7oQv7+gB0AigY/vpCAqAn5lLiKgGI9vtYshM05xcW1v7/5YvX/6Ak3EnTJgwwe/3z3MyJoCBYDD416ampnt7e3vf2d3WXF1d/3N4RBiDp01sbm5ufhvAUgC+8ePHzx4/fvwFfr//awCcfHidXVtbO3Xjxo0fjjaQU12joxAEsKKrq2t5LBZbSURNRNS//T1aSEQTcnNzZ/v9/lkAauFi93deXt73J06c+Lf169c/69Y9kkXKF0L4zAGEYpzqwyHMjIL8QtXd06XhSpc1lTDzbcGgUXXmmUuuveuus2LO3yOpdYVCoSfa29sf6+7ufjcUCvV0d3eHMLgFGgEwCwoKsvx+f2FxcfH+48aN+w4zfxnuTHIwysvLTwbwRzi4CXJhYeF3MLiZuCOY+a2PPvroZw0NDcsw+q3iIps2bXp906ZN7+y///6nlpeX3wTncqXq6uqTNm7ceLVD8RKhsbe3956NGzcu3bZt2ybseeNuVVFRUVpcXHxYVVXVfMMwjoc7H4C+urq6X3d1dS1Lgr1JXZXyY4QbNixvB5BqZ2/tktfrM7xer5vdEH6l7EBhYevDl112ddneL08LPeFw+DerV6/e59VXXz199erVjzU3N2/q7u7uxuDBqjYGP+TDPT09XS0tLQ2rV6/+2z/+8Y/vrF69+mCt9T/gQteQUuqgurq6OidjlpaWOjVWZgeDwXveeuut4xsaGl6Bs/ulRt577717enp6LnUyrmmaX3AqVjwxc3dfX98vVq1atf8bb7zxq23btq3C3k+v0C0tLa2rV69+7Pnnn//yxo0bv8TMK+HCJu9KqdkTJkw41em4ySblC2EgENCa6f1E5+EQlZuTpx3adm2391DKnsccfe0nP7nuuDTekk1blvXimjVrDn3llVeu2H5sy3AKmt3Y2PjBv/71r6/19/ffOszXDkXRLnYfGbGJEyeWA5jhQCgdDodv/Pe//z1/+8OCG/jNN9+8y7KsF50K6PP5ZpaXlyd6K7vhev2jjz466vXXX/91U1NTJ0ZWyKy1a9c+s2bNmiMikcjdAJzu6VElJSU/LisrG/UmA8ks5QshABimej7ROTiBmZGdlUNxmkwyOSsr+LeBAfPKs89enCwbQzslFo1GF7/77rtf37Rp0+pRxgovW7bskoGBgb85ktkOvF7vYXCoSysWi+3rRKxwOPz7V1555Qq4f2pGrLm5+SoH4+UqpRzbhNllHIlE/vzGG298uaGhYbkTATdv3tz18ssvn9fb2/tLOFwMmXlKbW3tt5yMmWzSohCW5OY/ycxpMebl9XqJiOI0S4tyDMO6PCen84lLLvlVyq7F3InV39+/6KWXXrqoq6urx6GYkQ0bNvwUQIdD8QAAxcXF0wE4cmKKUmrUO2wQ0fPLly93tMtyT1avXv1vACscCuerrq5OiUIYCoUeWbFixQ9dmDUcfeONN67t6+u7Cg53kxYVFZ1RXFzs6iSyREqLQvj+h1mbADWUU8qTnlKGMk0znssLlGlahxPply644Hqnd+mIO9u2/7Bs2bJfYHDmomOam5s39/b23u1kTABj4dBOJgBGewRX67p16xa42B26K7q3t/evTgXzer2O7z3qtHA4/I/ly5f/2MXJJ/brr79+XW9v7yMOx51ZUlKSKhtXDFtaFMJA4BgrNzv3f8ZxeLCXSHsQtRikNcyUmFlKRPDEtxB+rNTvDz5w0UW/WXT66ffEdXNoBy1//vnn58PBmZg74MbGxnsxuCzAKVWlpaWOnCHJzKPJy2pvb//Vhg0bnGqdDVlHR8czcKj1wsxTnIjjFmZet2XLlh/19PR07f3qUYls3LjxQq31Bw7GpLq6ujMcjJdU0qIQAkDl2NwXPT5zGQAwFPLQFft/+nf2PH0NfVNfqz/LS6N53B6zkZAiMxyklEEuT5jZHY9pRhfk53fe+oMfBJxqqeyCK2OgoaampvMAuHaC+ZYtWzZalvWagyG9xcXFjszeZeb3MMKCEolEXnznnXfucyKP4dq2bdt6ODTrOzs7ewxGuSTMqQX1uxDdvHnzRevXr290Kf7/2LZtW9vWrVuvgLM9I18oLCwsdDBe0kibQnjMMcf0m2QsYlAkB92xL+vbUIBuDwFGFsLmJH7X92W+Vc3kV6IaRpIXw8Slx0zIzu47lajyTPfu4vwJypFI5E+rVq163em4O4l2d3f/08mAWmtHZjpu3rx5NYCRzJ7uaW5uvgiDC7njrq+vbwDAeidimaaZW1BQMKreDLcW1Nu2/cyaNWv+7kbs3Vm1atUzlmU5+X7NqqqqOt7BeEkjbQohAHiz7Kdyzf6/f1HfqUzYnh27QhkGDJBxED/tmc6vRbX7x26NFMcsi53eXWY4tFZqzJitv3JvraHjc4H6mpqabkMcJnls2bLlDTj4lE1ETu3nqLdu3fpzDLNbuLu7+4a1a9cmcvlRJBgMbnYolt8wDMe3cHOAtXXr1l8h/luVRVtaWm6Gg+/XsrIyxw7DTSZpVQhP6Lis8CTrmvJshHZb5RgedRA/ZeaiKyn3ZbNsS8di0YRXaWYqYI7NdyO20zU+FAq9un79+rh8mGutN2Jwc2mnODYT74MPPnimt7f35xjcKGCvmPnlrVu3LnLq/iOke3p6mhyK5TMMw8Uu/ZFh5n+uXr3akWUSw7Vy5cqXY7HY207FMwzjCDi7PV5SSJtC2HfHxHJTm/ex9uz1QFoFGDP5Ndt27jQQRxARggP9WuuE73e4HX8rFRbcB4PBJxGnKf9tbW1t4XC4xcGQTk5Mst94440bOzs7f6C1/gh76GO3bXvNu+++e1ZTU5NrY6rD0OpQHI9t244sR3EQb9my5X7E6f25C3Z7e/u9TgUzTbO0vLw8JZapDEdaFML+22vHeEg9DIUTh3K9hokK/khZ8CTVWCEz687uDiJKlumtXBOJYILjUZ39qQ+0tLS842jEPbOj0agjY1qAc+ep7UC//fbbj77//vtHdHR0nBuJRJ4goncBfADgvWAw+K/Ozs7ABx98cGJ7e/sah+89bOXl5RV+v9+pDR0MZk54b8pOtrS2tv47kQl0dXU9jiH2EgxBTmVl5WccipU0kv5pf2+C904ca0SMRzXTYcN5nQGLEjkpZWdEhK7ujlgsFvMlcnzwf5GfGTUA1iY6kz3ojsViDXG+p1NdeYBL3UxtbW3b2tra7gBwZ1lZWU4sFjNN07Tb29vjcUbgnpgVFRXTqqurP+v1eo/Lz8+fDWDUmwFsp7af0pA0IpHIW+3t7U61eEekqampc8aMGcsAHONAOMrKytrHgThJJaULYd9tM2ZS1KrXoGHvsRhEgUYSff/RaDTa3tHqIUqqv2O2bZXUO/bEYrH2lpaWeG+67uQYodu4ra2tP5EJjBkzpszn8x05bty4o71e7+cMwxiLwZMnnH7iS54n2+36+vpeweDG7gnV09PzYkFBgROFEACkRZgsgndMOZhg/xVM1cN9rUJEv0efJ597S86GxbbtWOOWjYpIJVUVJEKXYXicXJTruGg0uhFxbuHYtu32guhUpQBk19XVlZimeUBJSckx+fn5R2FwM/Bk67KMh1h3d7djE1VGo6ura1lBQYEjsfLz88dWVVVlb926NSFLbtyQkoVw4I5JswhUD2DYRZBg6bfohFgL1XlV4h/UOGbZK5q2bMpm5omJTmZHRIzOztJHliw53/EPfa0VO/WQTEROdlMOSWNj40BRUREjFbYqcpeZnZ1dVlJSUlNUVHRQXl7eoTk5OZ8BMBUO7aEabw4vqG/v6OjY4mC8Eevo6PiwtrY2Amd+L3mRSKQICVp76oaEFMLFix8pAmITPMr/GVOpfA3dzsraGIt5N86fP3frnt6MkSVTpmlNfwUwfrj3jcAT+g99w9xA+3sHxwgTSjPo/u4efXFvr8fn9apver3RcwEkxTZRzLQxO7vjGjdiG4Ym26FnECKK+/gLEVkY7IZL9HsoroqLi/MNw5hYU1Mz1TCMg3Nzc2d5vd5aDD6QJtcU7BFyckE9M3f5/f7Wnh6n9n4fuY6OjgEMjm078cCdz8yFAJKiyDshboWwvr7e6OvTxxvKOCUSiR2qyFsG6FyLNQFg2CpsKqv790v+sOL3S/74lKXDT5x99mkbd4wR/EfVWL2B/gqg3vIiwQAAGSZJREFUdpi3t8B4qFFNXbyODvy1F+EvOvaNjUzENDxX9gVzfnf55Sd+PJvrlp/9LPCoaWIeM52nFE9NzC5rADO1K0XfvemmXzi9O77j+vr6HD0RYii01jaScDzKYaq2tnacbdv7jRs37gCl1MFZWVlTARRjcMlHRj0EjMTAwEBbS0vL3g7ZjZcwETU71POURUS5DsRJGq4XwkAgoCZO3P+Qns7gtSAcqqFN9ek/IQKQhcEfcCXAx5nKd9Vdd/7xBX+27xa/3/r3MVU/96nV1r0MDGcNiw3gP/DoS/35617bd94a+/bbvzWXDVxOhAVwbuf/YeCtWTnZZ3z00fv/CAQC/zO2deONgVYAt59zTuB+v9/7OdO05itlHwlQFuK01IWZmsJh3yk333zJMuAX8bjlaHBbW1tfopNIcQTAW1VVlZeVlfWZ/Pz8g4qKiuYQ0QGGYZRhcFZrJo7vjZrWujnROewgZtt2u3JmGoK3sLAwp6Mj7s+grnG1EC5aVJ+Vnxu9IDQw8HMiyhrGSwlAHhF/NRwKfyUcMV9f1fbFFQerv39uGDEaKVv/xqdjD9BpGz/ZYujcc+f1A7j8zjsf/LdB5m8xOJ4Rj6dbDfCLppfO++53v/7hHq7jxYsD/QCeAPDET3961XitjRN8vsgJAGYDKIM74y9Rrc3nmfknN9986TrgUhdu4TgmomR54k4lZnFxceWYMWMOyc/P/1x+fv6hGHzATLsdQxIs3rOZ98RubW3tGTPGkYPmqaCgIK0233atEN5334v+WKT5ZmZ1OtHInygJIGjrsNXmZw/t56LoEfyo6cEeF82GYfBSqNjP/d9v2LS7i+bP/97T991X/w7b/FPbtk8D4NSej7vSB/AiZeb+9rTTvjqsFsxvf3vFJgB3Arjz8st/UwFYMyxLHWzbarbHE5sKYAwGu6tGOkbTD+C/zGpxa2v1E/fff5qj5/i5jJk5lfJNqKKiooK6urpj8/LyTvH5fJ8F4MiG32LXmDmpeiuIyLF8mDklJ0PtjmuFUKHjV0Q4Aw61tgxY1EjTff+i06Mn6juJ4dlVG3+9Il7oLTT/RvPW7nXz4dNOm7etvr7+0oHurEcsBM8D07cwuL7JKTYRP28z/fqss04Z9e4SV1+9sAVAC4AXAaZA4Jd54TCKLctbyUwTTDM2nkiPZUY5EfKZkcdMOUQ6h4i8ABQz2UQcZFabAft5IuO5SKRr1U033ZQca0mGh5nZqR0z0lZxcXF+bW3td0pKSuYT0b6Qrs64UEol1UOa1tqxczqZOa16D1wphL+/84FvRiKRn5DDW6QYsNGKOu879IXIAfwPn/6/RhCT4r8xrAW+szYMayf7efPm2QDeCwRenD++svlGNtR8y7K/TUSjeVpmgF8lphvzBzz/mnfhPBeKDHEggF4MHhS7EcD2I4iY5s6dp2bOnGkAMINBvxGJhAyiwTHGcNjL+fmkg8Hs8K23/jjViwgrpZJy8/QkQbNnz/5CUVHRtYZh7IP0L4D29hm9SUFrnVQTqojIyfViaTFL+GOOF8IlSx6qZKYbtrdAHGcghhV0lGcyv2Xlos8EsFXb6sqcs1ffPZq4gcAxFvD/27vz6LaqOw/g3/u0epMtS7Ycy1viOEASxxCTACWhmLSlh86hG90gA5MCTWHa6b7PTMrpNKczdCjTmSnDaSkHpoWUtJQOU6BQSHCb2NkXEtuJnViS5eVZkiVrsbW9d+cPmyGFBGzp6kmOf59zck7+iH73Huf5/fTuu/f3Qx+ALz7wwFPfKi1NXq/XGT/EudqhKKqDAcW48M8riZkzNYMAe15vNO/csuXDR7OZT+YY37kTys6dOxXkplM7WQAqKioqrrzyyu2SJH0WhbfDM80YC8Xj8cPBYPCp0tLSitLS0h/me1KiSdJ5tgXml7DlTMbYRXVvEZ4IjUbj1nRSme/xhvmSTrKN0at1v96JlHl7yedOnRUZ/MszT3DPA3j+ueeeM42NRZsBtUVNqZeAoVZiOqsKVS9Jkj+VVjyM8RN6vbm/tFRxzz5hkreRwy7gBEBVVVVLa2vrI5Ikbcz3XGZxAH7OuTsaje7x+Xy7wuFw9/j4uAwAa9asub20tDB244u8NgvtPRpjTOQu+YIuvThfQhPhQw89Xq0k1VtFxjwfCSr62TrPpGT40gfv/ZecvpC+6aabEgB6Zv8QAXLVBZwAlZWVq1pbW3+p1+vb8jgNFcCIqqqn/H7/oUQi0e3z+U76/X4XzrNKUUgdI0Rem4wxMTXNxGBWq1XYfERuvCkEQhMhU5WruKTXqlRYk4+vXw7giEbjEVLQKisr6y+//PIn9Xp9q8ZDpwH0KYpyeHR09ACA/W632xOLxSYwt+V5UfchVZKkglmR4Zzb8z2Hc+iNRqOodlfc4/FQIryQotKyTYnphKRRG6FSqInVoERICACY1q5d+0tJknKZBDmAtKqqUVVVDyYSia7R0dF9kUjksM/nC2Im6WWytChqPwHPcPycMJlM866FnEMmANWCYk1h5tjVRUNYIuScm3720yfbtOylpyjim8YSsgCx9vb2bTl6J8g552PT09P74vF458jIyD4AR0V2HpAkKQ8VnnLPZDJVWa3W8mAwmPdio2VlZWYA9YLCxRhjYUGxCoLIJ0KTxFiNqmGBTLPRmMtD8IQsCE1NTettNtvfCg7LAfSEw+GH+/v7n85lFwVVVUW9u1IKaWmUMWbT6XQOAHlPhHV1da8X3hAhEo/HL6pWZMIS4eTkpE5V1WItd2qnFKVgXrITkieG+vr6bwKwCIwZCwaD/+rxeP5TluWcd/eQJEnUDRoooKVRzrnV4XAs9fv9p/M9F0VR2iHo5pxMJicikQglwvPhnHMGpukJUs7UhVgNhRBhGhsb1xUVFb1XYEh5YmLikwcPHuyENg2PperqalGl3ngymSyYRAhAZzKZrgHwh3xPpL6+foOoWPF4/DRENRQtEMI6GlRUVKQ5oOm3BK7wIS3HI6TAsPr6+tsBlAiK5z1+/PimgwcP7oY2SRAATDMdZ4RQBVdPyZrdbu9AXrrc/AVJp9O9T1QwxtgxUbEKhcjWPnGdTqddYuJIl5aU0tm+BYgO1ItRVlZmKy4unk9HlreTlGX5K2NjYycFxZsrM4AGjce8oBxcm1c0NTXlusDI21q2bFk7xP2Mkz6fjxLhhTDG0ul06pCoeO84no6NmooNvVqNR8ShA/ViVFVVNQFidk6nUqn9x44d+18RseZj6dKl1QBqtR73QnJwbZbZbLYPC445L3a7/a8FhovG43GtvyzlnNBmr8k02w2NSu8woOu11/aPaDEWIYXIZDKtg6BC2tFo9HeYOR+mKYPBsB4XeTFwm822xeFwiFq+nheHw1FdXl7+EVHxksnkaa/Xe9Hdd4UmwooKfhTACZExz0flSsJoLv7Zmzu8E7KYlJeXrxQUKuXxePJSmKKhoeH9omIxxgx6vb6g6nvOaqmvr/9EPgZubGy8gzEm7IlbUZSXUEA7c0URmgg3b94c5kx5DDl+0W4tL3918+abX87lGIQUOJ3FYhF1QDquKIrm2+HtdnuZJEkfEBWPc25Op9PFouKJZLVa/8HpdGp67rm2tra+oqLiXgg80+Z2u38nKlYhEZoIAaCurvEJnU7fLzru6zjnSTWObYwxehoki5kEoCzfk8hGc3PzpwCILExd7HA4RNXTFIox1tjc3PyP0G4ZWF9XV/clACI36gzma+Ug14Qnwptuus6XTiW+xzkXvo2Zcw6LpfTBT265uVt0bEIWIFHb8k0lJSUVgmLNSVlZma2srOzLgsNKJSUljYJjisLMZvNdbW1tH9VisLa2thsqKiruFhkzFov9Ctodq9GU8EQIAHd/dvOOsrKyX4uOy3T637a2Lf+e6LiELFCiurEb7Xb7akGx5oK1tbV9W5KkFaIDq6p6qeiYAhVXVVU9WFdXtz6Xg1RWVtY5HI6HAIhs8pgMBAJPCIxXUHKSCBljSjg6upVzvl9QSK4o6WdvuOHKLatWrbqoqp4TkiEVAmtYlpSU3AyBHczfhtTe3n57cXGx0HdXr7NYLK0o4F2okiQtWbly5dP19fXrchG/urraccUVVzwDQcdqXqeq6kt9fX2nRMYsJDlJhACwdevWSV1K+jDn/Blk982V6yTp1yp0dzQ3N+e9eC3JHh2oF0JNJpPCtrGbzeZ3LVu2TFgZrgtgy5cv/4jNZnsQOaq2YjabW8rKyjJ+T6jRtem87LLLnl21atWNEHgPrq2tvWT16tVP63S6dlExZ6WHhoZ+irn1llyQcpYIAeDOz39qxFysbOaMfxVAJtXroyaD7gdcKrrz3ntvu6iKvC5mdKBeCC7LssiCEkUNDQ3fs1gsIgtgn0u/bt26e5YtW/YIgFy+j2y02Wx1mX5Yw2vT4XQ6n2pvb/+OgM7xutbW1g+tXr36Wb1e/y4hsztHKpXaHwgEXhEdt5DkNBECwO233x77zGdu+zem49fq9dL9AOZSzT7KGHaoYO856+n9+zvv/OBF1Q2ZEBFmXz0Ie4IxGo1Xt7e3PwjBDbttNpvz2muvfcRqtf4IYrtknI+huLj4uhyPIYrFZrNtW7t27Utr1qy5BRn83Gtray/t6Oh4fMmSJU8AaBE/RaTGxsZ+7Pf7L+p7sNAL/u3cdddtbs75Nx59dOf9OuAGlfPrmCS1gPNKAGDAJGcY1DG2S2Xm3UVF02Mf//jHC6qALiGFxOv1DjQ0NJwF0CwoJDMYDJs7Ojqkw4cPf35ycjKrVRir1Vre0tLy6fLy8q/OFtbW5GnL6XS+r6en5ycQt5kol3Q6nW5dTU3Njurq6lN+v/8Xk5OTvx8cHDyDmaVIBW982ZEA6Gtra8usVuu7HQ7HrXq9/kaIK7r+FqlUqrO3t/eZXMUvFJolQuD/1999AH41+4csQkajEdPT1EErW9Fo1B8Oh1+xWCyiEiEwkwxvu+qqq1o9Hs93+vr6XsH8Sq+ZbTZbU0tLy0ctFstnkIeC2oyxjXV1dRav1zuh9dhZ0EmStLK6unp7dXX191taWsYBDDDGRjjnUwAYY6yCc94A4FJo0NGCcx4dHh7+NoBErsfKN00TISFEKB4KhZ6wWCybARQJjr2moaHh6cbGxn0+n+83Pp9vz9TU1Iherw/JspwAwBwOh1FV1TJFUSqdTmejXq+/ury8/Dqj0diO/B72t5jN5g0A/iePc8gGA+AA4OD8jZXvc/+uhampqf84ffq0qJ3/BY0SISELWF9fX/eSJUv2GgyGTTkIb+Ccb7Db7Rvsdvs0AD/nPMIYSwEA59zAGCvGTHWYcmiw52CuampqbhwYGMhnIjyMmSVrkZVztNTd09Pzg3xPQisFc+ESkglJkvLxHkhF4RQejo+Pj/8QQDzH4xQBqGeMrQTQBqBt9u9NAKwosHuJ2WwW1acxI4qiHIjFYl/FwjxyIPf39382GAwW/HE1SZKEVLopqIuXLBqibg6cc57rBPAWkiSlICgRMsaynv/Jkyf/kEgkdoqYTz5wzofcbvcnksnkn0TFlCSpqaGhQeih8vlIpVJ8z549Pw+Hw/dBo9Z0gkzKsnzX4OBgzprvMsaEfTlQFEXI7z8lQqI5xpioM6EqAM3PlyqKEoa4HYkBATF4T0/P1znnbgGxtMTj8fhLAwMD7z116tRTw8PDXwMgqnKUQa/XXz7fDwk+UK92d3ffHw6HH8DM7s9CFwuFQl85duzY73M5iKqqPoHhhMSiREg0t3HjxiERcTjnCZ1Ol0mhhqwwxmSI20l3VkQQn8835nK57oLAsms5Fo3H49s7Ozs/Mjg4eAoA+vv790Wj0Z8Iiq9zOp3L5/uhHByoT3V3d2+LRqMPorALVsfD4fAX9+/f/yhyvOwvy7KQax7AVFVVlSwiECVCojm73S6kebOqqr0ul0vzpVFZlr2KoohIOLFYLHZaQBwAQH9//yvj4+NfQB46zc8HY+zImTNnbu7s7NyGNz0B9vb2bmeMCWn1wzkXvZM2U4m9e/d+JxqNbkdhnm2cjEQid3Z3dz8CDZJ1Mpk8JCjU0Y6ODiE/T0qERHMtLS2HIWAJLBQKvShgOplIptPprmyDcM4Peb1eEUujr1OPHj3637FY7F5VVQuxEkgkHo9/98CBA9efOXNmF86zXBgMBid7enq2Asj2DKAaCoXOZBlDpMTevXvvi0Qin+Och/M9mVmcc366r6/vA11dXU9Cow1gg4ODJwBkvSoUDAafFzAdAJQISR5cc801kyUlJS9kGSbh9/t3CJlQBgKBwFNZhuCyLO+A+N2e6p49ex5zuVy3FNA7w2lFUX7X19d3dWdn530TExNvmwiGhoYOhEKhbyCL5WfOeXB8fPylTD+fI+murq6H+/v7P8g578vzXJKxWOzJI0eOXO/xePZA213QaiAQeDTLGOFAICCsKAslQqI5xpiyfv36h5HFjS6ZTO5wu93ClhXn68SJE88xxjIeP51On5Bl+Tci53SugYGBFwcHBzclEolnkL9di8lUKvXHoaGhW15++eWPeTyenrl+cP/+/Y9NTEz8GBluMonFYj8aHx8X8v5INJfLtfvIkSOb4vH4L6F91RYOoNflct2xZ8+eO/x+/6jG4wMAxsbGfoosngqTyeTPz549K+pdIyVCkh+JRKIzkUhk2uizf3Bw8D7kdydeYnR09GvI7EYWGR0d/aYsy3MpQJ+xgYGBM6+++uqtgUDgbwC8Bu2+9ScBvOD1ej+0a9eum3t7e5/D/JNxamxsbJuqqo/Nd/Cpqanf7t2798H5fk5Lfr9/pLOz89Mej+c2AEehwf8N59wdCAS+dfTo0Y7Tp0/vQB7fVw4PDw97PJ5vAph3rcVkMtl94MCBf4bA3/+CbWBJLm67d+9WAoHAXofDcblOp5tzrUzOudvtdn/q7NmzJ3M5v7mQZXmgpqYmbjQa3425/y5Nj46Obj158uQz0CYxpUdHR18LBAJPFhcXny4qKlqGmfJduTAWj8cf6e3t/btjx4792OfznUIWN9twOJxWVfVFg8FQYzKZ1s7hI3xqaurJ48eP35NIJDJ6D2ez2RqtVuuWTD57rnQ6fdDtdr/TMQTF7/f3TkxM7CgqKhooKipqBlCd7djn8VooFPrukSNHvuR2u1+KxWIF0dzc7/f3OJ3OiF6vvx5zr3J2yO123yrLspCd56+jvnAk34o3bNjw7eLi4nswU6HkQtdkNJFIPDswMPD14eFhr4bzeyfs0ksv/av6+vrtjLFLABgu8O8SiqIckmX5CydOnDio5QTfRGpqalrncDhuKSkpuVGv1zdgpnvBfMotcgBxxlgsmUye5ZzvcrlcL7hcrj8jN08Zuvb29i2VlZXbGGNOvPUaUTnn7mg0+v2urq7HsplDS0vLdUuXLn01q9kCiMfj/9XZ2XnPPD8mLV++/Cqn0/kxSZLeazAY6jH//5sUgEg6nT4Ti8VekGX5aZfLdQyFUwnpLVasWLGprq7uAb1efxnO//vDAYSmp6cf7e3t/W4uWkJRIiQFYcmSJY12u/39JSUlVwNYajKZSuPxeJIx5gVwyOPxvDgyMiJkW30uOByOEqvVekNFRUUHgMsMBoMtnU6Dc+5jjB0fHh7+o8fj+RMKq+SWVFVV1Ww2my+rq6u7hHO+jHNeI0mSjXNuNplMUiKRUBljcc55EDOHl72RSGQwGAwOKIrSn+vl3XPZbDZnU1PTRw0Gw3uMRuOSVCo1rapqfzgc3j06OvpsKBQKZTvGihUrNjY1NXVmGyfDRHguXVVV1dLq6uqVpaWlLYyxZQBqOOd2xpjZZDLpEomEipmjMn7GmJdzfnZ4ePiUoig9IyMjQp+YNFC0cuXK91kslk0AVppMpopEIpHgnLslSdrr9XqfHxoaytkuYEqEhBAyK89PhCRPaLMMIYSQRY0SISGEkEWNEiEhhJBFjRIhIYSQRY0SISGEkEWNEiEhhJBFjRIhIYSQRY0SISGEzBLcoZ4sEJQICSFkVg461JMFgBIhIYSQRY0SISGEkEWNEiEhhJBFjRIhIYSQRY0SISGEkEWNEiEhhAjGGEvlew5k7igREkLILEmSFBFxGGOF1ICZvANKhIQQMosxFhYRh3M+KSIO0QYlQkIImRWJRIIAsn4qlGVZFjAdohFKhIQQMiscDk8DCGQbZ3p6ekDAdIhGKBESQsisSCQyDcCVZRhVUZSjIuZDtEGJkBBC3jAdDodfyyYA5/yQ1+udEDUhknuUCAkh5A18amrqjwAy7kIxPj6+Q+B8iAYoERJCyDmGh4f/BGAow497JyYmKBEuMJQICSHkHIFAYCQUCv0ig48qsiz/09DQ0KjwSZGc0uV7AoQQUmhisdhhp9N5JYClAObSozARjUbvP3jw4AMA1NzOjohGiZAQQt4kHo/HfT7f7202W4nBYFgKoOQC/1ThnJ8KBoPf2Ldv378DSGs4TSIIdWMmhJALY3fffXdLTU3Nuxhjl3POnYwxE2NsmnM+CKDL5XL9+fHHH8/67CEhhBBCCCGEEEIIIYQQQgghhBBCCCGEEEIIIYQQQgghhBBCCCGEEEIIIYQQQgghhBBCCCGEEEIIIYQQQgghhBBCCCHz9H+kdmgpqIKhSQAAAABJRU5ErkJggg==;" parent="1" vertex="1">
          <mxGeometry x="162.13999999999987" y="4.019999999999982" width="35.71" height="25" as="geometry" />
        </mxCell>
        <mxCell id="B2m6w45xhWhxdDzetuVd-33" value="Eligibility service will be stubbed for purpose of technical spike" style="text;html=1;strokeColor=none;fillColor=none;align=center;verticalAlign=middle;whiteSpace=wrap;rounded=0;" parent="1" vertex="1">
          <mxGeometry x="62.5" y="450" width="195" height="30" as="geometry" />
        </mxCell>
        <mxCell id="B2m6w45xhWhxdDzetuVd-38" value="Portal journey TBC" style="text;html=1;strokeColor=none;fillColor=none;align=center;verticalAlign=middle;whiteSpace=wrap;rounded=0;" parent="1" vertex="1">
          <mxGeometry x="100" y="-70" width="130" height="30" as="geometry" />
        </mxCell>
        <mxCell id="B2m6w45xhWhxdDzetuVd-39" value="Back office TBC, to be shaped by Abaco Agri capability and service design" style="text;html=1;strokeColor=none;fillColor=none;align=center;verticalAlign=middle;whiteSpace=wrap;rounded=0;" parent="1" vertex="1">
          <mxGeometry x="62.5" y="650" width="195" height="30" as="geometry" />
        </mxCell>
        <mxCell id="JN9JuaacZQjpyCuYcN4X-26" style="edgeStyle=orthogonalEdgeStyle;rounded=0;orthogonalLoop=1;jettySize=auto;html=1;entryX=1;entryY=0.5;entryDx=0;entryDy=0;" parent="1" source="JN9JuaacZQjpyCuYcN4X-4" target="JN9JuaacZQjpyCuYcN4X-11" edge="1">
          <mxGeometry relative="1" as="geometry" />
        </mxCell>
        <mxCell id="JN9JuaacZQjpyCuYcN4X-29" value="Defra Identity&lt;br&gt;token authentication" style="edgeLabel;html=1;align=center;verticalAlign=middle;resizable=0;points=[];" parent="JN9JuaacZQjpyCuYcN4X-26" vertex="1" connectable="0">
          <mxGeometry x="-0.2169" y="3" relative="1" as="geometry">
            <mxPoint x="-17" y="1" as="offset" />
          </mxGeometry>
        </mxCell>
        <mxCell id="JN9JuaacZQjpyCuYcN4X-4" value="Customer Registry&lt;br&gt;(ffc-tcg-customer-registry)" style="rounded=1;whiteSpace=wrap;html=1;verticalAlign=top;" parent="1" vertex="1">
          <mxGeometry x="-322.5" y="160" width="160" height="80" as="geometry" />
        </mxCell>
        <mxCell id="JN9JuaacZQjpyCuYcN4X-5" value="" style="shape=image;verticalLabelPosition=bottom;labelBackgroundColor=default;verticalAlign=top;aspect=fixed;imageAspect=0;image=https://cdn.freebiesupply.com/logos/large/2x/nodejs-icon-logo-png-transparent.png;" parent="1" vertex="1">
          <mxGeometry x="-257.5" y="200" width="30" height="33.03" as="geometry" />
        </mxCell>
        <mxCell id="JN9JuaacZQjpyCuYcN4X-6" value="Customer Registry will be stubbed for purpose of technical spike with endpoints exposed via App Gateway" style="text;html=1;strokeColor=none;fillColor=none;align=center;verticalAlign=middle;whiteSpace=wrap;rounded=0;" parent="1" vertex="1">
          <mxGeometry x="-340" y="106" width="195" height="30" as="geometry" />
        </mxCell>
        <mxCell id="JN9JuaacZQjpyCuYcN4X-11" value="Existing Defra services" style="rounded=0;whiteSpace=wrap;html=1;dashed=1;verticalAlign=top;" parent="1" vertex="1">
          <mxGeometry x="-700" y="20" width="200" height="360" as="geometry" />
        </mxCell>
        <mxCell id="JN9JuaacZQjpyCuYcN4X-12" value="Rural Payments" style="rounded=1;whiteSpace=wrap;html=1;verticalAlign=top;" parent="1" vertex="1">
          <mxGeometry x="-680.0000000000001" y="165" width="160" height="80" as="geometry" />
        </mxCell>
        <mxCell id="JN9JuaacZQjpyCuYcN4X-13" value="LMS" style="rounded=1;whiteSpace=wrap;html=1;verticalAlign=top;" parent="1" vertex="1">
          <mxGeometry x="-680" y="56" width="160" height="80" as="geometry" />
        </mxCell>
        <mxCell id="JN9JuaacZQjpyCuYcN4X-14" value="" style="shape=image;verticalLabelPosition=bottom;labelBackgroundColor=default;verticalAlign=top;aspect=fixed;imageAspect=0;image=https://www.reaseheath.ac.uk/wp-content/uploads/2017/08/Defra-logo-768x393.jpg;" parent="1" vertex="1">
          <mxGeometry x="-630.0000000000001" y="195" width="64.49" height="33" as="geometry" />
        </mxCell>
        <mxCell id="JN9JuaacZQjpyCuYcN4X-15" value="" style="shape=image;verticalLabelPosition=bottom;labelBackgroundColor=default;verticalAlign=top;aspect=fixed;imageAspect=0;image=https://www.reaseheath.ac.uk/wp-content/uploads/2017/08/Defra-logo-768x393.jpg;" parent="1" vertex="1">
          <mxGeometry x="-630" y="86" width="64.49" height="33" as="geometry" />
        </mxCell>
        <mxCell id="JN9JuaacZQjpyCuYcN4X-23" value="Siti Agri" style="rounded=1;whiteSpace=wrap;html=1;verticalAlign=top;" parent="1" vertex="1">
          <mxGeometry x="-680.0000000000001" y="273" width="160" height="80" as="geometry" />
        </mxCell>
        <mxCell id="JN9JuaacZQjpyCuYcN4X-25" value="" style="shape=image;verticalLabelPosition=bottom;labelBackgroundColor=default;verticalAlign=top;aspect=fixed;imageAspect=0;image=https://www.abacoagri.com/wp-content/uploads/2022/10/abaco_agri-87x87.png;" parent="1" vertex="1">
          <mxGeometry x="-618.5" y="303" width="37" height="37" as="geometry" />
        </mxCell>
        <mxCell id="JN9JuaacZQjpyCuYcN4X-32" value="" style="image;sketch=0;aspect=fixed;html=1;points=[];align=center;fontSize=12;image=img/lib/mscae/Application_Gateway.svg;" parent="1" vertex="1">
          <mxGeometry x="-150" y="204.01999999999998" width="20" height="20" as="geometry" />
        </mxCell>
        <mxCell id="JN9JuaacZQjpyCuYcN4X-33" value="Geotagged Photo Service" style="rounded=1;whiteSpace=wrap;html=1;verticalAlign=top;" parent="1" vertex="1">
          <mxGeometry x="498.5" y="353" width="70" height="60" as="geometry" />
        </mxCell>
        <mxCell id="klBmEPNoXqP3qLayS_Jw-1" value="" style="image;sketch=0;aspect=fixed;html=1;points=[];align=center;fontSize=12;image=img/lib/mscae/Application_Gateway.svg;" vertex="1" parent="1">
          <mxGeometry x="-220" y="244.99999999999997" width="20" height="20" as="geometry" />
        </mxCell>
      </root>
    </mxGraphModel>
  </diagram>
</mxfile>
